<mxfile host="Electron" modified="2020-10-29T14:20:16.467Z" agent="5.0 (Windows NT 10.0; Win64; x64) AppleWebKit/537.36 (KHTML, like Gecko) draw.io/13.7.3 Chrome/85.0.4183.98 Electron/10.1.2 Safari/537.36" etag="NLNB7FHtDNiNo_J5tHKc" compressed="false" version="13.7.3" type="device">
  <diagram id="Dn_YEbHTgrDUdMtnJDjw" name="Page-1">
    <mxGraphModel dx="1004" dy="1198" grid="0" gridSize="10" guides="1" tooltips="1" connect="1" arrows="1" fold="1" page="1" pageScale="1" pageWidth="827" pageHeight="1169" math="0" shadow="0">
      <root>
        <mxCell id="0" />
        <mxCell id="1" parent="0" />
        <mxCell id="xCgQfyRIKnEqSB6WjNVj-21" value="" style="shape=image;verticalLabelPosition=bottom;labelBackgroundColor=#ffffff;verticalAlign=top;aspect=fixed;imageAspect=0;image=data:image/png,iVBORw0KGgoAAAANSUhEUgAAAgMAAAGUCAYAAACoUCExAAAgAElEQVR4AexdBZxU5Rd9S7cgCAoiIoiigoIKotgIgoKIiqLiXxQDTFSwKFFE6e5O6e6O7e7u7p3O5fx/55sdXGFjttiZ3ff8jbNMvHnvfnW+e889V4J8yBaQLSBbQLaAbAHZArXaAlKtvnv55mULyBaQLSBbQLaAbAHIYEDuBLIFaoEF8q9ehUJnQmy2Du5xChwKzMI2rzRs9UzDLt8MnA3PQUiqGmlKA/SmfFzF1VpgFfkWZQvIFrBaQAYDVkvIz7IFaqAFtMZ8RGdpcTQ4E7NORGL8Jje8Oe84Xvh1K/pNWIUnvlmJ/hPXYcjve/Hhygv4aW8ANrolwTNBgSyNAVevyqCgBnYL+ZZkC9xgARkM3GAS+QXZAo5vAXP+VSTl6XE0KB2T9/rj5d/3ocO7s9D4+fGo0/stSPe9CKlzP0h394XUpT+kh15BvX7/w63DfsajE9bh4zUXseZyLPyTldAazZAxgeP3CfkOZAuUZAEZDJRkHfk92QIOaAGj+SrC0jVYci4KL808jBavT4fUYxik1p0hNWwKyakOJEm68VG3PqRmt0Hq/CQaPDce9325Dl9t9cKFiGwotEaY8/MBOXzggD1CvmTZAqVbQAYDpdtI/oRsAYexAD0C0ZlafPlPIDp+tg5O9AK0aHfjwl8UGCj8WoMmkDo9jqbDpuLJWedwPDgdORoD8mVA4DB9Qb5Q2QJlsYAMBspiLfmzsgXs2AIEAqkKPd7bHIzb3p0Np7v7QKrfCJKTU9nBAIFBnbqQWrZHgyf/h27TzuFwYDpyr/EIZC6BHXcF+dJkC5TZAjIYKLPJ5C/IFrA/CzBbICFXh3G7wtDuvTmo2+lRSA0YEignELB6CerUg1OLdgIQPPHHSRwLTodGbywgFsqAwP56gnxFsgXKZwEZDJTPbvK3ZAvYlQWYErjOOR53fLENdTv3hdSwGSSpgkDgGiCoK0INjQdPwkdrr8AtNgdmM0mFTECUAYFddQT5YmQLlNMCMhgop+Hkr8kWsBcLGMz5uBiZjRf+Pg2JHIGGzSsPCFgBAZ/vfBidPl6MOSfDkJKnRv5VswwG7KUTyNchW6CCFpDBQAUNKH9dtkB1WoA786Q8HeaeCEXjt+ZYsgGKyxYovLCX5++6DeDU530Mn3sUZ8LTYco3Iv8qMwzkQ7aAbAFHt4AMBhy9BeXrr9UWuHo1H+cjszFszjFIvUeWiSjYrFkztG3bFi1btrT9e3c8iM7/m41ZpyKg1mtgzpe9A7W6A8o3X2MsIIOBGtOU8o3UNgvQK2A0m7HKOQG3f7gM0q1327yo161bF3369MGnn36KV155BXXqFKM9cL0HoV5D1O3/Kd5b54rY7BwYzQbZO1DbOp58vzXSAjIYqJHNKt9UbbAACXzZah2mHAqB9PKvZcocaN26NaZNm4a4uDgcPHgQt9xyC5xszTx4cAgG/LYLp8OTYDBpLd4BWaKwNnQ5+R5rsAVkMFCDG1e+tZprAQIBCgAFpuThk7UXID35sc1eAaoPPvPMM5gxY4YAAvv27cPAgQNRr149285xd1/0+mIxVrtEQW9UwWRmqqHMHai5vU2+s9pgARkM1IZWlu+xxlnAAgbMOB+RiRGzD0B6eLhtC7kkiZDA119/jd9//x3jxo3DnDlzxKNJkya2naPd/ej67jTMOBkCnTEPRpNVmbDGmVm+IdkCtcYCMhioNU1de2/Ukg1v+X9NsQLBgDnfhKPBaRj82z+Qug+ybSGXJEEanDdvHn788Uc89NBD+PDDD3HhwgV07NjRNu9A67vRccQk/HgoEFpDNowmHfJrGJGQvUU+ZAvUJgvIYKA2tXYtuVeW7c1UG4VGv3eiEpeic3E+Kkc8+yapEJutQ5bGCJ3JcV3bBAN0zx8JSsXL03eUCQy8+OKL2LRpE6ZOnYrHHnsMY8aMQXBwsCASNm9OjYIiihgVfu1WgoGJmHQwAGp9JowmZhWYcBWOZ09T/lUo9WYk5+kRkqaBS6wCF6NyxcMtToHgVDWSFXoodCZQ5VGGCLVkEqmFtymDgVrY6DXxlqnLn6c1iWp9x4MzsPpiNKbu9cHY1Rfw+pyjGPr3YYyYexSfrr2E3/b7Ye3lGJwOzURkhgZKncnhSvQyv99kNuB0WCqGz9oDqedrpS/ikgRmEUyePBl79uzBwoUL8cUXX+C3336Dq6sr5s+fjzvvvLP087TthntGTcbUYwFQ6TNgMKlhdjDNAb0pHykKAzzi87DLKwnzjofgu61ueGfhSQyffUQ83l1yChO2uGLeiVDs8EiCV4JCAAOCSJkvWRNnkdp9TzIYqN3t7/B3z0lZZ8xHXLYW+31TMX6rNx75eR9avrcQdQdOhNRnNKSHXoH0wMuW5yc+RN1BP+HWD5ag79SD+O4fPxwNTBMFfgwONMkLMJBvgHdCBj5ceRpSvzGlLuLMFmjVqhV2796NdevWYdKkSfjmm2/E89KlS+Hh4YFevXqVHiro9Dh6jpuHpZeCodKnQ29SOYwAUf5VQKEzwys+D4vPRmH44gvoNH4TGr02A9KzX0B6eASkBwZDenAwpF5vwumZ8Wg4/A90HLcBry68gMXnosR3szVGmEQFR4cfQvINyBYQFpDBgNwRHNYCdJVrDGa4xuZh3I4g3Dp+F+o8/zWkux6D1ORWSHWKYcfXrW9R6rvnKdQbOBHtJ+zHhH3hCEpVQWdyDBEdKxhIzsvFT3t9IA38qVQwwGyB5557DkeOHMHrr78uvAQMCdSvXx/du3dHREQERo4cKQBDiaGCBwbh2ambcSgwzKHAAN38Sp0ZWzxS0X/OZTQbtVAs+FKbLpDqF0OeZLpl/caQWt8N6ZERaPj2Qjw75xLWuyUjTakXoQOHHUDyhcsWKGQBGQwUMob8p+NYgNHbHI0RG92T8cysM2g+bDLq3NkTUpOWkOo1hCQkeYsr1ONkKc9brxGkZm1Q9+7H0eKNmXhh3iUcCEhDrtZo95r7VjCg1iux6EIEbn1/IaRbOpQICLjojxo1ChMnTkSPHj2ufZYeA+oMMEzwwQcfoEOHEs5Tpz7q9BuDN1ecRUByFFS6DOiNarv3DBjNVxGRocH4XWHo/PV2NH58JJza3GOp7Fi3XskaDQQEBJYNmsCpVUc0euI9dP1qIybsCUFgikqkVcpsAseZO+QrLdoCMhgo2i7yq3Ztgaugm3bZpQQ8OXk3mvb/EFLrzhYQUNZKfQQN3BW26YJmz3+G52cewRaPZGRrDAVleu3TEBbOgBE6owpHg+Lx0sy9pfIGuOjfcccdImugadOm18AAvQDkEnTp0kW837Bhw/+89x8vQdtu6DDqd/x62BNpylio9JnQGzUwmUmws08CodGcD59EJcZt80e79xegXtf+Fs8QPUSFiZG2/F2nrvhu/fufR6fRf+OTrf4ITFHIwkv2OUzkqyqDBWQwUAZjyR+tfgtwB2YwmbHWNRlPT9mNJk++D6llhwJPQCks+JIme4KCVneh6XOfYODMQ/jHOxU6I4mF9skft2QTmGAwahCenoZpB9zRYPhMSI1bVtwWxdmJu+PeI/HSHzuwxy8IedoEaAzZMBi1MJvt01a0k3+SCj/s9EP70fMsIaQGTUv2BBR3/4Vfb9QCdbs+hY7v/YnPdwQiMUcNI0NMdtpfqn/kyldg7xaQwYC9t5B8ff+xgPnqVTjH5OLluWfR/LmxkFp1rNxyva07o8WgbzFq+UW4xuYKlb//XICd/IOLDosEMcc/T5uDw4GR6PPbAUg9hlpc34UXrsr6u113tHv/L/x64DKCUyOg0CZDa6DokN6iM2CHC2GqQo/5Z6Jw77jVkLo8DYkhgcqyR8PmqNu1PzqMXYlFF2KRrqQ0c77dh5jspAvLl2FnFpDBgJ01iHw5xVuABDDG87/YGYx2b0yFdPv9Fd/hFbUwdOyNTqP/wk8HQpCr1tnlbo9ggBLATC/UGRWIzEjG7JPeuHXsGtTp+IiF9FbUvZXnNXpNmrZGgxe+wojFh3E0KBBZqhgodWnQGZVC74DSyPZ2cGE+GJAhPD1Oj42CVLdB5QEBqx0bt0T9h4ei5/STOB+eBqWe4SX7s4W9tY18PfZnARkM2F+byFdUjAU0BhMuR+Wg0/f7UeeefpDqN6r8yZ2TfP1GqPPQEPSZdhgXIzPtNh5s8Q4YYTBpoNJlISA5Fm+ud0Or16egTvuHKsc+jJE3bY16vV7Hg7/swWZ3byTkhCNPkwiNPkv8thAcsjOvAG2Tqdbj652BaPHqz5ZQknUBr8xnkgubtob0ym/4ca8vIjIUduslKWZYyS/LFhAWkMGA3BEcwgLkCqQodPh6dwiaD/4B0i3tSwUCJMyRGMeUOuvD5lK9bbuh/RuT8cPBsALtffuLB3PBowyw0ayHzqBAjjoVvomRGLTcBbcMnwKnDj0KdsPFZVWUwrGgR6DZbQIItJ90GKuueCAiPQQ56liodGnQGhSWEsZ26BWgp+JESCZe+G0/pIdeLbWvMHTA/mLtJ3xm3+FrpYYV6jWAdHdfPPTLASECZSgo6yxnGDjE1CJfZIEFZDAgdwWHsABdvkGpStw15QLqde5jkxv89ttvx4ABA/DZZ59h7NixGDFiBO699140bty49Am+QVM0eOhlPPq3M7JUShhN9lmZr7B3QG3IRrYmCc4xoRi55gLajF5gEdAhqbCsu2GmZ97xIOoP+Bb3/rwfa5w9EJ4ehExVFBTaJAtx8JoMsX2RLIVNzGb8dDgKHUdOg9S2W6n3z8W/Xbt2GD16ND799FN89NFHGDJkCO655x5R2KlE+xVoEdQfuQALzwYjRaG0yDPbmbfEIQa6fJHVZgEZDFSb6eUfttUCnNwVOgMOBySh/kdb4USvAHetpSxwLNNLyd0dO3YIyd3Vq1djy5YtGDRoEK5PrbvhXE514NThYXT8+h9cjkqFSqezhAvsTJ3e4h2wcAdYTpi1AjKU8bgUGYLJ+y/j0Z82o9GgHyB1ewFSi9shiXS64na7TpAa3wKpw8Oo03c0mo+ajU4/7sCApYfgm+iPNGVkQQZBplAdNHIHbIeEOaY4ag0GvL7GD436vW8ToZIVG/v374+LFy9i0aJFmDlzJjZu3IgFCxagT58+pfY1iSmtT4/D+A3n4ZOQYdekSlvHnfy52mUBGQzUrvZ2yLvl5J6Yq8H8UyGQhv5hSZ8rBQhwcR88eDBWrVqF2bNn49FHH8VLL72E/fv3C/ndrl27lj7Bt7kHt436CyuvRCFTpSooxmNfu2A2qAUQMLNAD51JCZUuHRnKOHgnhGGdsxc+WX8cj09cjVuH/4K6/T6wSO3e3RdS+x6QyC3o2AvSvc9D6vUWmrz0FbqOnYNhc3fhhz1n8fXes+i3YA/Wu7ohMTcWan0G9CalCE0wm4G/bW8H+wtj9/1nnYYTZahtcPU3a9ZMgMSgoCC8++67AgBMmDBBAIKvvvqq9L7C/vjgEAz+cw9OhCSKlE97Tbe0t/aSr8c+LCCDAftoB/kqirEA466c3MPSlfhmuzuk/p9BatjMpsmZYIC7vK+//lp8nq5gavLPmjULvXv3Lv0ct7RHy0Ff4/v9QUjKzYUp32C3wjpksHPxMZp1It2PgCBXk4C47Ehcjg7CGmcvTNh1AW8vOYAXpm1A76/m44GPZ6L7R3+gx2d/4cmJyzF09k6M3XACs04640CAD7wS/HEs2BNvbzyOIatO4WJkNHI1ueI3LKRB+2PNW/qLGWfC09Fr4jZI9zxVejtLEqxgwMfHRwCBRo0aCclmgkkqNt7gOSoKjHbshUe+X48d3jEFWRb221+KGW7yy7XYAjIYqMWN7wi3zp0nd6D+ybkYvfqS2L1SFtaWyZlgYNmyZfjll19A/sBDDz0kivTw3/fdd1/p52h2G5r3/wAfbPFBXBaZ8zqYr9pn7QJruICAgNfJ/H9WFMzTJiFbE4M0ZThCUoNwOdofO319sOSSJ/4644FZp90x75wH1rt54kSoDzwT/BCbHYh0ZQgyVRGIyYrEJg9/PDDrJCYfDURIao7d8ifYnwkcTflG/OOThAfHr4B016Olt3MBGHj55ZcREhIiOCbsO9ZQAbkmtvQ3qc09uOfz5VjnGgmtMU94T+wx5dIRxr18jTffAjIYuPk2l3+xDBYQYMBsgm9iNt5deUEUiykLGNiwYQPWr18vNPmnT58uwgRvvPEGWrRoUfoE37QNmj35HkZt9EJMZrrF9Ztvn0p7NOn1gIAaAFQIVOpSRaw/Wx0tFvgMVRjSlCFIUwYh/T+PEPA9goBsdYzwLCh0qYjPScO43b54dI4LNronIUttn1LNVq8AuQxbvRLwwOdLIXW0wQNUAAYIAOLj469VdTxx4oTgm5BISK9SqYDg1k7o9OlSrHEJh8ZA0KSD2WyfoZQyDEH5o7XEAjIYqCUN7ai3afEMGOGflI0P116CRPEYyskW5aa97jVO7izX6+7uLgABwwOs2teypY3s+uZt0fyZMRizzRuxWamiII85n1kF9hcnt7avAAQMGeSbhSARNQh0xjxoDFkWUKBJQq4mXngLstRRKPwgAMjRxAtvAgWFqCNAQSOtQWOJwS/0whvrAnEqLBtm1gK2s+MaGDDpsds3AQ99uQpSp8dt6isME9AzEBAQAILFBx54AK+99hpWrlyJffv2oXXr1qWnGba9F13Hr8Q6N1ZzzILemm1hx/3FzppQvpxqtIAMBqrR+PJPl24B4fY1GxCeno0fd7tDemECpEY27OoLCIRLliwRMd/mzZuLDAJW7rMpd5zAotWdaDV0En494ovEnFTBoLd3MGC1qMVLYIbZbBQxfoNZI4h/3LEy44A6AfQYKHUphR5p4j2tPgd6I0mCmgKioEno7m9yT0Xf+d74/kAUojK11p+yo2fyS6i7oMXlmCQ89useSPc+WyYwYOUM0BPASo5MM7x8+bIIMVF3oEQQ2vlJ9P15E3b6hlsKOJlYzdEkyxPbUQ+RL6V4C8hgoHjbyO/YgQUYc6XkbnJeLlZfCoL01mJITVqVPCkXeAjoGShMICxxIr/OqyA+27Yb2o5Zis0eQUhTpFnAwFX7L29sbTYCAhILuUASxJjNBhhMWuhNajANkQs+d/7WB//NcsQGsxamfD3MV1mJkG7ufOENSVca8N3+SAxY7ocF51mkyGz9KTt5/hcMJOam47n5F+HUcxgkp1IW8UKcgcDAQLz11lti8X/11VcF5+TAgQNo27Zt6SCy11t4Y/4+nA6LFHwN2lkGA3bSNeTLKNUCMhgo1UTyB6rTAlyICAYUWgXOhMag6Rf74XRbF0t9+aIW8EKvMW/8xx9/FKliZQYCdeujTue+6PzTIXjGRyBHkwaDSYV8hgnsTGug5Pbh1QoHuljUmQVAgh09BuZ8w38fZv7bJEIM9MhcxX+L7rA2hHNMHt7fEoLh6wJxNDjLzkImVjCgg1KXjdFbfHDLgM8hNWtbKnikENUTTzyBM2fOiNDA33//jblz52LGjBkibECPUol9iLoUg37GD/+ch19S9DXPgMi6cKj+UnJvkt+tuRaQwUDNbdsacWfc3XLx0hlVCExJRv/5l9Gw93CbtAbat28v9AVsyhwoBCLEpN+8LVr0fx9DVjgjOY9FeTJgMKkdWlnuGiwQO33u9q0LfsHf1tdLWLzUBjPWu6Vg6JpAfPJPGGKz7SlcUAAGTDpB4Jt3LhQPfLYAUqfSRYOsCoQjR44U4HHUqFEitbBv375o1aoUTxTrN7TqiDZjV2P1ZW8k5cZBLXMGasT8U5tuQgYDtam1HfBeCQa4u+JCnJSbjr/PBKD1u3Pg1K4bJE7C1y/ilfHvOnXh1OkxdBk7H3PP+QpWPSd3kvHETq9GEMJIAPzvwwoWSusm0VlaTD8ei6cX+2DRxUToTQQTpX3r5rxPj4bRZIDGkIcr0XF4bcEx1O832mbSabn6U8OmkHq/hYFzj+BsRDBytYmgNDRDMvYqzHRzWkP+FUeygAwGHKm1auG1coHiAmw0aaHQZsE3MQaP/XkajegdaHpr1YCBZrehydP/w8uLTsEzPhR5miRoDTkWnQGq7pWwc64NTcREgisxeRi9NRT9FnjDK0EJnck+BIgIHo1mepKUyFKlYvoxP9z1vzmQ7nzEJgnrMoOBug0EMG3+4UrMPeWC0LRw5OmSoTFYxJmEXLO9IKXa0Dnleyy3BWQwUG7TyV+8GRbgwksSm4mV+Yx5yNEk48/Tfrhn3ErU6fJUgdZ+KdX3yuItqNsAdR54GT2/W4t553yQqYoWbHuS7MhdsMTS7WQbfDMaoJjfYLjgQGAmevztKTgEcTkUZKp+u1jAo1loQjBr4mJUFN5ffRYNWJ9BFGwqri5DOfoQ62O07IDGz3+OAUsvwj0uEFkqhpTSBCnTnhUri2lW+eVabAEZDNTixneMW7cw4k1it6eCUp+OmKwYjNrgiltHTLXo69ugPW/zju+ux9B61N/4cqczIjJCkKth/DezQGNAThOz9hku+4m5esw5l4BmP17CWtcUZKiM1rer9ZmAzWDSi915ljoJm92D8PjU3ZD6jK5YSefrQWXTNqjXewS6/HIEx4J9kJgTJjQcRH+xhpRquRepWjuC/ONlsoAMBspkLvnD1WEBC2/ALNz0zJPPUSfibHgI3l55Cq1enwzpzl42pY+VCAi4y+vUB63emYWxG0/jXIQ/MpQs15sMLV2+Jh3y5RDBf5rfaL6KkDQNhqwKQP9FPjgVlmMX4QIr6ZTpkwptOo4EBWHoylOo/9F6SI+/Z0lNtaHqZYn9hRUgH30brT7fiDfWnkJ4RqAo70zdBp0hz6I+aKfS1f9pRPkfsgUKLCCDAbkrOIQFuNujm54TvEqXgZS8WBwKDMDoVcfQ9p2ZkLoPtJTfLauXgCTEZm0g9RiKW9+djU83nsTxEF8k5lp3eRkWr4CZyoP2ERe3pwaj1sDJ0Gw8NtcLX+6JgHeCstrJhAQDBG46oxbO0Qn4br8LXlx2DG+vO40eP+9A/efGQbrjQdgqa/0fUFCvAaQOPUVooPv36zFo2TH0X7QXyy87IzYr5lpKIT1ZvA75kC3gKBaQwYCjtFQtv07BHcinupxOcAe4A0vKjcbRoAB8vf0sen67Ag36fwQnlublrq1ew+JL1xIw1G8MqeWdcOraHw2f+xRtPlmOh37fhw1ubojNDkG2JlYo9LHgj+AK2Gm53uruFiQTqvVmTD0Wi+eW+GLe+QQk5+mr+7JgMpvhEpOFCfsCMHT1Jfx82AX7A3zx2c6LaPvNFjR97VfUe+Q1SLd3t4DIkjJT+B5VL9vdhzo9h6LDqOkYPn8v5p5xxgY3F3y47RgGLD+G1c4BiM3KFB4s4UWSwUC19wP5Amy3gAwGbLeV/MlqtoAlXMA0Q40owMOKfGmKKLjHBWHuGTcMXXQU3T+bi1Yvfoz6Dw6E012PiQlcurWTyAMXz7ffD6dOj6NBz8FoM+hz9PhyEYYtPoqPtp/D04v2YtGFSwhNDYNCmyJy1fUmrSU8IE/sJbZ+UKoa72wKxhsbgrDbL0OkG5b4hSp8k3UTPOMV+GpvOAav9MIvRwLhEhsLz/hw/G/bSTy/9AhGrDqNZ6Zuxl1v/4Imfd9Cna79IbXvCVYelFrdZXlQ3Kp9D9Tp+jSaPP4G7nzrF/Sfuhnf/HMee/28EZkRiJisYBwM8MPwdefx6mpnrHONRXwO9ShkL1IVNrF86iqwgAwGqsCo8imrxgIW74AlXEARIpU+E3naRGSpoxGfE4ILkX6YdcYDb60+g77TduK+8UvQ8Z0paD34C9R7ZixaDvoCd46aivu/XI4nZ+zGe+vOYu45D1yI9IFnvDdGbjiMdzaexG6fIGSpM0WhGaapye7e0tuTNtrunY6XV/oLMaLAFPVNp87RKa8z5oO/PW5XuNBBmHosCv7J2YjLzsTyKwG4/88D+OvMRZyL8MF2b29M2HsFL80/ip4/bMA9Y2bjjuHfoe3g8Wg7ZDzaj/gB94z5Cw9P3IgBcw7jqz0u2OHtiYBkX6TkBSFTFYZsdSwylEk4FhKLISvdMWyNLza4JyNVoa/2cEnprSZ/QrbAvxaQwcC/tpD/cggLWOLBZIszl5zMbYU2CTnqGFF+lyV5g1L8cSbcG+vdPTHthBtGbryIVr8cxJBV5zD5mAs2e3riXIQ3QlL9kKYIRLoyGJmqcLE4PL/0FL7a7QmfhHSwFK4sGmN7p1DqTPjtRCyeWeKLacdjodLfvNoF/wIBFT7cHoruf7pj5qk4RGaoodYbcCwkBS8svYJXVp1HUEok0pURSFeFIjY7EB7xvjgQ4IWFFzzw/QE3jNvtinG7XTDpoCsWXHAX77nF+iAh2w+pioBr/SVHE1cQSsoV9R6OhaTh5ZW+GLTSDxvcUpCrZfaJfMgWcAwLyGDAMdpJvspCFhDhArMZRgEIVCJkwAp8udo4ZKk50YchVRGMFEUgkvL8cTzEBffO3IRVzmcRlu6N5Dx/8V6aMgQZyjBkqaJESlimKgU/HfZF/0Uu+O0Ei83IXoFCZrfpz4BkFT7bGY4nFnrjSFCWTd+pjA+Z8q/CJ1GJ0VtC0Orny5h/PgGJucwAuQrfJCW+3BOKB2ddxrkIepLSRZlmlmwmCExXhiBVEYTkvEAk5wUgKdcfSbl+4mHpKwHifX4uQ3gDopGrTYBSnyYyTQxGjeCVkKdwPCQLQ9dYsivWuabAaJbDBZXRvvI5qt4CMhioehvLv1AFFhCAgOVq81mJTyNIhRpDJhS6ZLGwZ6ujkamORIYqHGfCvXDPjG1Y7XIJUZl074YL0MDFgJM6+QHMUKCErW9iJj7aHoiXlvviH580OURQxrajm36ffwZeXR0gHil5ejCGX5WHwXwVl6Jy8eG2UPT82xOLLyYKDQQChCy1EfPOJeDJBV6YcjQSCp0GWqMKGn2OEAdimIk7fIaaMlURYrHngp+hCi14hIn+kor/q+cAACAASURBVKmOgugvGkt/oUdKZ1AIZUwWfbISBlV6kwBB724OQf/FvkJ/gYCgai1QldaVz11bLCCDgdrS0jXwPq3qhCzPa8zXiRLDlA1W6zKh1KaK3V+uJgHnIoLRcdoerHL2RGxWNPLEhJ4sFgPWHNAac2EwqkRuuFqvxy7fNIxYH4iRG4MRmqaugZar2ltiNsHSS0noNdtTZBlka+hhqZrfZF0EpjaO2R6GF5b5YcGFRKQoDCAQIAghmZEVFkdtCkZwCqtOmkFlQAJIrUEBtT4bKn26UJkkMMjVxItHjjoO4iH+nYg8bcq//cWQJ9JNjWYCHROulxzO0RhxKDBTyDUTEGxwp9eq6mxQNZaVz1rbLCCDgVrW4pyUuXvjjikhV4fYLMsjIVcPTtr2VHTGlqaxAIL8AsliTvJaoUVA4Rfu/rjYX4yKwR1TjmClcyASc1PEaxQv4s6OBZCYrmjd3XFiT8rVid3ks0t8MfloDJhLX1WLmS336Gif4ULsn6wSugMP/eUhdsoKnanSb4N99VhIFsZsDxVeCKY1JuTorv0OQxaf/BOOYWsCBbnR6rKnZoXZzHoX1K3QioqYTCFln2B/ITFVpc8Q3iL+rdFng++L/mLUiPCU6C9CVKjoMADH18HATLy9KVgIMm32TEWa0lAt/ajwmI/P0SOmYMxTQdI65q8ZTf6j1lpABgO1oOk5GZDMFZ6hwemwHGx2S8Lck2H4dY8PJu7wEI/Je3yx4HQEtnkm40JkLliZjougIxwEBAwbcCEn4Y+CL+QTCGBg0uBKTCpum3waK5wjkaIg2UsjcsGpH0CvAmsfWHd34jxXr8I7UYmv90bi8XleOBacBWrxy4ftFmB/OxOeI+zHOD7FiOjOr4yDZ7F6BEZvDbkGBOILAQGCj5mn4jFohb8gNaYqDNd+mm1s7S+mfJOlv5gL+otRI8iAepNa7P71RrXoR/QCmEzsL/QEEByKXnftnEX9ITwEQZkYtNIfr6wOwBbPNKHBcLOApVJvQni6RrSDZcyH45fdPvhhO8e8J6bs9bs25s9H5gqQoDXaTwXKomwqv1Z1FpDBQNXZttrPzFAtJ+XQNA32+abgp10+eOmPg+g2bhVuGzkTjQb9gHrPfyUejV+eiHajZqH7l2vx6t9HMf1AAI4EpCE6kzsnThCVM5FXpVGsk7x1oicw4OTtEpuNNr9ewPIr8UhXsqysSYAGUXSoYFK//v40xnwhr0shHRLCuMs02Ellvqq0YWWem7tOlji+/093zD2XgLhsXYV3xlZgezEqFyM3BGHAcj8svpgkOALWa8+/ehWnwrLx4jI/keboGquwvnXt+T995So9S/likbf0DaMAidz904NgAQB83zIOru8r105axB8UZDoanIWXVviLcAUBQVV6CIQIlIFjXo09Psn4cacPBv5x6N8xP/AH1HuOY/5rNBk8Ce3e+UuM+SF/FYz5wHREZWqhMcresCKas0a/JIOBGtq8dNVmqo04G56Fz7b44O5vtqP+4J8tsr1tu0FqdptFha9uPUh8NGgCqXk7SO26Q+oxDI2HTccDk/bgu12BcI/LRa6GE6T9AwI2Z+GJnn+7xSlw2+TLWHY5EZkqumotuzr+v6QjXWXEapcUtP71CmafpQtazh0vyV7Xv8dFmYDgrQ1BQp3wH5/0CnlYCASUejOcY/LEbvuxeV5Y45qCVOW/u372UbYxf5Mcgt2+6TDYwOi3epcsfYeL/r8Lf+H+dP092vJvfv9QUCZeWu4nvBgEBIJDYMuXy/AZ65i/GJGNjzf7oMu329FQjPmXIbW9998xT0XFOhzzTS1j/vYHhBx3w6HT0W3iXkzcEwiXmFyRGukoY74MZpI/WowFZDBQjGEc/eWUPANWXEnCw9NPQRr4s0WJr14jSJItJVydIDVsBumuR+H02kz0+esSdvqkIlNtoEPe4UzjEa9E28nOWHIpSQAkW2+Aiw/JcFTWY976wYBMaOVwga3mE58jfnSPU6DvAm98sDUULkXs0m09IV3YDGHRW9Nxugt2+qaDrvjCR57OJMiLHae7YuFFC5mw8PvV9TcBAVMtB67wxzOLfbDFMxUmG0BKWa6XfXXVlSR0n3YGTgN/tNRfqN8E/6mtcH3lReu/KdFNcHDnI6j72kw8NfsitnmlIotj3gG8gmWxk/zZoi0gg4Gi7eLQr7K2/LSjkej6xQY06PWaZUdQt0HxWv3WCaHwM6u61W8EqcUdaNh3FLpP3IPFF+KQTGU1BwMEBAO3T3EWKWf0lpTlYGyaIQIuZqM2h+BSVF6FXd1l+f2a8FnakGECLoK/HIn+z07e1vsjZ4OEvCGrA0CPANMXSdKj98F6ECxciclDl9/dRJqhX5LKrrxZDBkQUNJr8exiH2zySIW5kngUdO3/fiwSd3+xGQ16vgqpaRtILKpUlsJd/CxretzSAY36vYceE//B3LNxSFfSI/avna32lp9rlgVkMFCz2hMkSk07Eon7x61A/YdeLijXaos3QCp6B0FQ0KwNGjz6Bnr9sBULz8ciXeVYgIBgoP1UFyy8kIgMVdnAAOdALmbLriQJVviUYzEiplrDuk2V3w4Xq/G7I4RcMUMvxjKEnJQ6M3Z4p2PE+iARHuDfORrTf4AAQUFQihpjd4ThvpnuIt2QIQV7Oxg2IZB5d3MwmK2y1TMNvL+KrLXkYvx+LAL3j1+Neg+wemfLsoGAwpsA/u1UF1Lz29DwsTfR64fNmHs2Frla2UNgb32psq9HBgOVbdFqPB9Tp5ZfTkLv7zaiwcNDITW9tegF/vrBb8u/m7dFw77v4rlpu7HNKwUGs9lhPASeCUrcOc1FqNKVFQxYm5NM9c93hQtW+GqXZFGpz/qe/Fy6BRjPPhqSJUIub24IsjlcwKwALpjcTRMMcDedrblR5jcpT4/Fl5LwyGxPzDodh3SVAWXAG6XfQCV+IkNlwF7/DEGAJCDY7pUuQGp5AAG9IcsuJeKx7zehXs+hFiBgy3i25TMt2qHRE6Pw9LS9+MebXgxLFkUlmkI+lR1ZQAYDdtQYFbkUAgHPBAVenH0WzZ5830IMsmXAl+Uzre5Cy5e+xDsrr8AvOU8wsB0hZEAwwBgzXdXlBQN0klLchgsZBWyYilWeybsibezo36Vbf+nlJBE3n7A/ssDNX/Rd0bYEAtu8KAAVJOy+UQCBGz07zPw4EJCJ19cFiUdstg7GSnK/F311FX+VtqCHgKmPTDtkkScSIcvqjL8UnYshc0+jyVP/g9SsbeWBf+u8cGsntHppPEascEV4uhJGGRBUvPHt9AwyGLDThinLZXHizNMaMfFgJNq+OQNS2/sq5ia0TgTXPzNkcNdj6PLRAsw8FQ29ibsvSq2WdQory91V/LNeCUp0+s1VZAQwQ6C8B+PWVNZj3vhXeyPA3ah8lM0CdOVPOhQt9AeYXSAEna47BV3+JAbu8csQYYXX1gZiq1eayEy47qMCkJEb8M2+SOF23+2bcf1H7PbfBDv7AzLxwjJfvLE+CDt80oVHw5bRxM/oTGZ8szcM7d+aDokZAdeP18r4NzMP7nwEHT5agnnnY6HQ6UWKpd0aVb6wcltABgPlNp39fJFegbA0Fe6ddh71uz1jYQWXMhE4OTmhXr16aNiwIRo1aiT+5mulTiiNb0GjR9/As/OdkZKnhDGfLtuiVdjsxUIEA51/c8XfZ6gz8G8aWnmuj7HvHw9F4cmFPgW68/YOhcpzl1X3HYYL6FXhbvjpxT4ISlX/J/WPQIAkT8r59pnvjQHL/cUOmlkCRR2sDPjXmXg8v9QXPx2OBt3mjnTQHgwZ8Popm0xAYEu1Q34vLF2NR347jbr3D7AQ/0oZ89axzXHeoEEDMe7r16+POnXqlDzum7RC496vod88N8Rlsx6DSSYUOlIns/FaZTBgo6Hs+WNM+VtxMRZNRi2B1PLOkge2JIGTQZMmTXDnnXeiV69eeOyxx9CpUyfxmk2AoMPD6DRuPXZ4JUKl1wkFP3teEqkmeM/vbiKWTMGXihxkVZ+PzBFuay5WkRkaoYNfkXPWtu9ysWP+P9M9uYBTCps7XT7oEdjrl4EH//LA4/O8cTYip1htAnrEmGFAVzszPUIctI4EARBDBtRFoIgSPSalqTWyINLsc3G4492/LWnDNgIBLvwc+/fffz969+6Nbt26oWXLliUDAm4S2nRBs8924GAACztpHcIjWNvGVUXvVwYDFbVgNX+fi3BkpgbvrPNCg77v2kQg6tq1K7766ivs3r0bu3btEs+HDx/GhAkTcO+995YKJqSWHXDrwPH4bGcgMlVKUNKV4QJ7PQgGuv7hJurbVxQM8B4VOjN2+qQLstr/toZWqaKcvdq0ItdFYh8JmRMPRqHzDFex+OVoTcIjsME9Bf0W+OD5pX5CXIgZAcVxMwgiCAKGrGLMPc3ueQIl2YwhKIZFhq8NFF4CkgqLE/zhmM9S6zFktT+a9X0LUtPWpY9ZSRLegO7du2Pp0qXXxj7H/7Rp0wQwsHoOinxudhsavfQdJu71Q2yWQqgy2vMGoCRby+8VbQEZDBRtF4d5lUppfskKPDTjHOre/bhFG6CEXcKtt96K77//Hhs2bMCnn36Kfv364YknnhB/79mzB1988QXatWtX8uTSqAUa9xyMJxd6IDkvG9Rtp76/veYi+ySq0O0Pd/x+Mk4s3BVtXC5mLPYy81QcKG6z3i0FmRXgIlT0ehzx+0zXZDEjCgiRIMjd8OJLiYJcOGJdEM6GWzwCRQEBehBIEJxxMlaEGmadiUdyodoDjmgPXjPTDnf5pmPkxiC8sNRPAM6iOBXm/Hwk5mnQ+Tdn1Ov8uE0hAnr87rvvPsyePRvbtm3D8OHDxbgfOHAgXn/9dfTp06eUMd8c9XsOxZAllxGYklUw5u13A+CofaA6r1sGA9Vp/Qr+Nhdfo9mEy1FZaPHVQTjdcgckEn5KAANPP/00VqxYgT///BMdO3YEY4bkDjBksHz5cixcuBBPPfVUieeQ6tZH3Y6PoP3kC4jISIPOpBFa7vYMBu770/2GgjUVMb/OlA9yEV5dHYCBy/1xLiJH6LlX5Jy16btc0LVGMzZ5pAlBJ9YRoDrf+1tChJZ/UYug1T60PYsgkbfxxe4IoXBY3C7a+h1HeSanhV4nZq0QEJAQSZBAe/HgblxrNMErPgu3fH0ITm272kQWbtq0KYYNG4ZLly7h7bffRps2bcTYb9asGW6//XbcdtttJY/5eg1Rp0MPdJ18Eu5xqaJ4E2s22OuYLzCX/FQGC8hgoAzGsrePciBqDEYcC0qB05jtkBo2L3lASxI+/vhjrFmzBmPGjBHcgcLA4ZtvvsHatWvxzjvvlHIeJ0i3dUHzb4/BJyEBKr0CrABIL4U9Hj5JKnSf5Y5px2OFKFNlXaNSZxLkr15zvPDDwSihVMj4r3zYZgEu4FZ1x6aTLolsAOoIlFQtkx4Bkjjf3RwiFkuy8cnKrykHuw91COgheHmlvwCbBATUTWDP4phX6Aw4HpSMph9tgtTqrlLGqkVM7I477sCXX34JNzc3sfDXrVvypqHwvCD+rlNXbDZafHMYl6ISRJlwU77Rbsd8TekPN/M+ZDBwM61dyb/FiUGl1+OAXwKk0ZtsyiKYNGkSVq1aJVyD1w/4999/H+vXr8fYsWNLn2Bad0bTLw/CNSYWCm2uKBlsLe1aybdZ4dP5Jqnw4CwPTD0Wg5RKdCdz4iaR64cDUXh6kY+ofVAZnIQK37ADnIBs+BSFHsuvJKHfQh+0n+aCYWsChV5Acbt82psKmyuvJKPTby6YczZekA8d4HbLfIm5GpMABBQlYthgt1+GAAnk5uRqdDjgG4+mH6yG1Kpj6WNVkkCe0OTJk3HmzJmSyYLFeRVJImx6Kxp+cQjnI+OgNebBxPBgvn1uAMpscPkLkMGAg3YCugs5MZDNfzggAU4fbrUUFypuMBe8TjCwevVqjBgx4oZJ5IMPPrjmNbgeKNzw7zb3oNk3R+ERFwOFjrwBlga2T94AwUCPvzwx+WjlggF2HS5QYekaMBeeueIUv7GlSp6DdrtKuWwCgcRcPajk2HO2p9jlj/0nTFT1G7crHAk5uiJ/hx4DliZ+apGPKCsdns7wVM31xJBX8Y93uvCYUIFxtx9lmA3I1WpxJCAeTcestxkMkBg8ZcoUnD17FmX2CnDucKoDpxZt0ezrQ7gQGQutIQdGk06UfZZDBUV2V4d7UQYDDtdklgu2ggG9SYdzESloMG6/hVVMYaASAMEnn3yCdevWiXBB4TRCphwRKJA38Nprr5V4DvISnO54AK1/Oofg1Fio9dl2HUOkKA0XnV+PVD4YsHYfsr+fWeyLT3eGITxDY31Zfr7OAly7KdbEipokX5I8SO4FAcAvR2LwxAJvIRt9fUU/gi4SDin2xEJEl6NzHU5T4DpT2PRPgh2SK+khGLLKH3v8KL6kwZWoZDT7Yj+kNp1LHqsFc0GHDh3w7bffwsvL64YwAeeBwnNBkfNH3Qaoc/v9uOunY7gSEwONIceux7xNxpU/9B8LyGDgP+ZwpH9YPANk8nvGp6Pb1FOC1CeJMsXFFB2SJEEO3LhxIxYsWPCfrIHOnTtj586dgljIHOQiJwQryGjYHI0eHIBH5zojJisOGn0WDIJEaJ+EIr9kFR6Z4yly2lnmtSqOPK0JU47GiMp804/HiuJGVfE7jn5OVtSccy5B6AiM3BgsRId0xnyxw78cnYf/bQsVxED3eKav/bvrp3zvoouJ6DXHE9OOxwgg8O+7jm6Vkq+fHhEWZyIYGLDcBzt8EhCZmYEOUy6i7l29QEJvieNVkoTAEAmEPj4+YiPQokUL8R0SiFu3bv2fuaDIczVshnoPDcIL88/AKyEWGkPBBuAqRcdqS0uU3E6O/q4MBhy2BS1ggHG74NRMvLb8Cuo/+hakxreUODFQYGTcuHFCX4BZBSQVUXOAqYbkCwwZMgSNGzcu8RzSLXeg5Qtj8f4WDyTkxFvAgJEuW/sEA9xR9p7jiR8PR6OqwACJg9QzYDEjMuMpIiMf/7VAZKYWM07GCQ/KxzvCQI8NMwOsSwmJgFz0uAumfgClo2lXhhUYMx+2NkAULCKBkJ6C2nLwVgmGqKXwxvoADFjugZXO4ei/yB1NHh1uqUxqBerFPNPzR97A9OnTcfHiRcycOVOMe4YOfv31VzDFsEgQYD1fszZo+MKXGL/9CoJT42QwUAM7nwwGHLRRrWECegYSc7Mx51QAGr81u0CBsHhZYU4KXbp0wZtvvomJEyfip59+wo8//ghmEgwYMABt27YtxWXoBKl9D9z58RKsvOKPNEUCNHYeJiAYeGyelxC5qcp6AtzBkfn9+rpAsWhFZ5FHUYtWrRLGEnkVU4/FCoY80wFdYxU3iARxgad+A+WFWYaY5EJKE/smKfHZznC8sipAkOoIDmrbwTtOVeix2SMZr6z2wpMLL6Hn3xfQeOgUSLd1LXkhL1jQCfIfeOABoSVSeNxTZ4BzQrFggHwBZg99tA6bXH2RkJvwLxgQcuS1rz1qYv+TwYCDtuq/YMCAPG0erkTF4p5fjqJe16cgNWhS/MCWJMEmpoeAIiR9+/bF448/LuSIOVmUGjts1AINHxmGJ2adgE9iKHI0SQVkIvslEAYkq9Fnvhe+PxBV5cWFqIq34EIi+s73xowTsUJetzbtYq8fTtzZk+hH8ubglf6ioNDlmLwbgID1eyRf0sPCEAJrF+z3z8AvR6LFdxl+qWhtCevvONIzl1qlzizkllc6J+LFZZ5o+dMJtJtyDPU/2Qap2/MoLTxoXehJHqSmwMMPPyyEhqhISM2BEkmFjW9Bw56D8ciss/BKCEW2OgkaQy4MJp3dkoYdqX3t5VplMGAvLVGO62A2AXN99UYVUvLSMGabN2595XuhI072r3UCqLRnChp16ImOo6Zjwn4PZKiioNSlQGfk5M40I/vMJghIUYvFecL+KMFiL4epbf4KFz+6vxku6PG3B46HZIN6BLXxMJjyEZGhwZRjMUJpkJUFXUoAAlYbMVzAQkUPzHIXaXWPzvMCsw3c4hTWj9T4ZwIAaiowVZUluFm1kQTYtzcGYdAKLwxf64Z+C0/jlh9PoM4LXxWM+eI9guWeA+rUg1P7h3D7qN8x6ZAnEnIjodClQGvgmC+oWlqb0W4N6okyGHDgxqR3gHF6g0mLPG0WToRE4vEZh9GwtzWOWJmTgxOkZrehyTNjMGjBUZwKC0C2OgYqfTr0RqUQHWLOsT2mGREM9FvgjW/3RVY5GGB3YrjgXGQuKEY0anMwfBNZB7525WMzLY6hAQo99fzbU3gEmDVgi4ufawvz7D/eHobbfnVGt5nuokIkwUVNPxhWUunNop8S/KxxTQH5FZRt5mPsjlCsc02Ad0I6NriF4OnFZ9Hi881w6v0mpEYWUmC5F34rP8D6TG2B5u3Q9Kn38ey8U3COYS2SWKh06dCbVGIjYo/jvab3kaq6PxkMVJVlb9J5Ld4BPXSmPORpkzH1mB+6fr4Mdbo9a5Nmuc0TR/3GqNNzKB7+YR3mnfdCuioMuZoEqA0FmQRm+yQPshkCU9QiN/3rvRE3BQzwNykhu9I5Ge2numDe+QQk5OquEeVuUteotp/hgh+aphbZFbdPcRFAgMDAVv4Ed8X0Dkw9GoM7p7mIUsYs7VuTARVtozUQBOhwKiwHU47F4slFPrh7hiueW+or6mow2yJbbRSuebroVbocbHQPwJMLL6DRO3Mh3fsspLoNKs8j2KAp6vZ4BT1+2IiFF7yQqQpHnqYQR0jOJKi2MVYVPyyDgaqw6k08Zz4KQgUmNVT6DISnx+DzHW64/YN5kLo8DcmpjLKj1l1B4WeGBx4cjLs+X4mfD7kgNC0IWepoKLTJ0DBEYOfiIwQD/Rf54Ms9ETdNsY7hApaWfntTsAhRUF6WKXQ1/eBOkfamPHPXP9zx/f5IUaHQFo+A1Ta0k3ucAvf87irSDO/6zVXoNwSmqKwfqVHP5EmEpmmw/Eqy0F3o/qcHevztiTHbw0Q5ZxJR6S2gDdmv6IEzmY3QGVXIVKVhnasfnpp/CnXfnA3pHtYVqQSPYL0GYszfPW4FJh1wRVRGELI55nVp0BlI/iwoTlZrIG6N6nJF3owMBoo0i+O8yMmXyn9Gsw5aYy5yNMlwjQ3Hl9svosNHiyA9+EqB+7AcEwSBRJNbIfV6C3d/sRqTD1yEe5w/0pQRFq+APhN6o1oUKaKHwl5dhkGpapHONn53+E0DA+xBnLxdYhXCvfvB1hBcjMy1WxtVRo9n+3vGK4Un4KmFPkLXITZbWyxZsKjf5GIXmq7B6C0hYkHc558pskBeWOYrCJk1hX9hMF8VZFZySkhsZToqCy+9vTEYf5+Nx+mwbMRkaZGnMwn7FebrW8c8vQMafQ7ishOw2sUHz847gnoj50N6YLClTkm5eEOUHW4DqfdIdP1yFX7afwmeCQHIUEYgT2v1CmhgtmNPYFH9Sn6tdAvIYKB0G9n9J7gQm/ONMJjUIuc/Q5WAi1Gh+HX/JfSeuB71nxsPqcPDkBq3LLWqoQgbUMSk2W2Q7n4CdV6cgBZjV2HS3nO4Eu2HlLww5GhiodSlQWtggSL7Ll/MxiMYYLyVpL74nKoRHSqqk3AC1xjyhVjOgGV++PVINGKzi5baLer7jvQaF3GmC9L7MmiFvwgRhKSpxU62LPfB1M8llxJFaiHDK6wl4Z2gxCc7wzG4ILXQXkFnafdJLgTDR+QCMG2SpEhWamTlS5IrKc98MSoXFGZSG8wl7rnpHTDSO2BQQanLRERGDFY7e+GFBUfQYPRSSE9/DqljL4sGQSmVTMWYr1MPUrM2kO7uA6cXvkW7cavx/e5zcI7xR6oiHDmaOMEVuOYVsFOycGltIL9fvAVkMFC8bRzmHWuaIRdmnVEhBm26Ml6kAS294Ik3lhxGlzGz0OSZj1Dnvuch3d4d0i3tLRMFSUd80APQsgOk9g+hzgMD0eLFz3HfZ/MweOFhdJmxB3+cPAe/pABka2Kg1KcILwSJiyQwCq9AiVNX9ZoyOFWN55dSKphg4OYvxhTJ+WJPhJj0V7vQdjUrXCCAQJwC43dHCC0AkgYZKuDrZTlIvDwUlCnsNGJdEChSREY9wwYs60vpYlYrpEu9jKcuy2VU6md5nbz+6EwtDgdl4c/TcfhoR5jQonhnUzB+PBSNLZ5pIp2Smgoms202u+YdMOoEs5/u+7D0KKxx8cDzS46j2fjNaPj6b6j31BjUue+FEsb8nWLM133gJTR/8XN0+3Qenp99AD1n7cPMUxcQnMLwQCwUulRoRTqhZcw7KiCr1MatYSeTwUANaVBrZoEIFxjyxM49Rx2HuOxwHA/1x7Rj7nhz6VE8/v0KdH53Mm4b9BlaPPUOmvUZIR4t+o9C28Hj0GX0NPT7aS1GrTqOP066Yq+/B97acADvbDqCPb4+SFMmWgRHzBoRt7TXDILCzRqcqhFu2E/+CasWMMAF4WhwlsidZ8EZ55g8h1nMCtvx+r+5bBHYWJUXByz3w28nrEDg+k+X/G/qCPkkKkXGB/kdLPhEIGA9WNho7rkEwf34/WScSNe0Z+0h8gAyVEawfDaBDAWXRm0KFkDnvS0hwk5HgrNE2Mpo4ugt+8GxR3c9QTnz/gkIojKjsNbVFc8uOYz2Uw7g7h//wX1fLkXnUQVj/sm30azP62jWdwRu6f8u2g0ej66jp6PfT2swatUJ/HHKHVu93PDm+oMYs+049vn7IkuVLMIReiPHvP2D/7JbUv4GLSCDgRrUD8TkwFRDs2VyoCufjP9MdRSS80LgGuuH9W5e+PWIG8ZsuYThy09h8IKj4jF8xSl8vP0yph13w1ZPT3jE+SAx1x8piiBs83LDi8uO4vsDLvCITxDEJRKYHAEIsHlD0jR4abm/SNGiC7Y6DqXejOWXkwQo+WpPBDJVwKlfmwAAIABJREFUrAVfHVdSOb/JS6cr2zNeAYIsKjzOPBUnBIbKc1+0x+yzCXh+qR9+PhxzA9mSv2cFHQ/P9sS5iBzx+5VzN5VzFnpCaBMCF9fYPKxzSxVhE2YDPL3YFx9uDxWhAFbRVOorrj3B3bkIEZoZIiwABNo0JObECEAwaMV+DFh2EB9tP4uv97rgwy2XMWzZSQxecARDFh7F6ytO4+NtlzHtmBu2eHrBM94XyXmBSFOGYOUVZ7yy6gS+2++KoJRkwQ1ypDFfOS1au84ig4Ea1N7XJoerBAQkFCpEhkGuNkm495kalK4MRpoiEPHZ/ghJ9YVfoi98E30RnOqL+Bw/pCpIEAwUn8tQhSJTHYl0ZRx+OOCG55dexOyz5AxoHQYIsHkJBhjHHrM9FHHVGLOPyNDi5yPR4GK21TNNLHiOigcE4z9egbE7wtB+qjNmn40XlQfLAwSYVrc/IBNDVwcIAh0JhEUd/M0z4Tl4dK6XKBnNdMWyZCkUdc6Kvsb2E2mBxnykKPS4EJkj0gBfXukvijGRSDnxULTQnSDgsTW90tbrsoYILZwhrcjuUerTkaUmqdAdg1YexAdbj2C3rzMiM/wQlOInxjvHPcd/XLZlzKcrApGhDEaGKgxZ6ijEZsdgwn43DFh+GQvOR0Ctp6iY/ZKEbbWX/LniLSCDgeJt45DviMkB+TBfJQtZJwSBWG7U6iWgUFCWKgIZylCkKYKRmlfwUBAkBCNdGSLyiZk6SNIQ0wdVukz4JKbgrQ1eGLzSG4cDMxyKFU8wwMmZFfGqk8BnvnoVl6JzMXxdoKi+F5Gu+Y8r3FE6HBfgKzF5GL01BPf87obFF5OQoaIaXfmgDb01728JwcDl/qJQUUnuf7reKcRzy0+XRanjqio8ZWtbUAgpNkuLbV5pAsh0m+mG7rPcxf1s8kgVCowUYCIIKKd5Sr2Ua5uAAgEyrVEpyopnqpKx1tUbg1cexRvrj2KfvzvSFCHXxrxlvAeLuSBTFYFsTTRyNfFQ6JKh0mfifEQi3tnkjYErvOAaW7MzYUo1ci34gAwGamAj/7tbICAwiPLCWmOeyDRQ6dLEAs9BT2IQwcG/D2rpxyNPkyQIQ5wQSBpiPrNar8Umj0QMWeWHD7eFil2go5iOhDOWf/1ga/WCAdorV2vCbr903PenO8bvChfgpKoWiapoH8bxKYrD1L+nFvlg8cVEUVGvvDteCgmx5sAzi31FmIGLfUkHgQi9OyQSsv4DPQp0zd/Mg/dKmeBTYdmi5gK5EvT2MCvgj1NxOBGaDZJG2daFeQ9VeY0CEBRwCKgBwJRfSgYn5aZhvWsgRqw/i+FrT2Gfvw+yVdHikaOOQY46VgCAPG0SlPpUaArGvN6kRp5Wg7WuCXhxmQ8+2hEqeBqO1Fer0t418dwyGKiJrQqInTvjidd4BCa9SD2kdLBWnwu1PktkHaj0abA80kVIQa3PFGQhTiSsecBYpMlkQH6+CfE5WkF8YolZ5kLfrImuok1EtzMnau4+q9MzwPvg7pnXMO1YLLiLXO+WgnSVoaK3eFO+z4WbREjacciqACy6kFghRUcu7Fw4GU9nJUP3OKVN3gXutKnGR6IhFyl6KUryJlSGcbgIqgxm+CepRNz/s13hAmC+sjoA43ZFCMGg85G5iMnWgfwQeoFu9kFAcFWMeQoUGYUwEEl/cdlZ2OAWjjfWX8bQ1RdwODAMGcqUgvGfDsuYzxY1RpieTBEx8gOYKRSRrhZgjaGZda6sSXBzgdfNtmFt/j0ZDNTw1v/XS2AWg9tkNsBo0gpvAfXFdSalSEfUm5RCb5yTAQGA0aSHuWBCsBYg4o6IkzDzo0mK4t8UT7H3g7HloWsCxW6SJXKr++BixmJGg1b6ixQz7jDtOd2QLUx2PIHAe5uDRbx+0cXECvEvxA4/Rwem1zGEs8cvQyyitrQN11nyB5hdwJRRZjBUBcjjffN36Ik4GZotADDTAl9bGyiue9KhaGxwTxVqifRo2JoWaMs9VuQz1lAhxy0XdHoK4rLzsM41BkNWuWLoGlccDoxDujJHjHl6AcSYF8XGSAw2XeMHsK9eiMwVSprU6mDGB20iHzXPAjIYqHltesMdcXKw7BosUqZULOQkQdKRKd8gigzx2XzVaHmIycBs0Q8Qu41/F/w8rQn/+KSD3gEWUKGIDyd2ez4IBqwTuD2AAdpKZzRju3canljgjUmHohCQrLJLHobYEevNwiXOssLcCS+9nCSEccrb5jwnvSFLLiXh/j/dxaJeHv0H5u6zDw5bGygWZeoUVMbB/pylNgrARhnp6Sdir3lDCF6oo8DUx8gMLbTGyvnNyrjuwucQY75g3NNDyJTApFy1cPv3W+iOdzf743BQKjLV1A2weAHyr1qqjlrnCuv5qH9Awmv3P92vCWeVlx9iPaf8bH8WkMGA/bVJlV2RdZAX+cyJw/pfAQDg54o6uKDOOBkniqhs9kwTE2fRnyzq2zf/tfB0jdiBczGLtgPPAC1gXWRZVvmFpX5CpZALkD0dvEbGvcngJ5h6ZokvVrkkCxndilwnY/w8Z5/53kJ7gQJF5eEcsH+y1DGvjRwC1jMopsuWernEs/TOkJDoEa8EyX8T9kcKESWmO/L8iy4mifdoE0dZDAuPaYKCbLUBq52T8MQCL3y4PQTHQ7KQq2Waq2XDUJShaFN6R5gS++BfHtjtm44cTcVTI4v6Lfm16rOADAaqz/YO+8ucuDmBUy/+mcU+QkSH7kR7PcIztHhjfRAo+MOiL/Z0sLwy1fZeXxckFOrsxcvCBYCVAxnCYIiFO3gq5ZVG8CvNtlxE6QX5am8E7pnhhnMRuRUiAGqM+aIqJD1VBFZcqMty0N4EJ5Q9do7NE+ciuCAhkJwElr0+EpSFVIWh3ECjLNdT1Z8laDea8oXmRd8F3nh/S6gIgZTm4WCYiEqeved6CfEk8jTspa9Wtc1qy/llMFBbWrqS75NkqpNh2Wg/zQWMndIVb68H8/sJBAgI7A0McEdG7wp3n//bGlotColFtRvjwlTIG7jCD91muuNgYKbNMf2izmd9jd6PZZeTcO8fbqLwEKvxVfSgu57FfnrN8cI27zSbT8fFLDFHh91+GUIQqMvvbugwzQXD1gYIDwhrK2gNzK23+ZQO80GCd5bYZpiK4OdsRE6pYSp+hyTC+//0EJ7BhNybV+fDYQzrwBcqgwEHbrzqvHS6VbkL4yT8+Dwvkftd1l3Zzbp+ggGGCF5fFyhSvm7W79r6O8zRJwmOrHrGp7kLq86DsXfyQpiBQYKeIPfpyCGp2FVx8d3rnyEyEbgAcTGpDNY9c/1J8HtzQ5DgsrDaX3GZLryFHK1RkF8Z6mLxI4KIgcv9RJrg0ZAsUROBfZntUBOBAFuR90Vgtso5WQhyDVsTKEI3xYUGr31HZRTiXayySPKkPXsEK9Zba9+3ZTBQ+9q80u6YEzldviSVcbFl/NEeY6kseEPiFxcg5n/b28Gwi3u8pdAP3d3ckVfGIlme+6TLfLNHmrAVwdMO7zQRH64gDhCX4pOoEpUjKQ3N0sTl4QkUd08MX3Bx6jXbU1QApNvfupDzmfdF8SmGOlhQiRkMVKX85J9wQWTkzpheI6WO5NrKuNvirtR+XqddKJ3M4lkEfgQElHkmubW4g+Obthq2JkCITjGjSD5qhgVkMFAz2rHa7oK552tdU0Qp1u8ORNlluIBg4N3NwWKy49/2eNBdzh04J+W3NgSLVLnidrdVcf1cGHgNG91TBRAgeNrqlQYyySvjYOle1i4YvNJfsPEr67zWa+MiRaLoT4eihSridu90EedPytXjbHgO5p1LEJkHr66x2PeHgyzokyL4LgQO1e2Nsd7HzX6m3agAKTwEK/2FOuaZ8GzBFynuWsglYXlpCnn9dDhaCDAV91n5dcexgAwGHKet7PZKubv4bn+UcP8yXYy7MHs66A1gpTgutPYKBmgvptctuJCIh/7yFOl26cp/d7dVaU8uCFysKak7eJW/8PIw7bGyFmzutJmKN3RNgFiQydavioMkOJeYPOEdICmTOgSscEjFTO5kCXB+ORKDXb4ZwkvAYkG899p+0AYM2ZBD0G+Bj9jxkzhaUtiPBGKSQKmVQdAokwkdvxfJYMDx27Da74BxRu6+Rm0KETsLug5Lij3e7AsmGBi9NVSAFZLN7PXgohmUohaLV8/ZnjgeUvIOrTLug79Jad2dvulCEpgLNuP6lZU6xrWWMXyqFjIrgTv2yhaq4m8wLTAlT4/zkTl4bU0g2k52RucZbiBjftTmYMw5lwDn6DwBemQAcGPPYWSE2g/UkGDKJytREhDQC1DUwcWfpNIR64PEmCeBWLZrUZZynNdkMOA4bWXXV0r2OWOPJJx9vitcTLr2sukiGGCRIsaJSSa054PkPYIpMvg/2h4K7wRlle26OHnT+7DTJ12wyklgJBFPoasczw7bn/fD0sSPzfXC32fiRQpfZdmfQIZeqKQ8PVxi87D0UhLe2RiMHn974N4/3NH6lyti9+qfrALDWfJRsgVEexnNWHgxUQCCj7aHCZBfnJgTPUfMDOk11wvTjscI4GAvY77kO5XfLcoCMhgoyirya+WyQGyWDlOPxYiqbVs97YdpTGIYyxczTc7ewQANz9g95X47z3AVru6qqsxHN/Bmz1RREpi7Qfd4ZaXKIpNpTvlaApuPt4cJYFOujnXdl+jY506WHg2SLb/YE4Gef3vizukuIMudtuOulToBTCc9HZ5z3Rnkf5ZkAbYbAcFj87wwckMQLkXlorhgCsMFX+6JQMffXAX/wp5ltUu6Z/k9QAYDci+oNAuQ8HYxMhdvrg8SOwu6Dm8mCa64GyEY4C57wDI/UIDI3g/u2DPURuHepv4AY/mVncJlzfenN4BcCueYPAEEKmtnx3ugUiUXYxa5YcijuB2mre3BayPbn94SehtYLInhFGZgMMWVAIBeILq2+VurnZOFuuNXeyIrVEfB1uurKZ+jndk/6GkhuGIo4GJUbpG3x8WfoRmmFzM8E5YmhwuKNJQDvCiDAQdoJEe6xGy1UaSjUcf8u/2RonZBZS0w5bUDFyUWV+LERsa5IxxcTJnC9fLKABHiELuzSjIkdQ3IBmeKH2P5lAbm4lnc7q889kpWGMRi0nGaq9ip07tR3stnCCoyQyN4Dd/si8RLy/3w7GJfwa0g4fJ0WI4ghrJuBkMH1iMxVyfqPrDEMO+3sgGV9Xdq4jPNSGLw8ivJQovh9fVBInx1PbhnmzLUtNI5CZ1+c8X88wkVqmRZE23pKPckgwFHaSkHuU4uYtyJ/3goWuiYkzDGXUZ1HgQDn+4MFyp/jgIGaC+WwiUjfvDKAPx8OBpc3CpyWCdukunIn2CRH+7Y1ZWgAlj4uhjHp/ueizZ3laFpmjKTBrmoE7QQBNHtz/ajTgTP9+3+SFFGmNwKsuC5O/0XAvx7JdRqYMU9ZhPQi0DQIx+2W4BjmdUgl19OEiE2qnjSQ3B9thABAsf82xuDRZsfCMy84TO2/6r8yeqygAwGqsvyNfh3uZPzSlCKugUs8MIJhCpx1XVwQvtsZ7hwJ9uzbHJR9qFQztd7I8ViRinY8u5uyf7m7nz+hQS8sMxPeEoIBCpDDrjwdXMB8U5UCuEfSt2y7LGtcWQu3nTxEzwwFfGPU3GC6zF8XaDQw2dO+zavdFEXQ6mzLS2Q56N2AsHP2B1hgsBY2HtQ+Nrlv2+0gBUQLL2ciKcW+Qgv1bnI3BtIpuyXJ0KyxWeYcuiZoJSzC240p12/IoMBu24ex7045nxTyITxYkrtMr+/qN3bzbhDgoFxu8Lx9GIfuxRFKskGnIy5y6bCI3fGBFlltSN3brQBmd8kCjKzgiGIisbwi7ruVKUlBME4/q9HYkBgWFp4gAsJv8d72+GTjl+PxojCTQQt1Ab481Sc2NVTHKg8+ezsezNOxgrZYWa8MJxQ2jUVdW+19TX2wWSFHgsuJAhSIbOFWGCKnivrwT7Jtp5yNFZkFM05myCLEVmN4yDPMhhwkIZytMvkZMtJd8w2C3FvvVtqtbkOuRCScc6dTaiDcAYKtzftSGD15EIffLU3EooylNDl4sksj+WXk/HALA9RsImlfjlxV/ZB0EGZYcoY06UcnlE8P4O7c4IRVgN0i1OI+/toRxieWugj0hzHbA8TxMmIdA20FRSxosfBI14hrumR2V7i92z1VlS2jRz1fBzP9LLMORcvAAE9bReicm/w+tDzRgDHPrDPP8MuCMSOavObfd0yGLjZFq9lv8f8b8aO390UIhjrZd3VVoa5WIud6U/9FvoIF3RlnPNmnyMiQ4Nfj0SLdMP9/hk2ufc5gSfk6AR5jiWIX1sXKFIrryeBVda9RGdqRXyeO3oWOrr+YNtzl0lPAEln1MGnLDC9Fff87iY4HVQMpEIh49KV2VcYDjkRmoU7prgIHQxyR+xJGOt6W9njv8Xu32QGd/30+I3eYhnTbNPCB+tZMHOHHihKHcuHY1hABgOO0U4Oe5Wc+BdeSMRzS32FZDFlb2/2wQnpm72RYsfJeLQjHlzAnWPzBHeAVfZYIKo0IR2CoBknYsVO7oOtISCgoPrff6fuyrEGr2XacUvlRYaFcjU3KtdxQaYAEMMVw9cGCv0B5rITqO3yTRchHO4+xTVW8kVyvWIogjwEKhOudkkWinuVc/e15yxsFhKCGTJ4ZrEPRm4MEoJPhS3AMc4+QJ2HGSfiYMqvfC9U4d+T/64cC8hgoHLsKJ+lBAsw95sM8BeW+WKNa/JNJxZR8//bfZFiB0pCnqMe2RoTdvtl4K7priKvnul2xa2ZtPkvR6JF/PaL3RFC/KeqPAK0J4mCzy3xxbhdEfCM/5c8xnBAQq4O+wMyMfEg61f4i0WESoF0OVPyliCF8sdVeX28Rp6fdqGuArMLDgdlVSux1VH7IT0B9Dgxy4OVH9/aGATXWMW1tE6+z9DP5zvDRZ9gFkehjE9Hve0af90yGKjxTVz9N8hdI+vEs3IghUl8k1Q3dXKIz7EUUuIu1JHBABdW5n5POhSFR+d5YZ1byg27W+6AqbLI1E4qLlLrgRNzVVXls2YpMK2MdQ12+2aIAjeUqiU3gcI11LlneVymBTIzYsWVJJHyR5DG2P3NXCgICBjLJsGRrHcKGMlH2S3ABZ9hocUXE0XFUrY/AYGVi8Fsj3980kQWB7UsqBYpZ3GU3c438xsyGLiZ1q7Fv8UiKMuvJIliOJMORosF42YtAgk5evxwIAq953oh2IE9A+w+XNQpActUORK1ToRmX0s3pHudQIApeIzb855dYqsOCBB40CVMoZlHZnsK1zB3gcx+YB0C6hhwF86FguBks0eaWHwpTHV9nPlmDg3KME8+GiN2tbxO8hfko+wW4OJOQMAwIEMCJH1S+8GarsoCVbNOx+OhvzwEQZSereI8WWX/dfkblW0BGQxUskU5QFjohSxpkpSYc82dmWucQqROkW2botALZm550qQq+XJv2uk4CXAR++5AlNCRp4u2cGpSVV4IhWnoou41xxPBqeqq/Kmbcm4S39a7pQh3+6SDUeKeuCMLSlVjyrFYIQ1LjwDd9ZVdIbDwDXLSZ4rig395CF4CUwm5yFJbgmDlzQ1BgkfA/HMCMvJH7OWgR2D01hCMkFnvFWoSa8iAQlbksjBrh7oi7Bsm81Ux57EfsDTypei8KklnrdANyF++ZgEZDFwzRfn/4ELHiS5DZURgigoH/FKx5Ew4JmzzxMgl5zFkzkkMnnMSby4+h2+2emDx6XDs802Gf5JSuHn53dqAmHmfnCieXuSLV1YHCDJZVbmvC7cmXevcmbKYDRfMmnCQaDdhfyReXO6Hv8/GCxctCXxd/3AT/AiCHk7GVXEQ8JLtT9b/2H/C4TThAnrP8RKcDGo5kEW+yiVZ2Fpvg85AVVxjaefkPbDmA7kDBAXUIpCP8lmAgICkwpmn40SWAQmh9BAQoObpTDgUmCV4LpMORYtsnur0CpXvDmvHt2QwUMF2pquUnT4wWYXF5+MwZLEL2o3fjjqv/Qnp6XGQeg6DdN+LlkePoZD6fwanYTPRdtxWvLzwChacjYVfosKiDV81c3cF77Byv85JY4N7Klr+fFmkKHHHWNW3TTBA1zlL29YUMMBWodeJuy7yBxivZ3oeJ2KW9OViV9kHJ3ECOnq9zobnCM0DtmPLn6+ITI0pR2NwPjJXLAyOkLbHEMefp+MFiJl+PLbU7IzKtmdNOh97m8Zo/j975wEdVbW98aGqCPbeG8/us3fs9dkLKs/us773t2EXAcWCSJUiTaSKFAFFBQGV3kIK6QkBQnojvRf4/uu3JwMhpkxCEibJnLXummTmzp17zz33nG/v/e1v6/PF2wwYUgsEzgjez4z8EuOunPnFek3ySbIQYVXXzjEYtoyz3VtVe3rfa4we8IKBvexVJpRv1ybq1iErdNjjQ9Xx0ofV9qiucux/kBwdDpCj/X5ytOvo3Np3dL63Xxe1PfIMdbz4QR3aY5BuHLjMSFVpecUtPveZhxxZ3B5TwmzSIGfeRTray1tR7dcBAzDrz+3vo5DEluEZ4GIhZhKvR0OADAPY23AzGgMIMKnDR2Csw1Xo+tl6Hf7hKltIqT9BSAwrEIJeI+CQau/t3nwAkAdQkW1x4cANpnvQmGGVvTnX5vBdFnP4IPAw0PR4fEqYyRIzdiCLkm2CiuaiiPQqOSOFJWVKzi42HkJUaoHgHEA8ZJw3PLRtDj3atOfoBQP17G8mXIpzvDEnQue9MVmdr3lCbY4+U44DDpGjXQc5HG3kcDiq39jngIPV5qh/6MAre+jsV7/Tf2eGKiqNsr9IuLbc4U+dAp9t2bp6mJ+J1FA+tzGvFkuZWPbZX/gYb6Get9yjvsb4QFXv8alhOuqj1Tr903UmpkPfNlRfsrAnZhVb+h+eFbITUAj854ANOrbPal06yNdSBiHksW9zHLKoIMJfQRiLkAHaDK2Jy9PQgxqwz8JPgS2qRQL6ndyVHZq6IdkIxPB3AI+ECHk2SUvFQ/Pi9BDdN3KNbvnqD93Yf5Fu/eoPPfANIDdcg/6KMX5KUnbjeL0auh+a4/G8YKAedw1XaURynl6eEapTnh6oDufcKsdBx8jRtn31i391wIDvdDlaHc66SSc+3l//+T5YQQnZKihGP72hpvV6XGQjfoXLwhvAhIG18OmiaMtbbqyfZMLps2CrWdCQGJt7Y1ysi862lL07xzqrDz43PcKsMdj8hXtB1OPYmQUlRvzCC/Df2ZtskaRyIhY0IkZoBWBJ910QbfoAzbk/ecLwVCGEBKCC/Y4Ov7fVvwcwlPAi4bUCZAFY/eJyrT4GPJc7xwTqvfmbNW51nJ6f7Kere83SGY/301G3vayDruiuTv/8lw644A51uvAuHXTlozr6jv/pzGe+1M2fzNX//bBR03yT7FgtdX6sf8/v3Te9YKCO/Yea1ubUfL0zN0zHPDFY7c64xhkSqM0TUB0YsPfbyLFfF7U79Qod/thXemNmoEKTclRSVtZiAQHdzoTBIoYaHVYDIKsxGpM95Lp/fL5eQc0cDFBTAI8AMdnbxwRajBbJ5x83purm8sI+9CuWursNcEbfo9RIqiLMcEoGowvwyMRQU46ktgR55KNXJRj585np4S0mRx9PQFhynrimK4b46efgNKur4W7/eff7ew+4AAGAn7RD6k6Q5koFyVtGBej0Xot0yZsTdOht/yfHWbfKcczZchx0rHlLHR07OcOpHQ90eloPPk6O485Xhwvu1lH3vK1rP5imD+aFWnnrvGL3qlf+/Qy971TuAS8YqNwjNfwPEiUtcNyKrTr25clqe9rVsoFb40JfQ6ig8vc67K82J1+mo58fr6//jFRsZr527ESj3f2JvYbT97iPcClS2IY4Igx04reN0QADyKPCtG/OYIB0LRZ+gAATbP8l20zCl4kXlb/Bf8XqlH7rNHxFvFm7tTmWAAyIAyFtPCcw1Sr7kRZIpge8gN4LtloYgEJPhK4o8sR94n7BxK8L4GiM+9qQxyQ7YmlUhqVIAoQgv7Wk62vIvnL3WIzLrdsL1f+PGP3zqw16bc4mvftTpC796Cc5bn1PjjNvkqPLUXK0aeeeRxX+1aEnqd15d+qYHv316Kjlmh+UIrhWO5oLUcXdztsH+3nBQB06vai0TIvCUnXjFwvkuKSHHO32c28QV170a/qfB+Pi7ur2yc+aH5SggpJi7djZcjkEVOD78o8Ys2qJ61Ohr6EbpW8pgHNav3UKSmieYQKAwKotWcYLOPPz9dZnLNIAKprTEss3ax7yFnFYvlO5uUI09Ak15/HI4LpFpOiKoX6mEolqIJ/BBQAA23eKdxj4uHa4v8V3+X5La5Td7v+HMz2OdE30Kbxt73qAipEJ2cU2xk7qs1IHvThNHa/9jxxHnCZHWzdBQOX5sv3+chx9ptrf/KZu+HKJfg5M0nYAQW3od+8upcV/2wsG3LzFTIoxGQXqOz9E7e/73BkaaFMLSbDyIHb3f0IGd/XRuz/6a3Mamt+l2tGCi31QvIZ49JVD/fRbaNVMYzdvU5W7sXBRoOaUfmsV2AzBAC588rZR9AMIQKZKy/175gkhBFz5Z/f30YszIizuzwQJXAAswCXAEwBhEwCGB4CyxlQNfH1ulJZEZFg2QmUCHb+PpQxPAK8E+gItsbGWkPqKYuIt3wQ2auiqJfZfVddEnyJNTJz/+J4/y3FRdzk6H7X3RlSbts4Qwg2vGSD4LSRF+S2YZ1VV3zb0e14w4EaPAgSwzn8NTdXN/ebIcd7dtWcLuLvwV7lfGznOuVPX9/5BszfGq6S0SGUtmD+AO3Z+yHbd9k2g6ZyTrtmQKJ+8+C+WbNNJnwAGct24456zC5YVpX57TA41yd+vl8WZ4E91XlFS40jtQmCJBZ9rJ8MAljx1A0j3IhXx7P7r9ejkUI1fm6jQpHzLEQcEVDZeh7t4AAAgAElEQVSu+J34zCLTMbh8iK9+DdkuQEdLbVw/JEyY8BDf1m9rmcCnqe4fYy84IUfnf7FG+13+aHlYoIGMqHJA0P6O9/XshDVavy3TjCbma2+rew94wYAbfcbgKigu0YAlW3TYowPkgNBS5SLu5Ad07NhRV111le644w4dd9xxatu2re3fuXNnnXfeebaxT03HgExz2EP91OfXcOUU5qpsBwtky52EWbS+WZVglu+ni7eZhebGrXFrF4795ZIYndh3rTY2IzCANb8gbLuo8Acre8SKeNPRr2mq4zMqylFrHklglBf7LdpmXgDkYnkPMiXpdJRzBnjVpAJJ2d/hK+IslXDEynhLBWvpc21OUalVVETd8e2ftwhNfW+rew8wb25Oy9drM4N1wH391Oawk+sfGqhuvgUQHHuOjn1qiD5dsEnJOYVeQFD3W2Xf8IIBNzqORTg6PU//m7pe7W74X7mOQPXEwEMOOUTDhw/XkiVL9OKLL+r444+3hf+kk07Sa6+9pldffVXsUyMYaNdB7a59Qc98u0KRKWkqKSO/tuVmF2CVYrW/MivSLNdF4ekNVruABY0Y8HF912hjfPPwDCAlzILdfaKz0iOpb5AEa1qI+Yy8eQiBz3wfbqlyp/ZbZxX6XpgZaRXmsHop44ucMWCjppZXVKaFYem65mt/IxSi3tgaSHX0CtkFlL0GEExYl9Sgnqqa+rwlfZZXVKpfgpJ0cs85anPCRU4BtuoW9b15v8P+andJd93x+Tz9EpKiHTvKWnRYtbHGiBcMuNGzgIGVW7brwUG/yHHhQzUv4g6HjjjiCP3+++9av369ZsyYoTvvvFMdOnRQ165dNWDAAH355Ze2T41ggIfjgvt05+eztSQiTkWl+U7uQAv2DlC4iLj1+V9t0PM/RNjCXTl+7cbt+tsuqJiRLodQjqeDARZ0iH8QAB/6LsSY+3hMcPNXt3TjtkfWmXACud2UDL5tdKARAk/+ZK2uHuZv2QL0g4UC/tZDf3+DMA3ZHa/+uMkY9qQcwrhvLQ1vCdUXCc+QPUHZ7drAU2vpG3euE69AZEqePpjtr7Z3fuRMFayFY4UH9YADDlCXLl2EF5W/29TynV1z6JFddcKjn6jXLxHKK8I70HINJ3f6vz77eMFALb0G/QoC3+yARF3//iQ5ut7gNhgYMWKEFi5cqA8//FCnnHJK3cHA6d10+ZujNXb1JiVlZyg1N1/pecXKKCgxpjfMeyRgsfJcG2Qd3JwsrCwqbFh4TORsWI62lZSZ8A/iPywmtpXusHxzCGPE+pgQSSlzbjut8A2LCRsTIxspPSwcRlTbKbNcq1u0aulq+y5ypgi/kIr09fI4ISW8t41FcPDSWB3de7VN6nt7vMb6PkAgI7/UQgNoL9w+OlDj1iQ4PQKVfhQuQUZBqSkqIun8xeJtlidPGAAQ8cEvWyysQFlZ9AcoH1wXq550zKFLnaVp+yyItrFTk1ei0um1iH+Rdh6zOsHSOFHNS8stEf3ubbX3AAbUoog0dfv4JznOvEUO3Pm1WP+EVG+//XY98cQTevTRR/Xggw/qlltusblzv/1qydzqsL/aX/5v3T98qcKTM1Ra1rLDqrXfgbrv4QUDtfQZg7q0rFgT1sbo0ldHynHSZbUOapdn4JVXXtHAgQM1ZswYPfbYYzrnnHPq5hk48SKd/NSXem66ryat36TJPjGauiHRcryn+yXrB78UzfBP0cyAFCOHzd6YauIz5IzPDUy1HPGfgtNMRAWCHm5nrB2sTmLRuICx+NAKXxyRoSWRGUaeoiwtViZFZ5ZtzrRKg5QfhdG+amuWsdHJd4e5TnlmmOYI4SA76hubYxalf1yuLbxYVFjjxOoJA8DmJ9efDTVANtzPbFTaI/WP34e5Dolr4vpEc9lS+hkJ08jUAhMrQliHSnNsuL3ZkIfesr3Qcpu3pheaShnpd5wTOfNo6XPNpIyxATTYUChkYwEkDYrsAza4BoQYABNs1L1PyS2x6pQsDDDz2WCgA2KIv7OY21ZQaoCN9Dw2A26u18K/gzjAHL8PQQ9LFJLfyJXxdl0uQMcr+3Eu/vG5+t4vWW/MizI+AWI5FCtCIZD7xrH4TcbCPeODjStAHwMEK4I9AN9u0LfTAAOgkbH0wIRg3T8h2LQMABIuAGggcI9iMhAPneTDlrZWhiXl6e2fNosiOz8FpRn4rmXKaPUfMxaKS0v13bpYHfr0N3J0PtItwvUNN9ygb7/9VvPnz9fIkSNt3uT/nj176qyzzlKtgOCMbrr87e80OyDOSNde70DdhqIXDNTSX04wUKhxa6J18f++luPEi90GAy+88IJuvvlm4w/AIQDl1ilMcMI/1emBj3Vi38U6/8slOvuLlTr787U6+4v1Oqc/m4/Vkj/vSx+dzzZgg7HIYZJjWV9om6/VGb940AYrL3rJIF9z+1462Nfq3l82xM9U11hMSO27cqi/rhrqp6uG+Zl7GRczAjfkl3cbHmDbdSMCLA59/YgA3TAyQDeO3KibRgZYrjpWKHFWFvJby7MDsFbRfSeVjQXrvm+DbJF5YEKIWbHdJ4bokUmhFpf+9+QwY3Fz7of3WmXnigAOFi5pbQjCvDQr0rgF1E5/dc4mvTYnylLjes6L0ls/bdbbP28W5VLR0//w1622YKKr3+mdFZan/8miaNMdoMIaXghY91/9GWvyyHgQhi6LM68E4j0syN+sijflvbGrEzRuTaIV6/luXaJVX5zsk2wpaNN8kwVAA5zNCkg1cIYq4I8VgVlQmi0oKNzND0lzgrMQJzgDpA1fHmfegIPfX2mufr6/C6BFOsEa32U/+vS4Pmt02AfOYkEsWGQLrI7O1tptu0Ha4oh065MT+q6xioaro7MMpAXG5xrwMjBWDshCk/MUlpxv4I+yvhAO6R8X4AJsISIDwIpJL7TQhAtUucAUIIpiMxWBE6W9K24uEOV6BUztseU7gRXgCvIe2y6Qxd+VgNbfAFc52NrTawaQKlMOW9HuzeU92/Va7kFzedI49l+bMnXxIF8b3xtisu37eNQqbhW9a6RwsgG6atrM+1bBC+cEZjtFRggbAKy2DW6JbeUeO5fnruJrRRBX5d+VgJ3L0welpOIG0KtykyyE5fKZMGduzy1Q/4XhanN3PzncdPXffffdGj9+vN59912dfPLJuuCCC/T888/Lx8dHb775pr1Xo3fh2HPV9cl++nLJJhUTVi1ruZLutSxb9frYCwZq6TbQZUlpob5bF63LXx8pxymX1wkMnHjiiXr66ac1ceJEDR48WF999ZX7nIGTLtEZz32lN+aSfx+l30LiRT7tb+ULyfxg5+IyJzDNPAKzApyegum+yZq2Idlcw5N9kvTd+iRNWJuo8WsSxIKGpCyENNjpuOJxB7MIEleHaMfiiNsZVn+/RdH6+Pdo4SpGFIjFlUUWljpMaxbfN+dt1utzomxhZoF+ZXakXpoZqRdmROo/MyJsIUe57qlpYXpiapgVL2GBBwAABB6cEKL7Jzjj44CFu8YG2WIHIDjsw1U6tvcaAyrUMQCAAEauA5gAUr72N4Ib4IUNQAOwIXeeVDhAD8CITIJ2by6zbIULv3K+B2gCQJ335QYDVed86WM5+hQ0wjLHGuz6+Xqr0Id6Idr1CBdBykPpj3g81QJPtG2NWHCP77vGFulj+6wxjgI8hdq2Y3qvNq/Fge+sUIeey3XAOyt01Eerdn+v92od23u1hTkoF8w+bd9cpjZvLlPnd1fY+5zHqf3WWhljzpPzpbIgEswn9F2r/d9eYcdFp+DcL31kALIcPBpwHLhBFw3cYIse3zvofWdpYvoHMSL61QBieX/T74BD7sNuUBigm0ZutLAEYPC2bzYauKF+ggHBcQDBYAECkTrm3pPTz1hA+ZCx8dT3YRbuQKYa3gjg7+VZkVYjgfLMqNihidBz3maz2N+Zv0Xv/bLFwiK9ft0qyiiTLfHJ79v2AHykWw4E8LnA3rI4U2oE7PE8EA4Yt3Y30EM2l9DKVN9kjVmVoGe/D9cBb6/QizMihTTzvCCnxw1PDp62hWHbzcO2JDLdPFtLN2VqWVSmSeau3JIptiq9ajEur1p2Ba9ajgLic8yjhjcNQmhwYq5V3MR7BrkxPDlPEclOb9mm1HxFsVXwkEVvLzCeCVwTCgdBPo3LLDQPWGJWkSmp4vlyebxSc4tNu8Ll5aLssMujhTfKFX4k5Ih3qaC4zEKLRSVOwAOwIZyIXHtJWalCkrL06uRVclz3v1rnS9cCDxgYPXq0ka7hCrDhDejbt69mz56t2267reZjHXy8jrrjf3ppZrAKinNUUooyYcvNwKpl6arzx14wUEuXucDAT0FxuqXPNDnOvr3mAVmBQIhngDjY6aefrt69exuh8Pvvv3cfDJx5s655b7wm+4QpNSdJGXk5yi4osgdzlyVTwcrB6sH6cfEHsIxsq2RJYVm5LC2X5YUVtp2t3EpzWW28VrTqcJPbVsF9zoSCO922cve6y9XOa0IWm9MN73LJ8+py0/Pqct1DhIuxrVBrt2Wpx5RQW4wAK0xwlDXdUj7pUeaUiTAyJd8mRiZI3LpMmLjEsXqZSAl1fPDLVnV5b6VZ7xDjCB0Q1iC8QZiDwj9ro7NM7hdRHiZuwiIrysMkHAO5WsInhDFg5UN2xPImzEK4hRAE4RcWBxYJNjwAWPNsuJnnBTlDOIRx5mxMtcWGGD+AgsUVAiBSv3AFWPQARF3eW2GgCJDDYjh+bYLGr0nUWNsSNHaNczEzkLfK6c3Aq2FAb1mcLYAAuMsG+5on4bnp4SbPjGcEZUZCCwA+FlFSGAE03Yb769U5UeZhefdngN/mcuAXZSx7vDF4ZVigKWbEgu0EgM5FHC36Z6eHm3zxU9PChaeBvH0WfUh5aBw4wWCoeYcAB4QlAAv3jg+20AYAgqJIFLahDgOkSDY8TmwADvNEjdpoVjsqioARPFVsLvAIWLm+HLgYiBweYJ4uF5AkW4INLxgbCo54yAxYDvXTZYP9DEBRHfKIXs4KkQAogOYlbIOcG94DABUelQt3bRss5EXYy/nZnq8XA8Bc2yDAWPk20FeXsJUf2/Xq9Oi5wG45SBvqPG+uwenFc3rwDKSNKPfc4bFzee3ow9GBBtTwMN05ln4O0r/GOb13d49z3gPuBdwVwNsD3zkBHGP1YTx5E0OdQG5SqHpMdgJ8F6B7clqI7h3vp7Pe+1GOK56udb6sDAaYN13vQSqER7B48WL16NFD7drVoFrY6XAdcv0z6jE5QAVFGSopQ6ET0qvLZ1HLZN/KP/aCgVoGgAsMrN+WqMdGLJTjsid2DVTXgK386uIMuMAA6BbUu2DBAoWGhlqogH0qf+9v/1/8iO4bNE/LN29SblGKikryVFZWop0tOKOg4u3A1Qovgrg1iwk5yzzWFV2Vu1yaFUiNuEIrukmxgPCCHPTeClv4zR3rcs9WcOW63Lsul29FN3B+yY5d5EuXC9n1Wh0wc4IzJ7mzIjAjlo/VRZ2LwUvjrCwwEy4pbFiUo1fFm5XM4s8CjuWMVQvgAPhgxbFBcAOIGRirwHWA9wD4MsBVDrrgXOAxOuWTtbZAcyzc/Wy4/rEqsWRZUFhwJ6xLNK4A3IxIF+BKybf6BOgTEE5gQ7DIxflwcUDgfcANwaqFKwJvhA2eA1wSFxgzQLYLlOVofUyOE5iVhzkId1Dcho3whgugOUFaloUzOGc4EgC0P8s5L06QliHSUxeGA9DSTdnSBdJ+Cd4uvGougEZ9DDbAGaEZwi2Eemb6p+gH/xRN90sxgIaHDaDQ9bN1FsZxhYomrk8ybwHeNyo9IuREOAkvHB6H0eXeOLJCvlkZb145PBKMSTQcCPsA3NiGLYvT0GWxBgoBhtSboNgPG547wll4OfDeofmPBw9Qh8KmE9ht2wXsAHdwZfDo9Sr36kEsdXn23p2/WRAjCTHh4SPMBgcFEOoEe1EG9lAHdQG+XaBvpjNshyomXhzCeBR6enpamJ6aFqy7x/mq69sz5bi89vnSNe+5PAOVwQCaLX/++aeeeuopy8py7f+3106H6uBuT+qRSf7KL9qukrICLxioOKHW8rcXDNTSQS4wEJuRqjdnrlfH29+Rg2paNTBjDz30UCPCdO/eXUceCXnGITQG0BdYtmyZ3njjjdp1BjoeqI43v64Xpy5XVOoW5RaltjowwK3BU/DF4hjjJqAiSAy2rjgf7wZWc+f3VjRaMaRahtEeHxOHxTvDIoKFi8XGhEsohskW8IOVzKTMYrJ8c6Z5UQAp9W0AJEADxyTMgncBQEEDXOFNYoEhvMLCg2vZE5uBwfJzdgFBVxx8FwDcFWt3kiNxYbti9wb4yrNnqEWAu9uVYVMZ3Dm5BbszdfCmMY7wmhAKgzxrXrZyT5vTy/Z379qenjUnn2IXiMOjVtGbVtmLVoHo6vKgcW+oMGlgrpwwC58DEq3TWwaAKzAwtydwy7NQg3nMEp2E3j3AWpyT/OsCachOr49x8k/2AGYVPWdbykGZec4yDZAtiUjV+DXRumfwAjmueq7GubLiPFoVGMATcO+995ohxXzqEnCr+L1df3c+Uofd9B89Oc1feUVpKi7Ns0wwCI3eVnsPeMFALX2EFY67KacwXSOWh+u0F0eIcpq7BmAVoGD//ffXPffco7PPPludOnWyfdEZOOOMM/Tkk0/qsssuE/vUdAzHsefqlOcGqf8Sf6XlblOuDe7WR4phwscyJHaM1crCyMRelwYYwEo78N0VFh6oy3cbel8WLiZ/4tG4oUl3xDWNS5btkYkhZq0RKiDcwSJNHzRE47cpQIT7HZc9YQ28JMSBsaxxRaNRwGLAvt729x5AmhkxIvoQ656wnLft7gFi9KT1bU5N1zsz18px81s1z3MV5s/KYKB9+/Y6+uijzZNKVkG3bt1qPtbhp+j4+3vqzXkbyz2puSrdgSfVO5Z336Hq//KCger7xj4BDJSWFamgJEt/Rkar+7Bf1PaqZ+VoV4uccIVBXuOiX9V+7Tqo7RVP6r5BP+qXkBBlFsQqvzhdxaUFJqbR2mJguOHnBqXZokm4ALc2VqC7DR4EMXayCeAJ7IvGfIRlD+cBj8Clg/2M0EfxJMIBj0wKMZcvYQIs9saawMiTBxgRW8ctDOBgAwQQB4cIh0XsbdX3ALwROA/wHAhR1GEoVn/QFvKJCwyk52Vr0JJQdXhwgBxUGaxqnqv03l133aXvvvtO/fr100UXXWSS7o8//rilGr700kuCjF3jcU68SOc8P0BDl4Uop5Cwaq4Bk8Z6llrILdt1GV4wsKsrqv7DwMCOYhWW5Cg2I1FD/gjQYc98I8fhp7lfh7vSoK9xQJOGc/ipOvSJofp0wVpFpW5SdgGljDNNkninEWKqPteW/C4EQ2KlR/ZaLZjeuF7dhQOAAWLgnd5dYYTBpjQUsOrhHpBqB1mRGC+kQIhoF3y1QRDtSEnExVtXj0d97zeaCLDxbxwZoA9/3WIcBbIRCBNADvW2mnuA+wTB86ZRAZbuWpexWPORm/+nLjDAfDl1wxYd//K3Np+5k1544403WtYVZEGyr6ZNm6Y5c+ZYqiGibTWGCMg+OPs2Xf3RNP0cHKHccjCAYJwXDLg3rrxgoJZ+YiAxoJADzivarlVbtqjHuD/luO2Dcu5AA1XgcgGGth3kuPltPTxqgZZEBCk9b6tyCpINjCB+tEN1c5HXcnnN5mMWVUhuxNch1UEiI7/anUamxMR1SQYGiPM2lNu9tt8GdJCihVYAsfrzB/jo0A9W2SuEL8SYiFc3JThxnTPV+GB/H9FrlWlTwF2AkNhUfeM6j+b6Svz+44XRpvUBKdAbVnHeyd1gIFd/bYrVPYN/leOSx9xSIDz44INNW+D666+3kADhVPQGCBfUaEAxd3Y8UB26vaDu367W1u1by8OqedqxkyJT7s0TzXUsNtR5e8FALT3pBANoDRSpoDhLydkJmhcYorN7z1e7Sx+To9Nhbqlr1TqYHW3k2P8gtbnwIZ35wRx977NBMemRysyPMxBitQl2lspZnb6Wk26hH0PwIqUPDQAWV4hQ7jTAAHoLeAZQTWzMBY9ph7AG7HlY4vAA0C1AL4GFF2LgH5syLLUTC3NfAAH6DG/FyBXxpkdAf87wS2kyz4Q798zT9yFMRXYDaZOkFCLi1FSeHU/um13GU0meorcna9AiP7V95Gs59utcq/gQlj/VXKlJwEYWFkDArfoEJ12qM18YpC8WByg9L8bmzOKyfG82QR0GixcMuNFZLrRLal9OYZq2bI/W2FX+OuudH9Tx8secJY3d0N6uFhDw3S5Hq8MlD+m0N6fp66VrFZoUqu3mFUhSQXG2U16zlaQUVndLiM2SlodrGzIhBC7IgbU1WOBTNzjBABoCjWHFwViHy4D8L+laCCeR503+NuJER3+02kh7eAkAC/u64dome4Hc+dM+XWfpZ3gpvM39HiA9FNlmiJdoN0RvJ6+9dVuhzlouZcZvyirYriXhUbrs09/U5p/3y7Ffl9otfJeHtC6v+x+sDje8okdG/aalm8KVnR+vgiJnWBWdgdZsQLk/miUvGHCjtwztlpWaEiHegcz8REWlbtbQpX66/MOpOvCml+U4/p+1phxWCQY6dpLjuPPU6YbnddF7E/XVH+sUnBislJwoZRXEK78ovbxiITHy1j3RcKuYa8lfh7yFaA01F2ojEwIGkAvGM2DhhQZifAEq4CPgbSCHnFxsLH/Ojb9ZbO8YE2SeDPKxqf/gCeQ8+os8erQNSDN8cmqYpRRChsP74m3u9QDDiBQ/Qj4AKoiZCG+15sYc5UzHdnpSt6bFa8if/jr0uXFqe9LFzuqFdVnoa9u3bXs5zrlTF731rUYu81NcxlblFCarqDjHMglaa1i1PmPQCwbc7DW8Awj+oHmdV5SuzIJ4bUnbpBHL/XXvkJ904mN91OGCu+U4+iw5DjhEDmL/uP7/NpjbyMEAPuBgOY4+Ux3O/5eO795L/xo4R0P+8lFESpBScjYpMz9WeaYtkGPEQS/C3X2jWMxg5KOehjgK4jc1NSw4SHqkFq7Ykuk216CqY2L5saAjxoOIDSIwz8+INKU2wAlKfQjPIGLTd0G0rhziZxK2MNA9wSPANYUk5hlxEXU5pHZRQ0RfAPEY+rIu1Q2r6qPW9B6hAcJVqPjdPS7IhKFaO6Da7UnNVVZBqjbGb9E9Y1ep893vyXH8BQ0ECNrI0X4/Kxx3zFOD9d6Py7QhJkJZBYRVybzKV5nXK1CnR9ELBtzsLrwDIF5IfIUluSZqkVUQq/jMKP0cFKhXZ67Qlb2/1/GP9FKnS+5TO2oYAAwOO1mOQ453bvx99Jlqd8pl6nTxvTr+4fd1ea+peuX7pfoxwE8x6SFKzY1URv42Q7eFJZDkCr3CGVXcI3L1qY9AmV8KC9W00AIGKCAEGEBWuD6LHfn4uNbxSqBSB3ms+6RQ3TByo1nY/I+qH6ECtONRk8N9/MSUMK3Zmm1EwSouo0nfcvEZUKyDiIlFm5Tt1Knvv2Sb1V7Aw4FyodcH5f6tgX8B+EMqmBARY6Q1hwtcvAH0WXKLMrQpZZve+mm1Tv5wvva79Q21PcHlRa3KWHJUYUBVeo+wKvyqEy/SEY99oae/+1N/RAYrNdfpFSgoyS43oFon2dr9kbvnnl4wsGd/VPsfA9w5yMtsoBWWZJvlnpUfq+15mxWREqofNwao59w1um7QIv3jrak67unBOuK+93ToHf9n2xH3vatjnx6krm9OUbeBC/X6j6s1099XoYmBSs4OVdouIJBkqYToCpTtcNbl5re9bc8ewMp/fEqYeQhw/1fXRYABijgd+O5Kqy3Awu5OY0JnogcEIKGLN4JCNfAVsKSfnBpuJZaR+kXNjuwGUgSRkWVhQMcdK9xTiGWAIOR7kdR9cUaESf/SD4Q7YjMKTUgHTX9ker38AXdGiHMfnkzuMV6ha4b5m6Qw4aPW2pirqFxYVFasuMwMzfCP0NXDftPtoxfr4s8X6MiH+6j96VfJccChcrTDg1ppsa/uf9Ku23dUmy5HqcNZN+jIJwerx8QVWr45SEnZzrAqXoGiknJxNi+krdMQ9IKBOnUXJT13mKVuQkTFOcotTLPYPimAqbkRis8M0cb4QP0e5qcxq3zU67d1em3OWr06Z60+/HWdvlnlowWhvvKPC1BMRqCSc0KUkhOhtLzNyiiIUW4RaYSZKi4rcMa8dsA49wKBqm4TVdLQHKB6IXFv3LNVdRWkw9kbnWAApT3IfjU1jkEoggkdwIGuO4s/ufhM9n0WbBVERNQBXY07RLoZ+vBUQ6QaHwWXGoOs6PrNurwCbAA194wLNvGmn4LT9vCQABS4Vs4dtUdUCL2jri49LG1NK9B9453FlahqWNVYrNsRm+/eNt5yCjXNN1YXDFiq64b/ocXhQVoYGqznp6/R8f+bpLZXPq02eEsJm2LtW6njyt6CNs73+bzjgWpzzNnqcN2LOuWdOXpj7joFJgQpOTtSmTZ3ppZXKyzyViusx9DxgoE6dpoRZMoBAaWNC0vJFU9XTmGSMvNjlJa7RUnZEYrLDFX09mBFpQYpMsW58ffW7UGKzQhWYlaoUnLCtT0vSpn50SYshORwYSkuLi8QcOe2sFhRohW397n9fUwIBku+cqNIEHFxPAMUsanJUi8o3mGKfIjKoDJ33gAfqzbHAolEMJY+hESOUZGHiF48YQskhl+aFWnVE2sjNlY+z8b8n6yLYcvjdOLHazRyRZwVMqq42PN3YUmZgRk8B4QQAA/e5n4PcL8JRxG6omIjRaVaa0Nka+yqeF01xEd3jF6v1VvjlJgVp6TsaG2MD9Oo5et1+9AFOuL5sXJc/5ocp18nx5Fd5eh8lBz7d3GSsXk96Gg5jjpTjrNuU/vb3tYJ//1OD41erMnrfRSZEqzknEhl5DnDqpC7i0sLVVbmFRqqz1wehx0AACAASURBVLjzgoF69JoLEBiHYIeTVMhAxEuQXZBo5D88BYQPtudGKS13k4UACAPwPwCAzwEPqAtSkTC/OMO4CCVlWJOlhmy9HoHab05xmTPfm3ABpWZx51OMpmLDgqd8MGCASnaVC/5gvVPjHULgh79u1T3jg6z8LYRAiiPxPgVf0Cvg9yovopRW7vnTZvsO1d84h9q8DxXPr7H/dukzUEL3qe/DraxzdbyJqNR8W8hIjUSbwZMATWP3U0Mcn0Ww3+9OTgY8EsJHra3xLMHjoRz2Y5OCtXRTqrIK4Fml2/yYmrNVkSkR+iNio0YtW6PnJizQVb2n6fRXRumIxz5X53t76cC73leX+3rpiB5f6OjnR+ngl8ar+zfzNW7lGi3fHKDNaYRVN+3iV+UbEMCI8gKB+o43Lxiob8/Z95yxMRZvyDLoEAAKUCpEDjO7MEnZhQkWRoDlysbin1OYaOEAKmsVFGeauiD8AMiJZTvKLBThBQLu3xgWacrN4h14c16UtqRRunT39wEDlKwFDEDyw3sAAOB7uMPHr3GmBVItkI20wOEr4k05kFoC1akEsqDCEeA3kfalNCySwzV5HnafVdP8hbsWAaRXZkVa7YFFEek1ki3hPQCc4DsAsLgeb3O/B+hvn23Z+u/sSCNpwr9oTc8y5FOqXgImKWkM+M4vLrGQZ1Fpnhk9OQVJysiPUXJOlDalhmr55kDNCvDXNyvW6vPflunDH5fovVmL7fWzX5fpg/nLdMGAOer9218KTCC0GqHteVvM6CKNkDmU7AGKEhHG9bb69YAXDNSv3/b4lvEIdpbZYDRQUJqv4tJcFRZnGzjA6ndtDFxEhIpLsR7zTLvACQJ2ewNa0+SxR0fW8x8mYJeb/vwBG8yirejiziks068h2w0MIApEYR4WxSHLYvXSzEhTCXxoYogt6qQFrt+WrbTckhrj/XgXghLzLDSAW50QAcDCk4AA3cnkPGxZnBVD6rdomyBT1hbLJqTAhI67G4ADd6ICtqrnXWo9X8MTQ8YJHia4I9HpAP2W3YM8gwlZRRr4V6wRep+fEaGFBrzh8TiNJqoZsmibF7UoRVmFceYhTcuLMr5VbEaouf6DEwIVGB+ooIRAhScHyifGT3eMmat35/8h39gQ8wZgZOUWwhFgLnURrZ2/1XpGWsNeqRcMNFB/4jxm0JPbiqtqx44SUw2EVwBAgBDIxt9IG5ftwAvAgrPbE+AFAfW/GSzCwYm5pvpHrB+iIO8xBRPjn12eTUDqV+8FW/XE1DDdPibQBIIIDfwaut3qw1cOMVR1RngW/ONy1fu3rVZngNAAuebuZilUdczGeI/zBPwggoSlvzWdNFX3FiXqJrwxL8rImWRiEPZw75uNcSXN75ixmYUauhTy3AZbIAGnbnZ9s7tYPGSxGUX6elmcug33Nw0LlDYr8ndcoVWnVkuBeUPzi7cb1wpxNdKpsfadYdVIpeVEKpUtN1LJOZv09LTFenran/olJMzCqgXlYdXi0iLnfLvTS7Te24HjBQN724OVvu8CBVQ7NKGiHWUGEAAJtvF/GQjWOXj3jEBXOpj33zr1AJPSd+sSTSv+owVbFZKUp+ScYq3blmUAYP+3V6jr5+vNSv735DCTMyYnvC5pdAAM//hcyzD45wAfvTpnk5EYPS22jvUflJir//24ybgMgKG6NPoSyw4hnVtHB2pTqleMqC79h6VM/z/zfbi6frbOwGlNWhh1ObYn7cs4iU4vtDoX5/RfL0qMr9qSVaWHzOUhKNtZamXh8RKQoo3XNLcoVTkFicouiLdwKhoulG7PLA+tfrbIV/eOX6Exq8JVUIJXdXdY1WtENcyI8IKBhunHKo/CILXNhIQNJjj/r81PW+XRvG/W1gNYrnlFZTYBkwJILB8CIPF8Sh+3eXOZxTEXhqUbU54Juy4NqzooIc+KJJ33pY96zotSZgEWX92OU5ffrO++ABzCAt2+DlCvX7f+jTTpznHhVEzxSbLaCnhPEHryvCt150r2zT6EklZvzbaU1MenhrY4MSI8HcgxQxYk7RbCLQCIlN/qWvks6EzRLitV6Y5i85jCJwAYFFoYlbAqXIMM4QEgtDpvY7RuGUV6drhyi/Bw7faoVvdb3vfr1gNeMFC3/vLu7cE9gHW+ZXuBxe+7frZeB7+/Umf39zEX+WtzN2m/t1dY6ld6fmm9FnCIeMRCrxjqZ4V9ElkcPXR1hAR4y6iNJjFMOmR9TpPJHoLk2z9t1rF9VmteIJoau7UVPHgoeMSp0eeEqEatjLfaBYP/ijUtCo84uQY4CZ61zxZt0/lf+lj1RrxHrtBcbYff5UGlKDte0x14C4rNY2ChVMKplmJdaO9tTs3WQxM26smpIQpNyjWjqrbf8H5etx7wgoG69Zd3bw/rAYhZhALQ/kcM6F/jgizF8MKBG3RC3zW2IMIHIHZONgGysfUpFgQ58Onvw40hjq5BVBqkpfossY3bgZwR2gsQ1yifTN67OzyI6s4K63ZDTI6uHuZnx1u5NcubblhdZ1XxPmME0NhjSqhu+WajZb20hHRDVDc/+m2rFboiUyUoIdc4M/V5IpzAwAkKAAZ7bHL+X1hSqjfmbtJ93wYJQSdva/ge8IKBhu9T7xGboAdIF4TkhgLh63OjdO/4IN05NlAvz4o09jyphq/McsbLB/4VoyWR6er83kpjeedUUA6s7VSxdFgMqVt/2+hADfgzxjQHPI0jwHXgpWDxRgWRMMnAP/feEmVyJxtjyoYk42IQLqitMFRtfdraPue+LI5I123fBIrqlSad3Uw7gbAn2ThkmVAo7I25UZZ+2jDZEoy2qjfeHbki3p7z/ktimmnvefZpe8GAZ98f79mV9wATKgszkr9/bMqwBR89AFjyD08MMUBACVnKCeMpgMlMjjNZAzeNDDCm8wHvrNCsjal7yAjX1MEQvpi48QjcMCJAA/+MERaRJ3oEuA54An9tyjTpZKw1n5icBjlXOBGkG0JGBBDRz61Ze7+mMVPdZ4ylL/+IsQwWslkYx82tMe4BAqTRAgTIouF5g0TYFI3nGV4CgKoupN+mOLeW8BteMNAS7mILvgYscIhsTELzQ9KEVQBj+V9jgwwIYKGQ+obbvnK8kgVrwtpEXT7Yz6yy9j2Xa2YA+c21x73xPCyNyjBPw4VfbdBXf8YIASJPBQJMyKgkPjktXFcN89MvIdvrFQ6paSit2pploYLHp4YZ0PJE70hN57+vPwtLyrPxRIbGZJ/kKhn3+/ocq/t9ni3On+ftuuEBVpQJQaqmHAPwVzAAACKAcm9r2B7wgoGG7U/v0RqgB7AzcHdj4UPa+8E/xUrDkuJ26WA/8wTAYF63LVsZ+SU1komYNNAWOPSDlZZN8INfignv1HSauUWlxkFAkOiigb4WGuBcPDFrgOugv4hLj1mdoGP7rNGgv2JMAKama6zPZ0z8lDgm9v3qnChLKavPcVrrdxg/EDsfmBBs2g9kpjSNTb13Pc6zGJKYqw9+3WIqn+/8vMUyI5oSCHAFcF/wrlw3IsC4F3t3Vd5vV+4BLxio3CPe//dZDzBZYoHAWCdOP2RpnFmi5/T30SWDfM0qIC2QhdndiQiLGUVBdPnb9VxuZYhrcnEjrgMZEQsbIAADnMnQU7MGuFn02e9h6VZaGTc+aoyNBVxScov1zvwtuvZrfyvVXFMa2T4bSB78w/AviH1fMcTPRJ0IZ3ny2OL5QcyL0MDxfdcYsMZD1ljjq7Zb971vinkF8VB4W8P2gBcMNGx/eo9Wzx5gUSGOiuX07PfhIo+ftED4AKRm4SHILiyz+GRdSfyov41elaBO76xQz5+iFJlatYuRCW5JRLpZbdd87a8RK+IF2dDTrTdEkF6Zvcn6DI7D3mQP1Hb76HvCBRAqrx/hb6Wca/uO9/PdPcDCDwHzvV+26Kwv1tt4r6jUt3vPff8XZEGUNvECnfn5evMMUITIXSDeGFfg4vAQJtyX59EY17avj+kFA/v6DrTi32eywUpfsSXT3H/3fxtiaYFUOyNtibLD5MhDXjM+QD1XZchGyzdnWjbB6Z+u0w9+yX+Lp+/YsdOqE5KOx0SDyx0PhCdbbQyd1Nxik7sFvHzye3S1RZUacpiRmkk5Z8IFPSaHKrOeug0NeU7N6ViANeSy4Q7gYQlNyrdqmJ50DQDjNdFZVuCq29f+6rtgq3mc9vUCjNph34XRVnQLUO+pHB5PupfunosXDLjbU979GqQHWFzJs6bWOwsKKoEPTAjRXeOCTCCHAjm/h283652iOg0x+QAk0Ano8t5KHfbhKsswABy4PAyABQoZkZ54/7fBGr8mUbGZRTVyERqkM/byIPQNhEgqLULqC0vO28sjuvd1MBl1Dgb8EaMLvvSxTI2MghL3vuzdy3oAb9UUn2QBTknXZJHzFOAJEMACf3FmpO4cE6hPF0Xb87qvQgMVh0x+8Q4rRIbncLpvcqN6wSr+bmv42wsGWsNd9oBrZEGmgh6LMO53Ut8gUnWfGKLX5kRZKGBZVKYR31jk6ukEqPJK+W3/OCcYuGFkgC4f4qs+C6K1dXuhKcRR3viecUEGSCasS7SiK54yMVd5QeVvbkxwKiLeO94pLtQQwKmm36v4WXHZTktdfGpamPE54Fm0RO39itfckH9j0UZvL9SrP27SpYN9Nc032TxgDfkb9TkWegHUFkBpE4D+2eJtBjJdwLk+x2zI7/BcLonIMInx//tx0988fA35W63tWF4w0NrueBNeLw8uaXykvJHqRnoeOcJ3jg0yJbG3f94s2P0UFKqLEFBdLwEwAOcAzwA53mgTsICSkTBnY6rxEq4b7m/kQk+WGK543fTrp4u3Wd4/NQhScoorftwkf0P0/CUkzWLfTMyo0DUlIGmSi2zEHyFc4BebY5U20cNYGpVp1SEb8SerPTTgGw8ZugHPTY8wpU3SeHl2PQ0YIzb2QrksOOPe086v2k728A+8YMDDb1BzOz0eTBZf3KDE+6nrjhuUWDz5yYQEkPNdvTXL+AJNsXhQWpiFCjDw7dpE0x4gXkt52fvGB+mqoX5mmaEj35Aeica6d7hrEWC5aeRGc+WSLbGvGpwPYri4bSF6JmY3PzGdfdV3/G5p2Q5L17x8iJ95q9DLaOoxyO/h1YEjQJVFMndQr9zCuTT1ybhxM/AwDlkaq8M/XGUqpGQAedve94AXDOx9H3qPIFmqEZYOZL+AuByNX5NgFvi5X/qYG/SFGZGmk49uPmS9pmyAgeDEPAMD49Yk2N9IGO/39nJR0AhhouaSIod7OS2v2EDVTaM2mmdjX567nU9uif41NlC3jw403XjAoLe53wMIXGHpUl2TrJemVtcjm4EMkaenheukT9bq6+VxBuqa9il1v79MXTQiXYd8sFIT1yWZKJn73/buWV0PeMFAdT3jfd/tHiArgPK2kPBYZCkSRE4yVfOGLYsz8h5Wt3EB9sEMQ6405LqD3l+pkSvjzapAXviAd5YLsDI7IKXZsJIhVQ5ZFmtlhYcvj7N+d/tGNdKOWI94Kq4c6qcXZ0RaOloj/VSLPCyPBN6de8YHGxn0r6iMJrtOng34Ho9NCtWZX6w3qenMWoS8muzkqvkhxhvaB//8aoP+OzvSCnNVs6v37Tr0gBcM1KGzvLvu7gGM+7ziMiPmkQFAHJ7FgHSzN+ZFafbGVJMQxlOAaM++ZCIz4YWn5BsYwHrFDYp+Qc95UZbedcs3gZY90BQhi909WPe/sBiXbc7UGZ+tM+4FPAhPOWdUG/stihYEzY9/j/Zaa3W8vdzbMasSjANCsa2kJgi34FGioudjk0Ot9gZeifS8kn36rLrbbQhrPf9DhM05hAC9be97wAsG9r4PW9URSAuMSi2wUsAQAIm9o3pHrJFUM4iCaJhjwXpKDjDMd/gLcAaO7b3GyvvCZeA9wgYoHLKAma6Ah97Nsp07FZSYayCA88USr08p5sa8PEIxL8yMMJ2GqRuSPeb+N+Y1N+Sxt2wvUK/fttrCjEetYSoBVn2GxNkR+AII3DM+SN+sim8UCeuqf33v36VeCaHI4/qs0e/h6WZw7P1RW/cRvGCgdd9/t66eRR3WLnFFrAcUyfAEQAqkcAipglTLgw/gabXa8UgkZBVZuIKqhYQHZvinKC3XKWkclpRv13D+gA2aH7LdpJDd6pQm3gl1RmK5FE1Cnx2CpqeRu+BmzAlMVfeJobbIwB3xNvd7AC8PGQXPTI8wDxskW7xaDdkYM3A6AALdJ4XqwQkh9kw3tyqKXAPpwsf0Xi3CZV7i6t6PEi8Y2Ps+bJFHwBLF8qRS2MKw7Rq8NNaY6wjcAASoYz5pfZKx9Elz8xQvQMWbwTnFZhQaQfCaYf6iamGvX7faNbn2I9TBBEztAnKrN8TmNPgE7Pqt+r7iQp4XmGaCSA9+F2Kgy1PCA5WvKTm7WEOXxlmmA1kkpB82MV+08ik1q//h1kzbkGyZN4j+sEg31L3mPnA/FoSmm8bH3eODNG5NYrMspwyoIZPl8sG+pllCuqG37V0PeMHA3vVfi/o2NogrLRCX709BqSZx+8C3wZYLjRWB5O2iiAwjrkEc9NSGRwAVQVIJbxu9UZcO8rVCRcPMitgzJx82NxoIEJJIWfIkK4nrCIjLNWEmUjORaPb0xsQMkRRuBqTSpmbHe3r/1HZ+hAs+WRitU/ut1RSfJMvQ2dsnDSDA4rkgbLuVAL5+RICB+aR9oE9R2/W7+3l+yQ4rCX37mEAtjsjwOE+Zu9fhKft5wYCn3Il9eB5MFKQFMllASvtuXaKem+7MNyZ//IkpYTYpISEMGdDTG9dD/J+QBulakAaRLj3w3RUmNJSQtScYYMElBvngd8G27yz/FANFnnCdcC++WLLNLMUPf93SLPofYhra+/T9TaMCTLimod3dnnBvGusc8AQEJeaJGh3UnFhB8am9eO7A7Iwj+DwIfp3df70RfNPzSxvrEprkuISlJvkkiRDfZJ+kfSbY1CQX2wQ/4gUDTdDJnvwTLIRYxsgEv/PzZl022NfS1roNDzAvwIbYbFMHxOW+t9ZJU/UDAiqUP0bIBV4DsVfCBaQWUpIY0ZKq2h+RGSKcgEoioMgT2rzAVFsUqD1QXbVFTzjPyucAsERi9+D3V+qThds8yttS+Vw98X/CV4xHUnQJyVHpsL6toLjM9CgQqUJoa1FEumUC1fd4nvI9QpkoJOLR67Mw2jyBnnJuzfE8vGCgOd61BjhnUsFIyRm7OkEPfxdi2gBUUENWlgJCgQm55ikgbABgaA6NswTYfL44RlcP8zdZ1eWbs8xNDQBgYSINsjowwASMtO8NIzeaqh7H2pcN7XqqAlI3YaZ/isdVtqupbwCPFN8hD5zsh9kBqR5LzqzpOvbVZ3i3sObxBl080FejVibUq3ZBXlGZWc13jAnU7WM2ijochG2aySNda/cXleyw7JVnp4cbwbnWL3h3qLYHvGCg2q5peR/gqiU/9+fgNJMIhgyItfDIxFB9sXibTRTUCcCqIx2vOTUWHzIEqLCGa/V/szdZhgNeAiY+2MaAga/+rJkTAFfCqrWNDdIP/in7pHIhPY8L9OOF0RYeIHuAOvLNrZn2flyOXQOghkJU3Cdvc68HAOHhyXlG9qOo17ygtDqRW6n3QfodBYcemRhi0uAAjJbUeLbf+XmLpUdO90tpSZfW5NfiBQNN3uVN+4NMvsQGKeFLad7Xy9MCYaW/MnuTxdAXR6RbBTUshubiBajYi8RYqUDYf8k2EyH534+bLEPAlYfP8gOHADDAwgqxsLqGJ2RWQKplTPx7SpgiUurvnq3uN2p7n0WUe3L1MD9xLetjspvlIkq/cy14n/A6kcmxL/qztv725M8Z2/BdIMmRxutO+Aq8lVNYZhoaAAGKIM0KSGmxQlBkX9w8aqM92zy/3la/HvCCgfr1m0d/C7SMe5C0QBYVBExQNSN+bmmB86KMZe8Tk2MThCdnBdTW0Xg7WGCw+K8Y4mfpgeghVC6nm5oLGFglKrHFZlQPBvg9wggcD/Y+JVzzS5rOrcr1bEotsDx9JrifgtM8TlyotntS8XMAAV4ZFrJ/jQ3SmNUJ3nBBxQ5y42/G7ke/bdWdYwJt/Gbkl1T7LcA/GhQT1yeZVgGAlsqcEGRbaiPcydjCG4jWibfVrwe8YKB+/eaR32IhwcWPq59QAAvZv6eEGqsbC4G8b+RHCRW0hEpfBgSS863CGpYn14rlVBXz2sDAB6usYiLXX1MDTAGUXpoZqcuG+GrllswmEVPid6nx8M3KeJ308VrTdvCkNMea+qy2z/6KyhTeKMIFZBp4wwW19dien6+LzhZxcRY90jWr6j/eQ2ALSxlpcMKAZBCgLdCSG4YPpN/uE0O0JLLp6jq0tD71goFmfkdx67P4GQhIzDPy3yuzIs0te+lgXz06OdRS7JAIptoXC05LaEx8eD4APFcN8zdX6KaU/ConSa6XGgmHfrDK9t9WCxhgf/qKnGyyK+BU8FsNJf5SXf8TpsGTc8VQP907PkibUqu/nuqO4anvA9wocYy3g/GZmL1neqennrennBfSxD/4pVi44JFJoYrPLNpDzAlmPX06ZUOyZdGgtEkdCxbK1tBIv0VWmTHmbfXrAS8YqF+/7fNvsaYDBDILSrQ2Okuf/r7N3OTH9lmjywb76YNft9hkUJNLcZ9fxF6cABPfe/O3WFrRsz+EC6GWmhpg4IgPV+vTRdvcdiVipQ9fHm/VDalhkJLbuAsYYj0slKd/ulbrtmVX6eGo6Ro9/TNIkIzLSwb7CvGn5shP2Zd9jPsfJdCzvlhv2hPwMVwNY4AxeuFAXxMIo6pfa4qfEwoBQCN21dQl0l33oLm/esFAM7yDPOTEyb9bl6Qnp4Xp4kG+tlEsCIlgFpW03H1fLbAxuhYQhCv0tTmbDPz0/GmzhUVqK+rCZHnkR6vV7/doS3lz59zwBBC/v3t8sK4a6mcqZ401wabklpg2Avfys0XbWlT6l6uv8eagZ/H09+HmzYHUisfA29zrAfrPLy5Hr8yOtHLDK7Zk2jghBIZyJqEy0oQhnDJOW1PPkgXEuCIUFZtZcxjQvd5ufXt5wUAV95xFgBxzWOdYnJvT8oVrGevSHrKdO5s85YxzQjqUmFjfhdGWboTCG3EyUtBIO6IKHyAAPkBLCQdUvD0s+BCE0EJAHIgKb/5x7llAgIGje6+26oRb60Ayyi9GTS/TwBa/S3GUhm7cW9je944PtoqKVIVsifePfiO17Qe/ZHUb7gztJGQXCxe3t7nXA2TILAxPN04Azz7pmoDHW0ZtNF0N/ifE1doaaZTMBzeVk24B19E2dxfYHJ6QXSS0VfBGNWfCdGPeVy8YKO9dHiDiwsSJRyyPVa+fw/XipPV6auwK257/bq3emh2kr/6ItslsY3yOAQbQemM1Zxig1LTpsfhxgZFvzKIBuQ1rgCJCLB7OfPrGO5fGukZ3j4tLFPSPRwByVO8F0fKLy7XUNXeOARg4ts9qA1KkIbrbuL3EXfssiDb365BlsUbyc/f77uwHwEDbAJLn7I0pjc5NcOecGmsf1v2t2wssDazrZ+v1zaoEYdl6m3s9QP9hFAxfEafTP12nBycE64aRAZYthGJha6wDwTPKGOqzYKuQT79//Ea9MWOjnh2/Wk+OWaGnx63U/6ZuUJ9fIjRmVbyV/4Zz4TSaWu6c6d6I2r1XqwYDDAPEXWDfT/NJ0Nsz/HTnpz/qnOeH6NgHPlCXG1/SAdc8rQOufkqdr39eR971lk5/sr+ueXeS/jN+pYYvjdbKzRnanlfcoHEqCIEw3mFdD18Rb7nmFAmCHUze+ejVCVoTnW1lhbEqW3oDqOFShiNAdUHizmi318VlDxhA2pVFvTZ+QVX9ye9B3MIac4q/NIz1RZU6eAykjVEECs9OS29MwhRfYkzj3VoSkf63VNCW3gd7c30U6CF99oS+a9T5vRWi3gBjsrUBAYAR3tolERkatHiTbvtyoQ59cqQOuq+vDr/zDR3Y7Vmbuztd+7QOufW/Ov6hj3TByyN0d/+f1WtOkGb5JykqNb9JMoX25n431XdbLRhgEWXi/WtTht78wU8XvTVZB931ntqcf48cx54nx0HHyrH/QXJ0OMC57ddZjs5HynFkVznOuF7tr3tZJz07XD1GLtXUtTGKSs1TYUn9mbu4wFkYwlPyLf1vwJ8xempauBXOQR/g3Z+3WK14rFqs5JYPAZyPAEDAJyZbH/6yRVcM8dWb86K0eXtBnWPNgIETP16j3r/tWcLY3QcNLw3FUJB1RWIXZbi9bbjHSf3imJRP5jpbS8Pd/Utwms4f4KOe8zYbz6UxvWwtpV9RBo1KKzB+yVmfrxeEYUSFKMPdWvqPuQ+DCd7U+FUxumfgQp3w1CB1vOY5OU6/Vo7DT5XjwCPk6Higc+7u2EmOAw6R45AT5DjhQrW96EF1ube3Ln9/hvr+FKTlUelm0LX28EGrBAM8NJDQpvvEq1v/JTrg3r5ynH6NHJ0Ok6NNOzkcjpq3Nm3kaL+/AYO23V7RuW9N18fzQxUYD3EHgRr3lmoWGAY1oCQ4IVdUy3tjXpS5/Uhpe3hiiAkGYRW71PRayqTmznVg+XPtkAQRFOr5U5S5A+sTY96eX2IFmIgrEg6qT0vPK3HGJUc61c6oZVDfxr1H3OiRSSEGBqg9UFLWMN6G+p5TU36PJ4Twywe/bNElA301Ynm8ebqa8hya229BtiQkSBEu6j08PiXM8uupwwFvICm7ZjGt5na9VZ0v4wYPiF9MlnrOCtJxr0xS+8v/7TTSMNxqm7v5vE1bOQ48XI6zbtUh3fvrweFLNds/wenhdXPururcmvt7rQ4MsFAn5xRp/OpYndRznhyXPOocGAwQdwZS5X067C9H1xt0xBND9eL3QYpMyVXZDgh81QMCPgKQIAayISZbg/6K0W2jN+qkT9bqvAE+em1ulJGEaZccdgAAIABJREFUUnKKWw3ar/wgEf2AI/D8DxG6aKCv3v9li2kpVN7P3f8BA9SHR3iJCbW+bX1MjrGWrxvuLC1b/V2u+RfgeKByeObn6zV0WazJJdf8jZb3Kc8BKaJ3jQ0yQDQnMLXVjvfa7i59tTW9wESz8Ag8NjnUQomEE6loefM3G63MeEv3DgCY12/L0hMTNqjtg4PkOP4COZiDK8/L7v5/6Elqd93LuvKT3zRxfbwKiktt7q5p/q7tXjXXz1sVGOAGp+cV65sVsTqr5wy1u/B+OXAh1RcIMODKvQRtT7lCx/Tor2enBSk2M09lO6r2EDCYkcOdGZBiqJ6ca0pwPjYp1DTcUdDDpU0oAOuxtTbypFEUxOr5fLGzBO7e9AdyrKd9us5ABemC9W14ctCKv2lUgB6dFGLlnetK2yD0QVnlMz5brxdmRFhGxN5cW32vxRO+x+L1U1CascBRkSMt1tv+3gOEBj74datpiEA2hfdCqJP++y10u5GKu08Kcat2wd+P3jzeYf7muXnq2/U68IHP5DjsZDnad3TOwe4u/pX3a9tOjoOO0f5XPqHLP/5NU3wSVFZWqh21GHTNo8fqdpatCgyU7tihGf7JuuHjuep4eQ85Oh1af0RZeVB1PFDtT79Gpz43TB/9FqXcwsJdgICHFrYrOdYsbGQDUFnv3m+Dze3848ZUKyeMqEhryw+uPFyNXBafa+5zyGWUHG4I9T/AQNfP9h4MAM9Ib/zqzxiLd8PqJq3J3caiD98AFy+laX8P95LnuDf9FkWblj4Ez6w69Ke7/d6c9yM2TqiM54FXyoszp7gaXCNCB6g78nnLDCmiOJqv9+YE66geA+Q45hw52rVvmPkbQHDICep87VO6YdAKBcRlqKC4RDt3tp6wHWOp1YABUGVAfI6e+XatDr7jTSeZpPKCvrf/H3CI9jv/Tl3Qa75+D0tSQla+ghNyNM03WW//vNkEMXCJPjc9wlzEaIxDGCRc0NLde66Jq6ZXXOewpJFQvn5EgFVUjEzN32Piq+n7NX3GgoNLnowEjrk3jQwUFAKfmhYmJJ+xVtxlclNr4OvlcTrrcx9LDUXlsBU7gOw2cP2kV6K+ePvoQJPdba2ekorjkj4IS843HtGt32zUe79s0YYqhJroP7JdmGMQHprqm9wgz0zFc9mXf+/UThWWlumblbG68I0JanPWLXK069gwQMA157dtrzZH/UOH3f+RXpwRopiMHJWWOUMG+/Lam/K3Ww0YwCsw8M8Ynf3iCDlOuXLvQgOuAVT5lZDBIcer062vq8dEf326aJNenROuhycGGxCgqtaIFfFasSXLYqVYwd7m7AFEnkilhCOAnDKWjssV2hB9RBlnZFzf+Xlzg5TRzSgoteyOs/uv1xtzo+yYtREbIRxShRA9AapH4vHwKvA57y5hMTxk9MsjE0MUlpzXqsNkeAgRESPTAo8A6bQbYqpXbKT/FoSl66GJIVbMiHTpljK/AAYCE3L0yKjlOuC6550cr8pzb0P837GT2p12pY55/UfND4pVZn6BdlQT7m2IOcnTjtEqwACDKTajQPeNWqsDrn7SmWZSxeBp27atOnToYFsbFvYq9mnXrp32228/sW9Vnzva76e2x1+gQ16dpwsHLNddY33Vc16kFRAKTyan1QsAKj8EuIUXR2To5ZmRJvs78M9YJWY1LHkSMAAD++2fNps3pvI51PV/rDFK88KGJz3uu3WJNdYuwMojMwJyKCEi0uq8QGDPXifDB6/JVcP8TByKe9YaPQToCKCsiRfrkkFO8uzGhNxax0tyTrGVJr9gwAb1XrBVeKFaQv8Rvx++IlbnvjxCjpMvr3rerTRXM3937NhR+++//66Nebt9+1pCC2SU3fyW/m/6BkUkZ6q0rEQ7dpLKvTsss+eobTn/tQ4wsHOnZgck6/w3Jstx6tXVDqbDDjtM5513nv75z3/qkEMO+dt+nTt3VteuXXXppZfqiCOOUHWAwbH/wXLc85luGbZUczbGKTUnX2VlVRMKW85Qqt+VEBoACEAegyxILJ6Uswoh0foduNK3WFhQJ3sLMJC8d2EC16FZzFHTw3LDoqXiYHXWGOIoaEcQ/uj169Y6CSa5fq81vBIPx4OGF4f+bJnx7+rvJMYC9QfInvnH5+tNX4TsF3fCiABU9kU2+9R+64yYifxzc24swjlFxeo+IUBdrv+PHJ2P+Nu8XJVRhlF30UUX6aqrrtq1XXjhhTruuONq/n77/eQ46WKd9cHP+iMiQYUlBdqxs8wLBprzIHKdO4MJZv/rcyN17D095Tj8lGoHw+23364pU6Zo3rx5euCBB/6235VXXqkRI0bo999/1z333GMehKoGoqW6nHe3/jVkkdZEJ6ukFDJh64o/ufq/pldIUOj+o6eAxPCwZXGiFkBjNEhWWExoFRCHbaiG5TXdL9nSH7HkqkpbZB/S5qhF/+ikUFM9a6jfb2nHgY8BbwRyJcp6ZJVUJMu1tOuteD2lZTvkF5uj1+duKgcCm414XBfrnv4LSsjVuV/6CLEyKpq6AyQqnocn/V22ExnybF3y8QJL4XY4qvbYVpyHMdIw1n755RctXrzYXpnTR48erYceeuhv83rF79rx23VQ2x6j9d3qCG3Py1ZZGWRCr2fAk8ZFvc4FF09JWbHuGBOgzpc/XG2IgAHx2GOPac6cOfLx8dGkSZP2WOxxMb3yyivasGGDgYGnn37a3FB7DqRysSJYrkefpa7vzNbCsBgVlTKhtY4B5e5N4uHC8kN976aRAZZWiRXTWI8cYAApY+L7oUkNBwa4XgqgvDpnkxXfoeRxZZlkuA//nhpmi9usAG8ufU1jhPtPau2UDck66qPV+mzxNrerTNZ0XE//jOeBaoOkmhIa6LMwut4iOHjbvvdNNkDRd2H9Rbb2dZ/RJyVlpZrln6gz/ztWjhMvrmUhd86/gIFjjjlGISEheuutt3Tttdfq/PPP1z/+8Q8DCVXO2RXDDISIb++lPnPXKSIlVcWlha3CO9DiwwSlZWXKKsjXeZ+vUruu3WpMR+nRo4ehx7lz52rBggXmZsLdxOAhfPDxxx8bEJg8ebKeeeaZ6sEAg2m/zur07Hea7hul3KJMlZQRv2sdsafaJpGCkjItDEvXbd8EGpmOeDvx94YODVQ8D8AA5YEp9hSatPdSwhWPjdHARI6aICVUSRd0NcIGpMsRHvhiSYxXZc/VMTW8YsnGZRZa6IjS0XheIJi21Mait2pLlihBTnog6cfR6SxA9YPGfA9A9dKsSFMznbAusVnWfiC1r6ikWF8s2awTH+kjx1Fd3QYDxx57rMLDw/Xkk0+KvzHm4BDA+aoVDAAMrnhKz4xZpLXRCSoqzXd6dhvNVPGMkd2iwQAPWXFpqeIysnR6r8VynHRJjQMBMDBkyBANHTpU48aN04cffih4AiBNFv8vvvhC/fv319ixY2sGAwymNm3V5tFRGr8qVOl521Vc2rqYqdUN74z8EmPU3/pNoO4ZF2R6/8jy1nfiq+53Kr8PGCAN8LU5UVaYqvLne/s/qYXj1yTq7nFB+u/sTVb+Gvc2gjDdhgfo/36Mkk9MTqNf595eh6d8H3EuXNwsjk9OC9dfm1qm9j7AZ8XmTKtDQhgJXsmm1Py9HifACFJe0TT595QwLYpIb1YprMzdEAcLi4vU86dwHXPX63IcelKN87drkWe+doEBwrp4dAEF1113nc3nrv1qfD3/Xj0w6Cf9FRmrwpIcle4gBbh+4MxTnqnazqNFgwEs8aLSEm3dnqFTP1ggx4kX1TiYAAODBg3S22+/rZdffll//PGHTj75ZBtYX375pT766CMLJbgFBgAED3+t0csDlZqbouJSVAlbL2+Axyglt1izN6ZaGWYm+akbki3FsjE9Aq4HgFTAy4f4mTuftKvGaKQKIndMTXVY8UzqVDok9j03MK1ZWmeN0U/uHJPxQriFqp2Mlb2VkXbnN5t6HwDkyi1ZenJqmG4fE2gCWwgMNRQwhow4amW8jb83523WlnrW5GjqfuH3XFyv/OIC/d+cMB11x3/d1oapCAamTZumfv366f333zce2MEHH1zjGrALIJx7p+4eMEeLw6NVUJy1y7O7L/qiqX6zRYMB3EzFpcWKz8zQ6R8tkeOkS1UTAcUFBp599lldc8018vX11V133aUHH3xQw4cPFzyBG264wW3PgOPRURr6Z4Ci0+OVU5ht3IXWpmrlfLBl2vtIMCModOOojZq2IVkU/mkqsA0YgKQI05qaB43RsPLQSqCKHOlxlCT+x2frTTMhNrPlF5FpjD5Fe5+y3WgzjFmd0GIAFWGPZVGZenpauK4Z5q/BS51Kmw0FBFz3gmwXMmgAGwCD/L2orOo6ZlO8usBAXjHqi2FOz8BhdfcM9O3bV3fffbe6deums88+29IMdy34FXkClf++4D49MHie/ojYqvyiDOMNmMR8Cw4VtHgwAHkwMz9T538BZ+A6Odo5OQBVDQgXGOD1pJNO0oQJEyxkQIYBg4qUQkBCrZ4B4wx0UdsnJ+iVmWv1g1+o/toUp8D4DG3dnm8LI7n15BOTntZUC2JTPMSVfwMLj/jlD34p6j4xxKw8FBmbWnYZcuLVw/zMhY9aW2M1fmfi+iSd8PEaHdV7tYUNghJzVZsgUWOdT0s47pLIDMs4gY+xcktmg1nO+6JveB4AApROR4n03P4++npZnOIbSRMA1zb912MKHqpAU85sDvMNXl0UAPOK8/TFkkid9GhfOY76h1tWfUXPAHM5KeNVzfc1vnflM3p27AKt3gIYIGWY9M6WnWLY4sEAsZ6CkizdOcZPna/oXmM9gopg4KCDDrI0lMDAQEVFRek///mPcDEBBsaMGVMzZwDAccw56vLyFHX99Fdd9NVCXT1she4e56f/mx1hVermBaZZTA9XMnULyKfGrUdqELFmLAQmjubeUN2D2UzWwC3fbBSlevdFqhOLNGI/r8yOVFBC44EB7hsKkzeMCFCnd1do4F+xQnLY2+rfAwDH0asTjIQJ2z6joKTZPhs8439EOr1HpP+NWhFvtRga81mHsDvJJ0lXDfPXs9PDy4trNeYv1v9eu77pAgP5xXma6b9VZ/6PbIKaOV+uxd0FBsLCwvTcc8/plFNOsbm7S5cuRiR07VftK8bcnb310ZwVCk2MVl4RnC9IhJQs9+x+c/VffV5bDRh4fW6wjr33LTkOP7ValEhq4cCBA40XAOsUgQrSDH/99Vddf/31RiS8+uqrLeOgxtRC6mpfcJ9uHPCzRiz318T1weq7MERPTA1Ut+F+OudLH5308VqrWnfZED/dPyHYCoyMXZ1gFgNsd8oXm/XcHGB8NSOvtGynJq9PMr10yIJzA1PtmqrZvVHfBgxcNzzAVA4RtmmsBi8CvsBhH67SiR+vMSEllAf3BQBqrGvcF8fdllFo6XYXfLXBwgXNsT855wVh2y3j5PIhvpZOy0Ld2I84y1f09gJ9tijaynhP9knyeDEnAwM7SlVYkqeAuHhd/MlvcvzjphrDvK7FHTBAamFwcLCWLl2qWbNmaerUqeblJeTr2q/q1zZW96Dt42M1fqW/ErNilWeeAScYaBkmWtVPcKsAA7BBZ/pv1nk9J8tx2jXVDoZTTz1Vl112mU477TTbh1QUhIjwBiBiweA56qijBCA444wzqpckPuAQOe77Un1+Xim/2E2Kz4xXTPp2RaVmm8b2X1GZIt+cOgUojRFjpkALliu6/LzeMz7Ico77LdpmhY4gGkWmFojKhqSrNfYEUvVwce9dzo3c+2/XJppr/t+Tw/RzUJpYkPdV47ex1l+aGdloZXIBP+jrwwrHEzJpfZJO67dOH/22VXtTNnlf9Zkn/S7hNDwuT04LEwspRccAy82lMTbmBaXpgQkhunNMkGWeoErZVHYmHkeyM6j7cMEAH/nEZIty3J7aWHSpC1BUkq/tual6ZIKPDrrxBTm6HF3t/F1xcUeG+P7779ejjz6q7t276+GHH9a//vUvnXvuuTV/v8P+cpxyhc7pNVcLQ0OVkR/n5Qx46iCpy3k50WWJikpytTk1Qfd9s0Kdrn1aDvSnKxNGHA5zIR144IG7XEkgTFxLnTp12pWfiu4A6YbkrVZ1DNQH2510sY556yfND9qopKxo5RZiEeeZ8BAFk3AVsjihxQ57mAcTAR7yqRGtgXiGiA0pQZQ5hjxFyhoxU9ykyNmOXBlvcqPkt0MSYmLhgd/XIIHfRyN93JoEXTXU34DO/OA04w001cRX1Rihv28auVEvzoxotJrveABenhWp20YHmuJgYnaxSeteN9zfPCT7EgxV1SfN7T3SQwkzkSL6/IyIvcrFb6prZ8wDZACJ93/rLFgGSObZb+rnITO/VIQnT/9snV6bs8lkuRuasNhQ/WpgYGeZEfewzL9eFq7z/jtCjlOvqnrerTSfM3cjKY8Rd+SRR9oGd4D5vcp5277fxlkE6bb39X/TlykgLlLZBQnebIKGuqn78jgMKNL5iPdkF6ZqwB8hOvuV4U7vQBs3xScqDbLqB5JTW8Bx6Ik68M639NSUVQpKCFdmfqzyiTmV1SxcAU8A5TDczCjWkZOOMA9KbFTw6/XbVmPCE/MD3aOF/9jkUIsBwpDvvSDa0rBm+KdYTjaMeQqVEF+tTi+/oe8NEwvsb8IdN47cqO4TQy3PnvLB+7qxEN8yaqMtIgHxDR8mgCT52aJtZvV9/Hu0uGbcwmujs81L8PT34ZZp0Bzd2/v63rl+H6C5Lb1Q/RZF64xP12n8mgQDnq7PPe2V86U8OR6Be8YH68EJIVbQiueyqYEAfcPzCUAlTROVQ55TT+azYMyVlBYpvzhLG2K26ZFRS9Tpxpfk6HJUDQt6uQpsXeZt1777dVb7M67VcT1/1Gw/P8VmbFFOYbIKi7NVWlZsonGeNsYa8nxadJgAsgdFJpCTzC9O1/pt0Xp6wlIdetfbchxGjYLada5rXPxdg8j1euBh2u/Ce/TPPvP0U1CA4jKjypElCoT1k7TEvQj7GGEeyrr+FZVhhDxSkdDCp+Qvevd4DdAif3hiiP4zPcLSiT5dtM08CFhTkJZ843KsbC6We04h/YIiYsM0JhpU00j/wk2OFYTQSY6HKMcxKVMTnoJIVIRryMYCDx8C7w33g5rzroZ4zvDlcUaepAwtXhxvq38PMGYp7XvH6EDrb9QeIal6WkM7g5AelvgdY5xhI2L1KG3uy4aXIjIlX3eNDbLsHkSx8FR6YiMNu7QUAniO0vOSNGJ5iC7qOV5tz71Tjvb7NywgaNdBbY45W4c91FcvzVyr0MQwpefFKLcoTUUleVa90Cs65ImjpA7nZAOqjAGVraz8JE3dEKYb+83Uflc/5XYFLLcAwX5d1P7MG3T6i8PU69f1issMU3p+tHKLUpwKVmUNq2CFJ4EFDmKVf1yOfg3dbnnE787fIqxQFqYbRgZYnBy3NZ4E8rXReh+7JkFzAtO0fHOmFTXBEwFA4HhMDBy7LuEGgEBsZqEBD9KXAAKADxZCT2lcG7nWz00Pt6pwDXVe9JPVHpgSpnvGBVsKZeXrpm/IYqBvxq9N9NjJt6H6pLGPwxhlkUVe+u2fNwtCKGPQU5oLCAAQ7xsfpMuG+OoH/xQL5XnCObKofb8h2Yi9aBDgRfSg7qvQRTtVVlZqvAEY/SGJ0eo5e40O//cAOY6/oMY0cbfmbJcR17a92hx2srpc/5xuGPKH1mwNVGJ2lLIK4pVfjMZAeVqhZ3ZShf7auz9buGfApWRVavrSDKjYjBh9vWyjznl3utpf+qgc+3WRo+1ehAxIQ+lwgNriXnpygJ6ZtlqhScFKy9ukrMKKg6lp1AfJZ8cljgW6LjpbswNS9cWSbRZOgKTIBHr2Fz46f8AGmwxYuN+YF6WRK+LNnYmEKZaDCxxgdUHUAiAw4Vaecnk+sICoOIj+PqADMRVPQ9GAAZQACbNQIrYhGtcOCYv+vWiQrynIkQVSVcOChTz2wIRgBcTleOjkW9WZe957jEEAFwuZq9olfAJPaIwJnj8IwnjILh/sq/khaVaW2xPOz3UOiA/RfzyzpL96aqloV6igoDhbmQWJ+t4vWN0GLlD7+z+X48gznB4C5mDXwl7X17bt5TjkeB1w7TO64tOf9d06P6XmhiujoNyQK86xEIGnzWeu+9iQry0eDNBZNqDwDhRnK6cwSVvStmj0Sn+d+u5cOa58To6DjpGDQVHXgcT+HQ+U4+zbddQzw/XC9yvlF4f8cIQy8qOVU7jbK4DOdlMOKCYlLBTAAQs57tW03GIjDbFY47Ls9esWCyvAzj7903U6rs8anfbpOl0+2M8WLbwMCOjgQYDoSFy8otXLpAxYoAAPFQEfnxpm2glNIS9c14cAkSeImHhNIPo1RCss3aENMdnq+tk6vTgj0sIPlcGS63cADZA+rx7mb8JHzYkJ77oGT3vdur1Q908IMU7GjxtTmvT5qq4vSBWc4pOkG0cGWE2KBWHpHuW1qHjeeAQIMeI5BLB4YqvI+4pKTdDHC9fqggHzdXqf+Wr/2Ag5Tr5Mjo6d6jd3EyY+4gy1v/l1XfXZTxq/ZoMSsqgls1lZhQnlWQStwyvAvW8VYIBF2EUkRE0qMz9ekcmbNGmdr2786jcd+PDnanPmTU5iijugoE1bJwg49ly1u/l1XfDeVH3083Kt2hqgxCxiTVuVVcBgynTKWJY1jVegtoeZ2DYZB2iiYylDVoTwx6RAuuPsgBSLb+N6fWxSqJUWvmKIny78ytcWMbQCXpwZqc+XbNMP/skGEnov2GpAABY9qV+eGn8EDFC05alpYXvE9Gvrs+o+py+pRfDAd8GijxaGba8xdg04C0/Jt1RSvDM/+CWruKw66FDdr3rfr9gDxL9nBaToX2MDzePT0NUoK/6WO3/zXBGCQ1zr/9k7CzC5qqQNdxKcwGKL2+K+uIfFF1h8IWxwgsOPBSdAjCTElYS4QNxdID7JuLu7uzv1P2/1dDIMI90z3TPdPffk6acnLbfvPefcU9+p+uorODzrQp27HgWAFDVQQDLpzZAznbGxmUvILZZvNoTIvVN2yHvLd8vKgED5dMU+OeeDBXL4Hf3FdMaV5jXZmg0dnmA2gFc/Jic9P0b+O3WT/OrjI7E5oZJbGiOFFWgL5Ha70vPdAgwwwdmZwwitqinRgS4oT5H43GjZFBYsHy/dKTd8OVdOeHKg9Lz+WbPSFRWySEE86jjz4+gTxXT8mWI6/UrpcfmDcsR9H8k/3pos/aZtkJkenuKbEiRpRRGSB6qsSFPVKgvxpLO9Arbe0HgOWMhwtUJUxAvgm1wivzWkO6KHQLojWQtkMOD+JFuA8rLnDfFUgR1eG70jWTaE5enOGzIhx2PBdgaTBxiAYEmeOpkaHW2khhEaOWewp+pFaKpYGxeKdwBS5dNzQ9VgEI4BnBmt/T1AOAseDOTQQZtRi+t8MiFAj9+d5pEuVONkjpFBQD0MZ29kNuDZQ5Br6NZEc3qyE500fZtUUCFfro+W+3/ykgFrAmRffJykFsSLb3K4/LTHWx4ft1rO6z9Ojrz7HTFdep+YTr3UrEdw9PHmMPBRx5v5YQjOnX+L9Lypn5z4zBC57dtf5NvVO2VTmJ/EKBCIloLyJCmtzFKOWU091VTdW4K48VB3GzCAd6C+HuNUKZU1xVJWlaNpf9klseKZFCZzPP1kwNId8sjIRXLVu+PkzL4D5YQH35fe97whve9+XY6//x057cnP5eL+I6XPN7Ok/5xNMm7HAdka6S/ROSGSVRLZAARSFWxU1pRqWgzCGZ0ZHmg8uB35m5uQTAayAYiDx+aS7lisxv77zYly1Y++csLXHmpgUVCEewBfALfjy79GyjsrouXbTYmqxke6467YQi0dDNjAK6EkxY6coI3fBQwQr2cH1FEwQAoooIcdINkbGHVAjzUN4zXHM0OuGOmjxkvTzKz7qjWH73afYZ4ynu+viNFqkauCcjr1fsNDBGdmuke61t0gDLU2JFdTS11hMDh/r6RiDV1RMAm9E8JfztC4p/BWfLMpXu6ZGiCfromUfXGZUliRJyWVGeqBjcuJlPWhQTJy6355afo6uf3LGXLBKz/I3x//VI679y059l+vy3H3vCEnPfKhnPO/7+XaDybJY6OXylerd8kCbx/xSwmS1IJw9QgABEglrKjGo1shdX/Uko/m1hLEjce5W4EBMgsIF1gAQWlVjhRVpEpeWbykF5FyFiqrggNk/C4f+XKth7y5YLu8PGuTvDRzk/Sft1U+Xr5bhm/zkvnevuIRHyCJecGSWRIuOaXRkl+eIMXqESAVpURLXrpbyWJuTkIK5HlTle+1xVG6eLDbpQrhuJ0p8tX6eHlzabQWRgEcABQo40vKHYSloVsPpTtSQAUyH2x8QhaQmKw1qo0nsTV/k57J+cBr8O6AZwASJZwDRFsgr22JzLdJyQ0OB2qE762IkX+O9tXSxoYYkTUj2PJnKqrrNLWTMBBjzHxy1DxqfBYYUsAcIkKohuI12xiWpx6xxp9z9r+57/BkIMpFeDA6x3pw66hrg+NE3ZZh2xLllgn+8vHqGPFMKJCyqkoVcKuoLlD+V0FZkuSUxkhsDsXggnRTN3Srl3y4dLe8OnuLvDhjk7w8a7O8++vv8s16D5m8x0fWhvhJaEawpBWFSo5u4mKlsDy5AQgUSXVNuaYSEp5w51oETceu24ABLhyHNUiv/o8GQFBNyCBPtQBAhbmlscokzSwOl6T8UJ0wAalB4p8aJMHpQRKbEyxphXgBwiQbEFASpd6AAp1ImaplUFVr9ghohSu2LW7S2Mmjc4BL9p6fAjVGS743r1saNzChgYT8StU0YIeEoqIl3RHhFWrTI/6DXC/ljDGqw0l33J+uKm2QG0kVIx6f2STd0fI77XkGDCCC1G9hhHgnFbfnEPodzgn2dZ/JASozzDUf6gHrDgvRa84kAAAgAElEQVSvwjOpWDM7AFTszDrDeFl3dq75KTxOzLWrR/nIyN+TNRum0dS0+0UBBODbAARQmCRThXRa9DtcsQFqxu9K0ZopZBYhTtRVyxf3FKFKwo5UdURCHKGwqpo6lSgm3IuQXGV1oZRWZquHlw1dbmm0ZJdESFpRmMTkhEhQWpDu/FnDwzODJSk/RLKKQ3X9BgSQ8WXmd6UKG8OK6iKprquQuroaDSt3JyDAnO1WYMBykwII1ENQC4egTN1CTCpi/YAC88SKkdzSKM0MINXk0CNa8spi9TOgUr6jE6mGiQSirJa6OtcMDVj6p+kzCx+7LVQQ2QEhiQwwsLaRgUAmQmxOhWYbQJ7Du/Dq4kgFBdRjYBFHFY36ARjtz9fFyzQPc7qjR0KRZkEg2IKyH2564u8YUGvzywEDhDDYvWF829P4PWRl2YFyjvG57RcQonw1nIOrfvTRRU/DBe05KeM72gMYLgiEeKAoArY9qkDniSO6hzkHR4RKitwP/54epKRU5qSrNq6JUCDZGcg9d5WYE5sLPGc//p4sV//oIy/9EqkbAzNYRv+EcC/rd43U1FZIpW7ocqW4IkNBQX5ZouSVxiowMK/fjdbuEtbzGMkti5WCskQprEhVb0BZNd49NnGVahc4fncDAszbbgkGuPCDk6oOuWJ4BCVSpq6nHCmuzFQjX1SRIuz6eRRWWB4p+l5JVaaUVuZq+olOpLoq80SCcNJVkNoBKxG7XuoefLAqVq7+0Vc+WBmj7ruO/hTHhZOQW1ojkQ3KinO8MlVEBnYzjHvIead9u1/OH2pOd4Sh/e2meFVgpHAT4AIXO2ClrVZcWSf/WxChgACJ4PY0FkuyEfBurAjKac8hDn6HKVJSVSt954dprjdhlsZeloMfNP6wugdgxxPCgdTKXGE36YhbsaC8RlAAZY4i7hWiokdWn6bTfhCuAP130Q9e8voS++lx2HLBKQWVMmhLonJq4B7BV/rr/W0GBXhfkSs2b+iK1MtbUpUlxZXpukazZpvX7yTd5CENX1SRJsWVGepRQCaedHP4AbX1NZqCbqY7t72e2HJNrvLZbgsGGCCMtoKCP+qkth7XU4UiRLSwUZ4qq85TOUokKUk14f+gSAgmkBCZhACJWnUrmUGAc3Dn7TP9ME7sgHDTsfBRfQ/OgD1d2tzopNjhOmf3DvDA5cvvQDpEvGXC7lT5eHWsLvC4ZNE0uGaUr9ZnJ/TwzrJoGfV7su7aITkiuKQkxUakPsDACwsjpO+8cK0XYGsPYWhIo0SkhTgmBqGjjd3YjpgCeWB6sLzya2S7PRYdPQ93+T6GH3CI6/6S4d4qBkVWiz1bblm1jv+dkwLk1UWRKuyFW9sdGv1HVtHo31PUS8c9xf3fWY2xooorWhwQQqOzqOfSsmHWoK+u3eifVJm5BDXFUl5TqCHbsmpSOxvW7qpcKa/G+BdIRU2R8rpY72vw5NbXNgICnXW1zvc73RoMWIajgUkgIE0MOxMLIw+RBINveRCn0gkEAKglHFCrMSyIJu4EAugXUt7Cs8oUCNww1lfd+sTyO4tpDOCwpDuyIFG+GbIhxnOpf7ZKL1MQ6L0V0aqxDgcBdj98BEiLuIsBL9RKQPiFUAMZD7yHyqKtjZxx5J1ZpNg9WRueaOt3AEC4RBF+IQxDOMVo7e8BjAcZG3Ax8OAs9M20S7gAm5RdWqO7VgAh0t574zA6rskRaKmHAQSIOZF1Q/0CPFadAXYAAoQGITFCNEZi3ZpNhxkQwANjQwcXrFoJ4sT+q2vLFCBQtZa/CePW1AEAqnSdPwgCHOE+aqmDnfh1Aww0Ghyzl4CJZZ5cTBbAwcFHPZXoGgBAg6KgO4UELF1B7JNiO5+sidVd+OAtibpT7ywgYDmPps/sEVggMKAs+LCNKeEMox/xFDwI7N4/Wh2ru7Zn55nlf5+dH64ZDbg/Sen7fF2clsJFWTEiq1x3PxwTT0jTfQivUVuAjAi4AoQH7F0YJySjVI3Lwz8Hawiktd1Q0z4x/v/XHmAMd8YUai0Idu+7Ygo6BN6Yc5AFuQ/wTH24OlZ2xxXafR789Uq65hXmH+CX+U7/HWhnWM2as+f+In3wyw3xmhrKvQnB11YAwp17aP2GaEj40LJ2Vx8y/vVmEqJu4FRevekdb81Zu+dnDDDwl3HVaWXOPICsosDAAhDMksJMOsvjL1938ReU6Z5YrAYTVyhuO4yuM4vjAOxZPCAXYriD0kuVQPaLb5bWC+AaqEkAGDhr0AFd0CESvrE0SgasidVFHqlg9BDM6Y6lujsi3TGlsEqPce1oX2VbYxTs3TA2q4Nz5Zm5YRrGgJxpbFY61svM4wm7UoV6HFT3ZLfbnsa8QkcCYZ6bxvmpZwgvk7t5BJr2DeEWwgRkSQzcmKDgu+lnOvp/Qm/07febEzQ08Nna9gGBP59Hw/p9MATcfdbuP/eD7f8zwEAbfdYIGrTxSdd/G48A5DotYDI5UL5YH6e7ZlfdqWJQWXDgIYSkl6noEAv6u8uj1UCQzYAqIQaDMANkMHgF8BOQXEZRbtKeNLlshLeyxqlCZxFNwtjYs1+oK092AfFS1B7xVLQSLnX9ydYJV0B6KqmreFxm7k8X6gbY0gACADNS3Mh0sVS8dOWsAVuun7Dg/62KkfunBTdU47TfLpr7MiKzTHkdl4/0UXXToLQSu286LOu3LdfdXT9rgIHuOvJNrpudP3E6YvAokX29IV5zjZt8zGX/i7AKngCM/974QgUJKMdFZZULmQkLfbM0HoxbFGBw41g/uWCol5z67X7p/eU+rfA4YG2sTG9Id+Q7kVnlCg4AG+SXAxDY5beXTxCYViLvLY/R3Gp3jEd39uTBe0eKHCqRZKjA9bDW48I4kuuOBgZAgBg64ILXu0sD7FLAiHABcuNcvz0AsKVvqfZ55Y8+GoqIdQKho+4yri1dpwEGWuqZbvQ6CySGDdc5TH00yjGU7tQAA28ti5InZgEGWiYQshsknYk4MyqBAAEWwwenBcl1Y/zk3CGeWt3x4uFe6i3otyBcIDJCavRoSHckXIG2AgsnwID+tcaEAMjIoECZEC8Fi6/hHejYLGQXT3YBxaT6L4lS70BbgID3Ec4CEKN/QYgpvRid+o6diyt+m3DBrAMZctkIH8GNT5ZOR7pB+zavQqW4rxjprX1LNVV7gAxX7F9nOmcDDDjTaHTBuYDSyfOHaX/reH+ZsCtF4+7I5rpTAwxQWfGxWSGyN65lMMBV48KkGh6scSo1whNIL6xSURuIY8sCszXPnMJN7DhvmxCgtRrY5SCdqumOy6P1MxCx2JEmFVRqnYf6ViwKvw0QQY3xlIEeWtehM1O73Gm8LdfCNAZUEXq5fIS3zPfObJP4h5jUh6ti5dYJAfLxmljlzHRXYwWYhWRLyPDcwQdkY1iuzmNL/9r6jHgZiqRIeROC4P/t9aTZ+tvG51vvAQMMtN4/bv0uJCg4ArjOCQ0gQ8rNCcPX3RqqhYRA2HGTRdBao2IjwAE1xM3heQIwwqgAnBqnOyJ6hGsfGVrIhz/tS9NQA7oMFEWigh117e8l3XF2qIYpyHaYdSBdqxeGZpSqtj1AxWJs+A2MF9kLVJKjIJK7k9VaGwt7vAe4I6yDAiWcEca3ubg/Rgmy7LsrYnTsSfWEa8KYdOdWUW3uP8Ax6Yb+Kdal/TXtM+Y1fCTuCcqkw0lwx7Wm6XW7yv8NMOAqI2Xn80SEByNGLPSm8f5qyGBcowrojg0wwE6e2Ce7+5Ya4RHixJAK2U3iJm2t0VsYG6oiQgKkyAuFkIhVL/LP0t09KWmQEuEjUEgH8MUzYRmAA2ztSXtSVWCJEAaLJKmShGwAJRzPzRw1rXWpQ94jdIOA1eUjfDT1lHFqvCNlDMMyy5RcCghEBQ8FQ2fOonFIRzVzUOZ4flmNelXoP+YzQNjahsFnbSHMgPYD2T2kLnd3kGVt/3XW5www0Fk97US/Q9xvS0S+7lTZfZKfD0venVE6YADXL8xy4vLNNa5/RWCO7uKJE0OobG/DeKPLgIgQedSBqaXqDSDdESlb4tEoJyK5ihfAAg5eXxKlxop860uHe+vjm40J6sFBmAWyIp6CxoasvefYnb6HsyutsEq+3pgg1472k1meGVoIiz4orzbL8ALY4BYM2pyoEsMGEDg0Q/BcUbzorWXRcs/UIFngk2lVmWZAFkRM+p1UZUIElJw2+vZQ3zrLXwYYcJaR6KTzIGUNRT4U+ripKTsMOHB34wIYYLEnU6AlMMCi9dKvEbpzX+zvmFoBGCVc1GgYUOsAQReEjABkLJQo56GSiAeDmDVFd/AQABqQQSabAcCyM7ZQwQrHwCOBZ4Ljuvs4duQ2QfaaMcbrQ4YB9wHgisJVX6yLF7QkAF4x2RQcc08PWUf6D7B8ILFIlT5Jy0XYqbXdPUCA4lHM26tG+Sj/wuxtMfq2I+PgqO8aYMBRPeuEx0U5b1tkvubSI61LXntJZetucCe8jHadEmAAgSEMAYa0cWMXT1og5ZmpQoc8MMa6M5vlHCiRTP41pZznemVqYSgqGx735T4FBlSU6zMpQEENCzIcBCSXES0iHZHvQnhEOheAcCjdsTOvxnl/ix0umR94AAasidNwzIC1cZopggoeu18Lf8N5r6LrzgywSUgLjyLufrxezTWAF0CAewpiLeEw+BgGyGqut5zjNQMMOMc4OPwsWOB2xRaoEblzUqBM90i3i2a7w0/cTj8AGCBm+cC0IK1v0Piw7GAgUpJGRvqhXwfCA42Pa4+/0S8gdZF0QwSRyPuevDdV5YvxHpDu+I+hXnLeYE8thwzJ67VFkaqYR0YEdRgoCUvMl7AFizQ7PAspsjvu0Spr6zQUg34AFQ4Zd+pYFFfVGtwMKyYtoS+Eu5hrKHfWaMnfQ1/E+wWn4PvN5uqD6HvkGOmDhzrISf8ywICTDow9TwtjtzOmQPpMDlACjyXe151IaXhFPl8fpy5Oih1ZGjud1MIqTRHEK7AxPE9305b3u/qZMSI18a2lUbqb5fy4Fgthkd0XhEiyGUbtSJa3lkar9+Omcf6qnEh++M3jzemOFNdhV7cpPE/JcVx3WZV7ldy2ZrwAQIhM0S+ISkHSJKWzO90P1vRTS5/hnmHOwXUhtRZ55saN0BXZAszBD1bFqKfKCF817iHn/NsAA845LnY7K4wG6WmQdyDPLfbL0hhzd7s5MaBfrY9XMEQWhaURbydeT80CUgPJ63c2o8C5s8uH70CsmzK6eHrYgUHE0nTHilp1cZO+RW0GwB/s+Wn70nSHBjGRtMr7fgrUuaAaCrNChdcJNczxylCPCYx6BHb4TY7vbo1+0wqWc0LVk4JnAI4GWhtGs74HCC/OPJCu1TbfWBqtnifuG7xQn6yO1dRMSLCAVXcmJlvfY87/SQMMOP8YtfsMcc2tCMqWR2aGaM47sVKMX3cDAnQgxg1yGCVSLWCA0MHmiDzlCTy/MEIXrtYIUe0eCDt8EdEiyJ64tCfsTpGC8pYVIhlfQgKkRRIDpxgM1R3hiyz2y5bJe9I0bRJC5cuLIuWpOWGqsogWArn4lnRHPge5cX9ikSAXS6VImPeuOn8ATfAq2NECrIhnf7ImTu6dGqjpcvAr3BD/2GH2NX8IOACkYCK0NWVvmqZmMqcoI/7NxngtOe6s91PzV9S9XzXAgJuOP0YfRnzf+WHqNl7sn61pbu6427NmCAEDiMiQQUFlQnaIiKegPQApb3tUQZvKdNb8jqM+w6LK+ZJVQKwb/gdgxpaGEUdABgY9aYr+qWY9BNIdxzekOyLBjB4CoKBxuiMFf4gBAxCW+GcroIIZDlmRGDKG1JlBAhkzv0XnS78FEQJ5lutgF0s2B+ETSJkITBFSM5p1PYBXCgGvF9AqGeen8t0QC0mbJbSFJLfRXKcHDDDgOmNl9Zmyg2OBZ0GHZIaADbsiZ3N/W31BdvggYAB3OO5xDD+6ChjA2ycFmHeF1ZSntsMPOfAQlpDPJT94KQEOlz6gpqMNI878IJMBLwJqfcsCsjV8Qvnf/ouj5Om5eA9CNNTw9JxQeWVRpFC4id014ZVlgTkaZsAIaLpjiTndEeNKwaCubHhR8IqgHQHwAwjAl+C6mRdIRlN7ghLSXL+RA2/9aBFWIyvpiE/3yPFf7VOvkgEErO8/Z/qkAQacaTTscC6wxn/1zVLhHKRDF/llCcV3untj0celedeUQFkflqfub9zixOAT8yucHghYxo9dPYqFV470kZkHMhyaAmkBCQAngMf2qHyVUibcAhgAaFJymdoMd08N0lADzHEU6mYcSJdVwTlaIZLv4okApLJDt6Q7dgZGQFcDgS0yLCAMTtmTpmI5jX8bg8br8Acm7Ep1St6IZfyd6RmgF5pRpvfVyd94yDGf71VgSGjKaK7XAwYYcL0xa/aM2XtV1tQpEMBVB8t3ZVBOq6IgzR7ITV9k54u8MBkV7GQwWmik00eu1PAEwHyn3gFjDOehswlauqOuqpOUwioJSC2VTWF5Mn5XqrLyH54RLNeP9ZMLf/CSC4Z5yfVj/OTBacG6Yxy7M0X7+0BCsbro88prdGeOWBJhEK4NR4e9/AgYK4SFnp0XrkCAdNoaPBVNBhxgAPHyfwsitJgRUtLMF6O13AOMFQJOeNsuH+mtPAwd6+nBGkIyuAIt952zvmOAAWcdGRvPq7ymThZ4Z6qK2tNzQ80pcsaCdrAXWdyHbUuS2yb6y20T/KXPZLP+vK1x94MH7MI/MJirg3M01fCj1bES0QVMeAwqoACjwMKPQacv2f3DzCeWTLojYQS8CICXa0b5KkC46AcvuWm8n4YcOH8yHnDjs8tkVwn5saON6pC4/x+ZYS4WNcczQ9MoWzou54/89OUjfTQG7pNc/BfQ0NJ3u+Pr1Hag6BDqmMh8Iz60PjRXMzQQ98IbZDTX6gEDDLjWeP3lbNnVkDVAJTzkVF9YGK67RZjkjV2hf/liN3sBMDB8e7JcPNxbywOTWw4BzlX7iDg4ZWVJFSTLAL0AZ2gABEu6I3MQImtCfqUWX9oVU6jpjnAMBm6Kl1cWRcjDP4coj+O2iQGqakf5Z6SyCTWgh4ESI2AHkFFRY50mAgBlVVCOZgxQFIqyxRSgam2seQ8wAysegiYghtCG0f7aA3gEPloVq+OGhDb/xztFCOiLdXE6jnjf2iry9dcjG690ZQ8YYKAre7+Dv80CllJQqWqC6Aj0WxCuOywMRVNXaAd/yuW/bgYDSXLWIE+Nb5OD78quYMbeO6lYq05SLnljWF6XE/VamyQYaLgCGAhi9BD12H3DQyDTBSNMGAdPAZU0H58VKo/OCtHnZ+eFyZtLo5QrMWVvqnpFuHZc+xh5dvX0Bw+qcRL6eWh6sGZDLPTJlAwrtSPwuJAd0X9JlPIhABGuPEdaG4/2vAfQY9zwBNw/LUizc4LS/lyGGO8K1TjJRFkTkqtKl+35LeM7nd8DBhjo/D63yy+y8FEWdOreNBUTInf6t6gCXQwNIPDnLqavKGELm/z07/brri+loOrPH3LB/2Fc53pnqsFERjkxz/qyss5yuco/qK5Tox6fV6EpacTsyYZBTwGy5AcrY3TsyI4hBIaxYSxJC/1uc6KqKpLuiLjWPK9M1ZK4Z0qgzPXK0KwRxt/axmchHD4+25wxQbjDlu9b+zuu9jn4F4R/PlkTq6mZpOn6p5b+hZMEWXmBT5bg4aHCIaJDRnONHjDAgGuM05/OklSthLwKmbwnVdO9WCRJlzOyBv7UTQf/g/t3R3SBXPGjj5zx/X4t6oMRcocGICRL4u4pgcKuWVP53ODCGJ+Sqlrd1UdklSsHAYNP+WcKCpHuCADGK4LhIbOBuhPwQY78bI8CZMIRaEpY0h0hXpJdwH3S2vAzX/gdFDtR0SMNsTs3PC8hGWUqJHTjWD8tUIRHoCWSINknzEmIoxT9KnGSEFZ3HkNrrt0AA9b0khN9hkWMxQkJXVTUCA2w4LmLcbN3VxPLhMz0yq8R8rev9sk5gzxVm9/ev9NVx2M+sHt96ZcIzZQITHXvWvGEGwAJhMdC0stkc3i+DN2aKHdMDNA898tGeCuxkqwRXNnoI8APGbItSVMxCSHQXyHppYInAm0FQheEAzBuFoiIOxw1PYiPVI/srkAbcBmcXqocjitG+qhiI33TWgYLmxUKZCF1TcYOtUAYN6M5dw8YYMC5x+dPZ8f9hLt7zI4Uze0mtmp2Yxo32p86qtF/ILCRUnbSNx7KZr9wmJdmWjT6iMv/yU6W2gVUNoR8R4y8O4BDZj2kNYiGAGO8I9TewBNASefRFG5aFi0PzQiWG8b5ySU/eMvlI3xUPvexWSEafgBUk5nhEV+kRDjIuIg7WcSInpgVqmEHXOTdzaBh8HHzf7sxQfvt/1bE6Nyyph8AT5A4SXMGkBlVC51/mTHAgPOPkZ4hO0BcnKTHkf705tJoOZBY1CpCd5FLc9hpstODWIfULDLE6KVfO8ZPY8sO+9EuODBGkdSuH7YlyQlf7xNqUBSU13bBmXTuT7JrpVgO5Fk0F6jGiAQuQAhDRrlmeBWQDCMbQg2L/LNk0JYE5R0wL/AknDvYU8tAI6kLSCBlbtaBDFkbkivfbUqQS4Z76/1GOenWwgude/WO/zWyBAasiVMQDbGTfrQFZEIUpUrm2YMO6HN+N5iTjh8Vx/2CAQYc17d2OzI3YEphpQzZkqgIHTYvQMBgOrfexb7JJeoivnWCv3oDSMG7boyfKhC2/k3Xe5d0PlIlcY3jmqUyn7tqw2OQMfJT96ZqaARtfEo7U0mvucb9AzCgyBK7frgDFH4KySiVXbGFsiIwR5XzvtoQLxSsItaNsiIphmgiILN7+ncHlDxHdgJyzbjKc0tr3DZ8EJFZJh+sjNWdPf1C5oY1HoHG/Q8gI8QA2RPQRbgAj4vRnLMHDDDgnONy8Ky4AaOyyjXtCoEP8ns9E4tsLlJz8IDd5A8W/JG/J2vMd+i2JJXthWCnYCA0zy17gbQ6XN5X/egj1BRgQXe3hmFHkhnyLB4BiIQAgYKK5oFAa9ePsUK7AM6AVnfMKdcQA1k5kBUhIEKEQzQJDY9zh3gKwPLfDWmLqFgizUxGD14EwCc8BAo34bVwxQbQisgs1+JNAEuyNRCDoq/a0yAP0p9Xj/LVlM2AtFKbQUV7ftf4ju09YIAB2/uszW9w27Ars+RUk7vMA7cZ7lveO0RVavlw3ICQpIZuTdLc+HdXROtiZXgEWu4z3iE8sCwwW0vzspDTh+wkUbojrr7OTcEAhpLaFLh08Q4gRIVhcpcGMIY4iJEma4CxRW7Y3iGR2ro/FGxnl1brjhgvHLyT84eaJZYh7ZLW+NriKC0GRkYDGT2cDxUQv92UcDDdcWdMoYRllCnpl/NsK5OhK8eKc0PgCc8jxEmAAN6m9gIBrgVwwZwctSNFPS1IUrMWNm3MXbgv9Dky13wGojRcAwAb7xvNsT1ggAE79S9zFSNN7BZS3/KATJm6M06GrQuRgSsC9DF0bYhM2REnywIyZXdcgaYH4jZrbqJzA1pYvOxELIp5LaXz2Oky3OIw7GRwTaI+xw6PvgQM/OyRrvHPtaG5bnGdzV0EGzjEfB6dGSIv/Rqhoj4dWcyb+42ueA0gwK4bIADQocDU79HoatjuEbD1/Lk/iZd/siZOrh3jq166nTEFGmJAMIk0RFzpeAr6LTQL7gAQEEtCwAgOAoJKeBCQaGanDMkR1zvGD4+OZjJ0ob3j/mC9IZXylvH+go4A/wcYdbQxdhh3ABP6DQB1DD/XTL9SSntDWK7M8UiSUZsj5LtVgTJwhb98vypQRm+JkAVeqaqqyn1NPQt3mM8d7VNHfN8AA3boVZBrfG6FbA7LluEbwuTRMVvkyo/myxkvjpXejw2UIx/8VB+9Hx0op784Ri7/aL78Z/QWGbouRDaGZklsbvmfYmncPLh42WHc91OQ1gkPSi+1w5m69yFYtlhkhm5LVAb4iN+SdGfBVZMrDdns6lE+4s5ggGtl/mA02d19ti7O5WV1uR4kjVEp5H4A5B1ILFaA11kzGgMEs/6hGSFq1CArWkIBnB9ZDWwEUOCDtEr/AxBeXRSp5EYADONB1gMgAQ8CZOAZ+9NVMRHZZXL3AQhkwHA86o3wux03x633EvcGHgAtOjTCWwGBRWK49W/a9i61C+gDNjYoT3omFsqsvYny6sx9cvM3y+T8N6bKiU8PkaMe+kKOeOBTOfrhL+SkZ4bJBW9Plzu+WyX/t9BLFnomi39q8V8qT9p2Jsanm+sBAww01ytWvmY2PrXilVgoX64Kk6u+Wi1HPzFUTNc8KabTLxfT8aeL6cjeYjrsCPPjyGPNr512qZiufkKOenywXPHFKhmwPEQ84guUAMXNz6LCbgKE/uGqGKPoh5XjwU5jV0yBpo69vcwcUrF8lQVvtmeGxtORSXX3Bmfig1UxuvhO80g7aLhc7brxdJAqye6b4lJPzQkTn+QSrW7YFdcy3ydT7pgUoKEYSIStGWoLSMCjgXwyO2IAKumfgIIbx/nJpcO9NXR156RAlfCFvQ/oYY7uSzATFQEHcCIAuhRxYp43501sT39wLMJocB8uH+Gt14VoEOdu7wZ4wuNw2wQ/uXuSj9w/Zqec+PI0Md3xppjOu0lMJ50npmNOFNPhR5vXS56POUlMJ58vpgv7SK+7P5DT35otT//kIUt805UI2hlgyd794KzHM8BAO0eGW4UYGznOd43ZJ8c+MVh6/ON2MR11vJh69BCTiYephUcP82eOOl56nH+rHPPYt3Lbj7tl5v40SSuqVB12FomvNyQoa9n+t2U7L9qJv8biCLHsoZ9DlFi2PpQ0s0M9BxhAnhbhlNXdAAwwVDDl2YUSZmLH6oqNHTIEUMoi91sYodfRleFjCkIB1BE5GvlbslUgi1nIOWNfmaesG8TR2X3viy/UNQRjjJ7/zeP85URD6VQAACAASURBVIKhXnLat/s15ZGMBgAQhNB53pkaggSE8H17GGzUHT9eE6v3BVLD9Le9gEbT+YYY0fKgHLlzvI/06Pez9Li+r5iOP0NMPXq2sWY2rJeHHSmmUy6Uw259Wc75eKV8uDpaEvPL3TZrpmn/Ofr/BhhoRw8zqYsqagQyzNVfrpRjbntBepzyDzOiZWK3CAKagAM+e/hR0uPk8+Tom/vKuR8ukQenB8rFwz1l2PZEdUuSEmW0tnuA2OPYXSly3hBPJQpC1mzcc+yo5ntnqEYDgjTdoZVW1WpoBBc14jvwU7rSkNrS5xhOBLYGboxXD9n7K2LEK6nYKuNry+/Y+lnOi3g/7n+KIQE6bW3MSwUFDToI8B6YvxDnUMvcHVcoK4LMxZsAHgC6e6cGKVC4brSvZjTACcHDMHx7kiwLyNZUY0IM9FltvXWZDMTg6VeyMgAjeCQdCQS2R+fLI5M95LhHvxbTOTeYN049e1m/XrLB6nW4mI49RQ678A455X+j5Lk5geKfUiRVNUbKoq3zsOnnDTDQtEfa+D83MuVUp+xOkis+XyFHXvu4mP52hnmSWgsCmn6u52FiOv406XnlQ3LcGwvljvFesjMmTypqHE+OauNyXeJt3KfbIvO1tjqpZuioN/YKcBGAAbw45Duv6iZgAMPPLpJYMDvrBd6ZnRpnb+/kwfWbVlglX2+IV8OH6xx5W2fJouE8FvllKXfhhYURysmwB8hibeHaOT5hgfTiaoluSHeELAn5EC4C8stkM/SdHyaPzAxRzw9hBzwIAAQM+zSPdBXXgpxHKWYqmZLFZGkAgXdXxKguxfebE5WjZA9Pg+X4jZ8JD+ABeWzqfjn54Y+lx5lXiumIY2wAAc1soo7sLT3OvFpOfmaYvDrXW0O1NXUGIGjc77b+bYABG3ussKJG1gVnyvXfb5TDrn1STL3/LqYetqDbJhPbAgzwEhxzkvS46j9ywYCVssgnRfJKK+WPPw7dwDaearf4OAtYQGqpkpLQYYCpDTho2gADVMIj/II+fXdpXDfMd8vuEpKahfjmjH2AJwz3OQaKojgD1sYpWdDZxGpgx1OEh1318O3JasDtAQhaGhMMOQqIbETwAJAxQnXHRX7ZMnFPmny/JVFrKQCGGesn54RqISdqVry7PFqrP07ckyooMEJwfHNZtNw83l9DHugj1DYCCi2dQ3te57xjc8qk37xgOenRL6THGVeICXe/Zd1r93ODl+Dsa+W0F8bKwFVBEplVaqyX7Rmkhu8YYMCGzsP95p1UJC/O8JBe93xkJrvYEhZoa+JzrCN7S69/vS/P/bRL9sblSnVtjVPXqbeh+xzyUUvRJha2H7YnacyzuUUZA8hu7pLhXt0KDNDpuKAtXhG8BGZ3sEOGo0MHJZaOVweWPeTZ9xp0NUh7c7YGCPVOLpZ3GowqVTG7wnOBBww9E+4Ddvuo/DHPLemOhIfwXgAQCC0QMnpwerCc9t1+oU4H2iW/+GYqu5/wB1UwSXcEUHPsxqE2W8eAcGpGcZVM3BkvJ7zys/Q8+xoNi3YcCDTaUBFmuPR+uXbAfJm5L1EKy6sMQGDrQDV83gADVnYct0V2aZVM2hkrJ788RUx/v8hMfGnLwNv8fg8lyZz4/DgZtSVCMorKpL6eWG9HbksrL9LFPoaRYJf/5OxQ+e+8MEkuaJkFDRhAcwB52RXdyDPAkDJ1AADEh68Z5aPXb2+hno5OHeSUAQKQBWHr4+7GQwBAcNaGwSTFEFVCZIzDMyGzOcd9ij4A/IGEfLMXgblPSt/p3+2XswYdUJlheAioDFLX4X8LwlVsaMT2JPm5Id0RAioph7GN0h255wBCbV0l61VVbZ3sic2TG4ZslR5X/secWWXzetjI8Lf03SOPk8Puekv+99NO8UzMl/o/6qwSdXPWedVV52WAASt7Hnf93rgCeXbSdjHd8rId3FxtTPIb+8mTYzfKb1FZUltXbQCCJuOEgUMUhQWOanVtpQsCBpYHZOtuaHlg9wkTWLqN62fnCDudnSK1C4hPO0PjPCgkNHBjghpWdrNJ+RUOI7PZ85opgTxxd6qc+u1+TQkkLc/ZcDuACqOO7gFFziAlotNAjQW8CAAwwgsPzwiRm8b7yzWjfZSsCFgAJHyxPl65CmuCczX2z1hxnahbEroAIACCGpMPAQPpRZUyYXu09PzveDNHQLOs2lj3WjL4bb1+znVyyevjZfTv8VJVWy1/iPOCSHvOP3seywADVvQmE7u2vk5+2pci5/SfIiZ0AtqanA3v92jvDfD3i+XMl8fK6B1xUllbIXV1tYZ3oNFYsQAN3pKoBWUQZ2prB4kxhKFN2lZ3BAN0HbtvhJcgUWIAcC07QyP+DiHun6N8tawwRblcpWH4yVx5bGaI1r0gHs9cc6aGHDIS1Yw7QACPRlMcSGwf4x6ZXa7ZDGhyfLY2Th6fFarEXCo7nvyNh1wwzEuBQt95YVrRER4OwDI2p1zgUwHsAAV19fWyJy5fHh27VUzXPmOTF5U1s+mjzfX28GPksDtfl76zfSW9qETq6o310tY5aIABK3oMMJBZUiEDlgfJYQ98ajUB5sQTT5Q+ffrIxRdfrJO7zQndGGAcdoQcds//ydu/eEtqQYHU1lUZ3oFGY0V4ABcnErAsdm3txligVwXnyD+GeWkqVqNDdZs/6SMWfKSaUfJDdwGA0FUNo4Eb+/UlUSoUBagj+8FZPBbW9gtzC1EhRIToWwqJsWY4Q8N79u7yGDNo3pigALApEOA8Odu6P/7QHT6aHOz4mSt4AFBe3BNbqCE5vCAfrY4R5Jb7TA5QeWYKY8HZIdyA2Neo35NlZWCmDNkaL2e8PUdMJ53bhu7KIW/BySefLHfddZf0799fXn/9dX3u16+fnH766a2voQCIyx6QOwcukc3hGVKDN9UgX9s0BQ0w0EZ3ER1jUvklF0i/ydvFdNPzVnsFrrzySpk4caL07dtXeva0QX/AAgque1aeHLtB9sdnSDXeAQPtqtFH0Q2dcxYkys+yeLXVWLAJJbCzIUXLSdbqtk7b7u9jCCieg0b8i79EyN74Qrv/hjUHxJMTmWWuIUG54GHbkzTHvivBiTXn3dxnmEsV1fWqO3LX5ACtQ4C3o6sbmSMYZ0AzXjSAlq3pg1wbIQDIkebqjlUSm1MhVB+ErIiqIgqXeJpIVUQ46aGfg+TeqX5y+bA9cvhTI81qgpY1rY3n66+/XoYPHy7Lly+X7777Th+ffPKJnHvuua2DAY579rVyxeujZdKeuEPrZZvshq4eJef5fQMMtDEWIPy6+jpZF5op93/3q5gue8BqMHDjjTfKypUr5a233mofGLjkHunz5RxZFpAoVTUUDanp1miXhQm9dqo4ktKF6BP56NY0jM+6UDMYoLhMfXPbI2sO5AafQeRm/K5UeWRGiCrbEffuzIbhhLn+9vJozRpAOAc+gysCgcb9hqscL8djs0JULdAakNr4+/b6G+MdkmHm0zwwLVjvF/rXnh4X7kXuKeYS8weSITLRpDv+6pshAzfEyG0jfhPTvQOsXi/xnOJJnTJlisyYMUNuuukmfVx77bVy3HHHtQ0GTjpfznpigHyyJlwqa0iXNHsH2qY72qvnXfs4BhhoY/zMfIEame+dIrd8PE1M599i9eTuMBg490a57r0JMt0jRiqqi6SGUEE3dn2xO0F8BZfkeytitH58Y9JSa0PJwrUhLE8JhJCmbN0htXZsV3wPpTviyEgVL/TNtKuhaK0/0AtAQOjj1bHqVh/SsGN1FhZ+a+fe1nvMRYrxPD03TL0uXGdnBwvg0rBrh4NBLQeqJYam2xcItNYPrJcV1TWyJzZHXvjpNzHd1t/q9RIwQIhg3LhxMnToUDnyyCP1cfjhh7cNBPAM9P67nHTv6/LSr0FSUV2o62WdkVnQ2nD96T0DDPypO/76H4wvRnjWgSS5/v1JYjrneqsnd4fBwFnXytVvjpZJuyOlvDpfauoqRSc3sLybNYwFLGaY8LiVN4XnNysu1FK3AAZIAyO3GtKTPUqztvRbrvA6u0TA0TNzw1RJjzr2xIwd2QACKNGhgX/bRHOZXDw79tyxOvL8rTm2xetCLj8EPHL2O6uVN3hcqFRJHB8hoqgs20MDHTlfsye1VryT8uTVaVvFdPOLVq+XFjAwdepUmT9/vtx///36wEOAZ6BNztUxJ8rf+rwkz80PkPKqfHOowAADVg+nAQba6CpyVjHCc7wS5aYPp5ira7UR97JM2g6DgXOul3++M1am7I2QsioEiLixYcm2HSNv47Jc6m1MVEZxtUz3SFexlAm7UrTMqy0XgQt6S0SeXPSDtyz0zfqTNKstx3Gnz0IQQ7YWqWLIe8SEHRU9wWV+ILFIhYTIy+f3kMh11O915TgBrAasNQOexf5ZCnYcC7NEMxiQHqagEemDpBEmF1Z2ugesvr5eamtrxDspV16dvk1Mt7zSthFvtJ7iGQAIBAYG6vO8efPk+++/V86AZV1t8fnYk+WEf70qzy8I+PN62en+ma6cfe3/bQMMtNF3CP7U1FbK0oBkueurOWK6+G6rJ3eHwcCFfeSWT36SeV6RUlqVI1U1ZVJXhyJh9wID7OqJRRIeePjnYEkpIFzSxsA1eRuZW44BGECNj2MaTZQp/uHqWDlnsKfsji10iIoeYwVH4PmF4XLDOD9VGKQ6nrs2wgXbowrksVmh6sVKLXCs94P+JWvAkj745YY4Kap0HLBrOm7cipwDnqXq2jopq6ySfXFZ8sqMXWK66/+sXi8x8oCBSZMmKW/g8ssvl8suu0zOO+88DRe0CAIsYOKEs+W0h9+Xt5cHSomul2aeFd4Ko7XdAwYYaKOPLGBgT1y6PD12nZiue9bqyd1hMPDPJ+XhkctkW1S0lFZlS1VtmdTVdz8wYCGb/XO0rxxIKNKiQ20M21/eBgz8FmUGA5SCdbZc8L+ccCe9wI59b1yh3DzOTwmF4YQLbEVarZwrh0JH/4nZ5lS0CbtT1atjx59o5de77i28LL/6ZekuHX4LNQUcZZIQFHpneYymZyI3DaGvs/qX+4hrC0kvk83h+TJ2R5K8uTRM7v3pgJz73TYxPTrMJo0BC2dgyJAhcthhh+mjV69e1nEGzrxKLn5pqAzfHiolldlKujZvnhzV8103vxzxywYYaKNXLWAgLjdH3lm4X3rc/YGYqDJoQaOtPAMG1qxZI4MGDRLSDEG5F1xwgTC52/x+z17S48635KXZOyQ8E6GQ7ukZYGEbtSNZ7pxsTj+DRNgeoA8YQD/+4h+8Za5XplXpiG1MDbd4m76kdsEczww5f4in9rW90uIgs0Gig11/37QgVbFDFtmeYMNZBwHvACl4hEPOHnxAyGAhLGPvFpBaokWH6F/IghQxspZUa8u5AC649xCqAnyQmTN+V4p6I7QI1k+BKnF839RAeXpOoLy3IlD+O8dbTnx1mpiOP91qnQHAwNixY3XNbHONbLr2XvwvufHz2bLEP1JKK1kvDc+ALWNsgIE2euuPBs5AQXm+jNweKqe9MEpMJ/+jbWNuMqnxnzVrlixatEhzZ4cNGyYfffSR9O7du+1Uw5POk1OfGybfbvCVzOJEjYGpZ0CVCLuHixvSIJoA6AmQEx+RVd7GaLX8Nsciv/7i4d5q+CqM+ucHOwsCH2VuX/o1QpCgRdCppJnKjwe/YMUfuKlxlVNWl2Oid5/QTYCApXsAQxQzuntqoIYM9sQV2s0jBQE2MLVU3lwaJf/+OViLdCEOZA+gxTEI4wAK/VNKZH1onkzbl67ABpGvvvPDtSoi3h70PqiK+N2mBMHrs8g3U7ZGZIt3YqbM946Vu4auEtMVD1ntHUBn4NNPP5V3333XqjX2IGA44mg5/NYX5fEp2yUoLU7KLJsnOFYO88lYRto9ng0w0MY4Ep+vrauU8ppCWRsSL/cPWyamfz4lJitkhlEgfOSRR+S1116TV155RV5++WV58skn5aijjmrd7cWxr35M/jXoF1nsFyqF5SlSVp2nBML6biQ8xA6EvG0WnWUB2R1inQMGdscVyiXDvWWWZ4ZDYuNtTCWnfhvPCWmbd00O1MXdM7G43TvM/PJa2RieJy/9GqlFhyB+sqO0h6Fy6k5s5uTILiCVlfLa32xMUI5GezxbjQ8NyIAsiBEGaFCtExVOW/sX5zlufopWYfgRKdoWWaAE2zE7U5SMiBbEC79EaLokHoBXFkXK+ytjZNCWRBUbWh2co3UO4nMr1MNUUQ3Hqkaqa0slPDNDvl65X3o9OlhMRxxr1Zp52mmnCR5VtAUOGvqmHoDm/n/aZXJ2vyHy5To/yS5JkvIq83pZ94cBBhrPndb+NsBAa72jFd8AA9UqYhGZlSbfrfGU454ZIaa/nWE12rVpUpt6qFut91OD5LNluyQwNUqKKtKkvLpAiYxkN5jFQ9s4cRd/m5grqmakaKFOl1vaMRcrYIDYOGBg5oEMIc3NaId6wGIYKB9MmdvhvyWp5v6hT1j3F5Xy1oflqSwvwOKnfWnqHneE69q6M+raT+Fex8tC3j/9iocktwPhAlz1viklmp4JwCA0QMptW0CA/q+srdeMkfSiavWykd2xPixXqEMw8rdkrVuABw7iI9LCPFONEWIiEsNLArI1IwSBIUIezfFuIOvV/1Er1XXlkl+WK2uCouSCz1dKj/NuFtPhR9tm4Jsz+s29dsQxctjN/5N/j1gqq4LCpKg8TSpYLy2p2IZnwKqbwAADbXQTk7u2vkaZ/MUVObIhLEbuGr5eet7Yz1yS0woPgdVggGMdfpT0vKGv3D5khSwLCJLckngpqciUipribqO3zcK1JTJf/jUlUKhgx+LX0QYY8IgvUjDAgkyxFqP9tQeIOb/0S4QWqGHxt0UVkF0wsWS0IBg7ZGrZxXZ0J/zXs3S9V4jtP9pQKnhzBJohtpPa6EtU/tARuHyEt0AWZEffFAhw/2ComeMAj5RC6guUy964Ii3SNXVvmmog9J0fpjUqbpsQILdNDJCHfg6WVxdHydBtiVrum8qGCXkVGjKwFsyZ5dvN6djl1YUSnpEiHy/3lGP+O1J6nHKB1Xwr69fMXipDfNZr42XwJm9JyIuTkspMqay2rJdGOWNr7xYDDLTRU2YRjTqprq3U3XlyfqrM3h8sJ76/THqec525NCe7+eYQq02vmYFAjzOulBPe/kUm7/KSmOxIKSxLlrLKXM0kAJS4e/yLRSe/rEZJZ8SacUPaQyCIxZed0KUjvFWvgEIsRmu+B1YF5agyIamAMTnW8TRU4TE0V/4zI0RDDew2m9s5Nv+L7v8q68hsz3ShdsF7K6IlycbaBRh8/9RS+XCVufrgNxvjVaeB13kwvy0AILukWlMNt0UVaKz/g5UxWp6YbBxIolTuBAAQ76dmwbKAHAXcpEBWdRC8mcFAgze1ukQKy7LELylWrhu1V466/SX7elR79BTTsafI4Y9+J6/N3S67Y8PNIdWqXHMatvIFuge/yh53kAEG2uhFCxigClZldYmUVGRLeGaCfLXOW45/fY70+MctDYDgUOWtdgGDw4+WHudeJ0e/Mks+WbFP/JJDJbc0XooriG8XHgwRuDsYIDwwakeSFhSaui/NZnGhloaTxdIrqVjBADtWdrFGa74H6BvcxndMDNA4d1veAe6RtSG56g1gd4moU3ElOzKjNe4BXOtfrY/Xan8jfkuySfgKjsBby6JUwnnQ5kTJK61WAEAmSERmmWyLzJfJe9O0WNAD04Pl6lG+eg9d9aOvjgvk0OHbk9UzQIYHMX5AN+EywgfcHwBxe4wZR0EcDZG08qoCySpOlZVBYXLl9xvkiFtfNAMCmzZKzaytPXopEDA98IXcN2ajrAoKlMwivAIZUlmDdHtlt5ZubzzvrP3bAANW9JQCgrpaqa6pUMOcX5YuganRMmDlATnrjZ+k59WPium4U61On/kzWOihmto9r3xITn11svzf0j1yICFIMoqiG6HcUg1VcB7u3HBrUgntouFe8vayKN3d2EuqFu8CLtbLRvgIIMOdRW86OkeIcweklsoHq2KVAIhscVNXtOU3SqpqBU8COvhkDizxz1YimZtPVcvl2/SMsaW8MYx8Skhvici36vu+ySXSf0mU3DDWT/otDNfwC8x9xKKemRcud08NUuDG8+OzQrVSIWADPQ1CEoTZiPOj4gnYJtzAfeWoMfqTd6CmRHP+UwsTZfb+QLll0HI56p53xXTaZe0PGRxxtJjOukYOf/grBQJL/fwlPrfRenlQj8W910urJo8NHzLAgBWdhRFGbwAiIbmrSAPnlaWId1KkfLvOQ274Yo4ce9+7ZqniY060ijWr2QhHnyCmc2+Qnne+Iae8PlUen75ZPBKCJL0oUvLLEqWkMksqlSuA4p57x74wNqioUQ/+6lE+si0qv8PpbY2HlsUP8SLAwJS9abooNn7f+PvPPcCOkZLPxLmfnhOmsenGwAxDklNarfnzEAVJ/1wemG0W1zHW4D93ZqP/QSZc5J+t/Qo5L73oz1kW3Ad8huyLoPRSWRGUIy8ujJCzB3vKyQM95Loxfg3kvhB5Zl6YvLM8WlP+Ju5OlcV+2fJbdIGGExLyKpV0yzg2HrdGp+LQPy3egZq6CqmoKZTiygyJy4mTWfv95b6RK+SYJ74V0xUPi+lvZ4qpF7otVoRaISCecqEcdu2TcuZLo+R/0zfL8gB/icthvUzS9VK5VbWVul67++bJ3gNogAEre/QQIKhScgoKVwVlyRKQEilTdvvKs5PXyiWvj5Jj73pNTBf9S0ynXWoW28DgH3mc+cHfx50mplMvEdNFd8mxfV6Ri14bKXcMXSr3TN4oT8/dIMHpwZJT0hAeqCpoVJfbvWNfkJxY0Ihrjt6RrMQne+5cWBAhcV020kcm70nVeKuVQ99tP2YZE4rejNuVosYfO8+4YMQo+PTYzBDlF6wIzFHjY88xc9eOR9MBIS12+pThjsouVyCMLgN9SlofJMGXf41UFz+ufmL8FJUiK8GS1rcqOFdFneB1wBPA8FtL9HN036p3QOpVMbWqtlxTo8mKCkqLkreW7pILBi6Xi96fJic/8pH0uOoRMZ31TzGdeI6Yjj1JTEexXvYW01HHi+nYk8V00nm6aTri+qfk9Ke+kD7fzpUvVu2VLRGBklIQKXmlCQ3h1Ib1skGLxQADto2yAQZs6C8mlzkWVqklhdm5F5YnSXJ+tGyJCJEhm7zkv1M3y3Wf/CznPfeNnHz/G3Lcrc/KsTc8ro/jbnlGTr6vv5zb9yu59uNp8tSUDfL9xv0y29NLhm7bIf+aslrG7TogyfnJUlqZpySY2jqKudS7NXGQRWxVcI48PitE/js3THdF9t7NcDzyqCniMnFPqpACZ7TWe4Bdakh6qRolihltj8pXrgVAYL53puaewxFYHZxr5ggYHoFmO5RugdxHaIq+C80oU1c/HrArfvSRL9bFy4A1cZrDj4eFEMKlw73liE/3yEU/eClpcL5PpqbGYvjhCbgCOfNguKDW7FEtqcyVTeHh8sLC7fLU7C0yaPMBeX3hLrlj0CK55NVhcvp/3pe/3fm8HHvjk3LMDY9J75uelBP6vCBnPP6RXPbmaLl/+FJ5f8kumePpK8FpIZJTEiV5ZQCBdK1SSO0WXS/ryWAxJmOzk7GVFw0w0ErnNPcWIkTUB6iuNbu/ShUQJEteWZyiVM/EYJnt6SdfrPeWFxbsk/9M3ib3j9mgj0cmb5Xn5++Rz9Z5ycwDvuKRECCJ+SGSVRwue+KC5LXFO+TGcVvl9+hEKSgr1rAEVcDceWKb49MlDfXXAzQ1rbl+7+hrgAHCEIAB4q2OkIbt6Dk64/fhcSBGhIwzYjOoOCJdjBDUIzMAAjkt8gmc8XocfU7szMmssKT1kfpHvQfUB1F2JK2PioII+Fwzykf+/u1+OfqzPUoMJMf/83VxB+8FmP+w/RPzKxxeXtpx/dIQYq2tkrTCfPlotY88Put3mbrXS1ILIiUiM1RWB/vL8O3e8taS/fLk9N/lgXEb5b4x6+Xf4zfJ0zN2yrvLD8joHT6yKcxfIrOCdb3MLY2W/PIkKYJgXZVv3jjVVou7r5eOGycRAwy0o3cVENQ1AILqIi0ihAuMOH9uaYxkl0RIZnGYJOWHSFhmsPinBol/SqCEpgdKYl6wZBYDAEL1czqpy+IlozhJNkfEyIXDfpPXFwdKSHqh1Ki7C6KP+6Lc4opaVVDrMzlAY59tMdfbMVz6FcBAWGaZXDHSRzXVOypi1N7zcMXvsaNF3IZd6hOzQ+TOSQEat0awph40100btyXeE9QbIeUR688orpKQjFL1oqB0ibsf3sVN4/zlkh+8dcdPCWfi/Z+sidU0w5O/8VDXf0RmuXgnFcsHq2Lk8pHe8v3mRGX8u3oXq0e1rk6WBqRKn0ke8tlafwnLSJTCCvMmKrskUrJKwiStMESisoIkMDVQ/FICJTAtUGJygiW9KESySlgvwyWnFG9AvH6XjRhibFU15VJrAIEO34UGGGhHFzK5cd3X1dVqyl9VTYmiU3PYgHg0qT+xklMara4s82SPlOziSOFvXgc05DOpy1OkpCJDSitzFTmP3REr5w7eK1P2pkhGUZVbAwG6fkVgtjwwLUhd0dbmtLdjyHTRRngFMECcFler0azrAQwe7m1CBUd/vle9Apsj8mwSJLLul1znU4BLmPnR2eWyK7ZQlQWJ5xM2Ia3v/KGeCp7Mhj9cjT0iTprWl1chhRU1KomdXVotj880AyxEhMgagCQI+AKEuToQYETxluSVVcuD06jR4C/rw1I1K4v6Abj4C8qT1LPKxkjXyuJIySqOkKwS1ssoBQCH1stkXS/LqvKkqrZEICgaoQH73DcGGOhAP+IhsGQZVNeUS0V1sZRV5ktpZbYSWooqUqWwPFl5BXALzI9kKaxIlaKKdGW/MqkrqovUzVVZUynJu8sx5AAAIABJREFU+eXy1JwQNZDEYl0hNtjeLozJqZD/LQiXJ2eHCgQ0R3kFOD8MGrKtxGghaLEIG63tHmD3C79iwq4UuWCopxz52R4Vq9kXX9T2l93gE1w/bn/mCzt3eBPTPNJlwNo4dfXfPSVQd/13TDIr+FFLAwU/KmNuCs/TDBaY/ZmN0vrI6bc4+wAVO2MK5LYJ/nLOYE8lDJIWmFLARsANOlBE+STIGV/5o7f8tC9VMorKVQeAzCxkg9kIoRqId7WwIuWv62V5ir7HZ8jkqqgpMouw1ZGJUWuEBuw0TQww0MGOPOglqMdLUCWAgsqaEp2wxLIw9kzgg4/qPCmvzpfKmkL9HJUIa+qqzOhWKyTWy+bwPLlnapDmC3slFnfwDJ3v66xxKJ0hnsJiSvYAOdCObICB6JxyufJHH2VyU4PdaK33ADu6lIJKzfKA+f76kkg1gNSL+PH3ZLfTauBeRvufuQjJDyEf6liwY6c6IDoKuPzR7cfNj1Q2JYo1rc8/S36PIq2vROLzKiS7tEZ5Axj+1hrzEk7G9WP85LABe1QnYHdsodNkBbR27ta8R/iEolfXjPKVN5ZEaRXEmjqyHkh5rJbqugqprCnTFGrE1cqq86WsOlfKDz7M62VFNetlsVTrelmpfKq6esqZuzenypo+ttdnDDBgp55sDAqY5LX1VVJTW6FEQ5S4mMTmZ1Axri3LhMYVyM1hTh2EgYsCHAVj/k2Rnm2J6qK102k6xWFQPNsakS+3TwxQshSiKo5OiWLRRXgFMIAhY6dmtJZ7gP6iTgGGjjoDkNsQhPotqkBeXRSpoQLqELiqG5sdOfdZWgO7H4P8i2+meo0+Xxevxh8dALJbIPuhf/Hhqhgl9OEZIPsF7whpgQBLCIP0mS2NMtq+ycUaGiCD4JrRviobPM8r06FeMlvOsSOfxbPBHII3QYGwdSG5B/U9LJkGGHTc/Lpe1lU2WS8ta2aFehJYVyFv443VDCsUE93FfdKRjrbTdw0wYKeO5DBMcAsoMBt4FggetY0edQ2TudGEbkYENCS97GD53sX+thWMseMl2f1Q7JTgBrDAsgCuD83VhdTuP9TkgCzU7NjI2UZq19GeiCY/71L/pa8Yowm7UuWh6cEaytkXX6i7ZsJWyA0/PjtEDSR96swNWwHBD8PPmEdml2vcHiAz60CGjGio1vfaYnb+oQpynp4bJsj3Uq0P4Mj1wguwGH52ux0Fr2VVdapGSIlgigQxJ9FywONA6AyBLFdvlEZeGpCt5ZsHrInVTU1j2936eglAqFFeloYCEF1TL4DhCXDUvDDAgAN6Vid5AzAAHFgAguVvfTZDhxZ/HZY2cXRSuJAghQnv6o2FgAWZsrZnDzqgu052Zp3RMHCJDWCAmCyEOKP9tQfoJyrVwat4cFqw9FsQrgWeeN3SCB38sD1JPTukaQIQGi/yls919jMGGt6JJa2PYkBhGaT1FamS30/70tWtj5gPBZUoKYzX4+EZIfLq4kgZuCle5nhlHjT8ZJzAF7B3Q1cDWeKPtOiQjwzfniQIEVFhcNKeVA2dsZsuKK9xin5tz/UzXwgPwKG4Zby/hGaUttiXLa2Xf979M/8OzcH2nJPxndZ7wAADrfdPl74Lm3j8rlTdOXy5IV53Zs6w6La3U8pr6jUOS/wZ0iAuxI7usKw9F34nOb9Srhrlq4ass0CItefnDJ/D3mcWV2n/UKToxV8ixTu5+R0qCz1GlQwDhIk6m+jKfYCrn9/FuMLsB+ChJYGS3zzvDPla8/nDtb7C1T/6qBQ1RD08AF+sj1ft/r3xRToPudcA6Y5unC88IDIP0LwYujVRQYAFa4Vnlsmna+M0xo4cNF4IV2wQLsnagQvBc2Mw6YrX0x3O2QADTjzKLE3sbD5eE6t5xxQd6exF157dE5hWqrFY8tV9koulshMXOsBAamGlpn3Bx0D73WiHegA7iCud0rgo4729LFrJcBYjdeiT5r8qqus0xAMHA7c2hrgTbKn+OL9TWlWrlfeI28/1ypBP1sTJIzNC1Iie8f1+OW+Ip6boPTknVEV+Fvpkyf6EYv0O14kHAQPFvOB4jocByDj/oToCry+O0vPEuwKQadxvluwC+EI3jfeXhNyKLqkt0HS8bfk/10nxKkSpCLngYemM/rXlHI3P/rUHDDDw1z5xqlcwmLCaH/45WN2asTmQaVzv1sosqdaY6I3j/DRO23QRdHSns+hjsMgBZzeWUljp6J90meNjFBHLgThHbQh2pgrWWnGRY8BQ1yMT5JSBHjLHK8Mh2g1Um0Qtkng9KXiw+1Hpg3OCUBVeJtzQhDRe+iVCvt+cIHO9zWl9/ilmZj8EP3b+7LIbp/V15gBhIA8kFKnkMBk0PypvpXkAxfUu9s8SFAiRKqafXemOZ416b0WMPDAtWEOdhlegM2da+3/LAAPt77tO+yaLGXnL7KhJcyJm23g30Wkn0s4fYgGGSER5VRjahAc6+/wBA7jASXFC4pUF1mgiGFuEc5DIBQh8tT5eSz2TYtdWI55OiAChHYSjkComU6Q9DWOHsWau4yqH3T/bM0ONOyV/ce3zOw//HKI8GmLR326Ml0lU6yOtL7pAC1HF51YoKEENsKbOObgMAAHEhgircP6jd6Soh4I52VzDeELMBPRQJOpXvyyXkc/G40IGCp4NQpsUUDKaa/SAAQZcYJxwHZIWhzY8O6FlAdkuVWgHZjR52uRn4z7sip0CCy8LE+lbVH2DXNbdGws3xZvIlWd3jUeA3XR5tfUGHVb8muAc5Q5gvEIyytoEeow/JD/IpBFZZbrjx+BBWuQYGPp+CyMUAMCuh9wHs3/w1kQV/EHjf29ckYpI4dHA7Y/hd8aGZw+J4VcWRSqYGbPDXKWwJSBguQa+x31zz0+BKvIE0HIEmdHye/Z69koq1nHDS4MnpwW8Y6+fM45jxx4wwIAdO9ORh2LXBGkLpTMWFohPpEw5e0O9bui2JA1z4J7vqgJBxL5zS6t19/vdZoq/dG8wABBAIAdPE25rCG3syG3lpNCvxO+pugc7f9q+tIPhAmYnQLaksk51HXD1s0PWtD7PDCUqAkCQ4MXos/vH/f/yIrPxJ91ugU+m7vrJpsHwAyLaMqTOck9wrlxv/8VR0mcy4lopKnxl7fnjZcE7Aulx4MYEicgqd1rjitEvqapVYiZeomkeaW4nSuUs88pR52GAAUf1rAOOy0I9ZW+ayp+iXa7udgf8jr0OyQ4QHQFchqi1dWXuNEYrv6xGwQA74YRuDAYAkXgEvtmYIHdPDVIggDS0tUaqufkRkFqiBL7/zQ9XQR7AFl4CqvWRIktaH8CDXT/pshiMe38K0u8gYvTNpgSZeSBdMwHwFhAuYL676s7SAgTw5pE1MGpHsgJQW/qYay+oqJH3Nf4epCm5BRW1zXV/l7/GWBGquXm8vxKeyeowmmv1gAEGXGi8WBwKy2tV7AXBHkRTrIntdsUlsuhB2INNTKwXg8AusauaZWH952g/3WWRS98dG2PADv3j1bFy20R/fSbObkujLzkOO1eMHt4fMjXY5ZPCx3iTlfDCLxGax0/hHWLfiOs8PSdMvQgz9qcfzOfn+3AX3KXh4ocsiBGnMBa6Fjml1e0GNoQZAFB4T0ib7IowW2tjU9dwrz8zN1z6TArQmgx4nozmWj1ggAHXGi89WwRLWHCRSiV26owNkIKYysU/eKmQSleXDMaAUS752jF+uiO21QA6Yx/bek5gMfQVXl4UocYZg20rkRIyHDwBvkfYapFflny5Pl5FfC4d7i29v9grPT7ZrRkGD0wP0jK95PzvjS9UUlxJJfLb7mP4m44B/YOOAPLFAIGRvyV12MNBf806kK7ACs8KdQ+cqaE0COfjhK/2KaGTTYDRXK8HDDDgemMmaJqj4nf/tCAlFTobY5e0QdzD1G9/b3mMoC/Q1bsZ7A+GCDAAcx5CZndqZHRwzc8vDJfrxyLJnKSSw615a3iPlDzCUcS+53lnKkP8uQXhcteUQA25sOu/a3KAEB74emOClt5F0Q8xoiX+WcofgOBnSetzdyCAbDNZA/QPHAHuTXtgn/Tiag2zwBlCIrmr7yfLvcMcob4CaZ5sUMgucScvj+U6u8OzAQZcdJRJPcKoUd1w8p5Up1kcWKQgosEGv2mcv2okkObV1Y0FGZACGGAnSy50d2m4rckSgHhKNgqKcJRztrhy2afDxs8prVGCGzr8GH5SMN9cGq0uaoAn1QofmxWihYq+Jq1vT6os9suSndEFCviYk2RpEPvn8xDnABNdGB3qtCHGIwAQgEVP+iB9DG/CHkCAi8Do7kso0qwcCJ+7Ygq6NOxm6ViAIvyli3/wVq5IUaVzchos52s8t9wDBhhouW+c+h0Whx0xhbowQ9AjRslrXd1SCqu0wM2lI7w13xgimL0WxI5cGz2DR4WdLOI6lDPuDg0ARObJO8uj5aZxfkJdeciDiC4BCHbHFaqrn7Q+Yv4U7HlufrjG9p+ZG6bzCwVMFvzpVOsLylGvD4APdzCLvwr5NOpMihyRBnj9GF8VI4JX4M4N8tyBxCIFAqggUnAIsGlvLwjACm8L5EuqSHKvdeU9z7iS5nzv1CBBC4J73Vk8Fu483xx1bQYYcFTPdsJxIV6ResVOgcWexbkrb0YWB/TUWRAhO0HSw1A4Q+MsWLSvG+unJVUh0bl7wyND2WEyOeBu/GdGsEzdm6a5+kjhYvyJQT87L1zT+gABeA8+WR2nVfTwDkBYC80oU64BKYLWGB88DsgEMwcIIaBmSJjAHRtz3kOVBSPUSwcQAAzZGwhY+o5iW4QJyFAgVNgRYqLlmO15BuAzrpAkKfa0K9Y5PBXtuRbjO+YeMMCAi8+E2JxyGbQ5UeuF/+KbpczurjC/LH6+KSXywapY1ULYFJHnNEDAMsS4wollD1gbp4x6y+uu/szCDOgqra5THQdN60svk9XBuWrcT/tuv1aJ/O/cUFWBJLZrdvmH6vuEm9j1b43MV8OfUVSlWSodcTShJ7HEP1suGOolAzcltKq456r9DxAA9LyzLFquGeVzMDTgKCBAPwHGSNtDj+HWCf7yW1SBZnR0dh+yEcGbRHooKaOuIIjU2X3kar9ngAFXG7Em58viEJhaorn8d04MUKIXMeLObpRfRSTmzskBujg4oyIcXhPAAEVtcJG7YsPwM+ak9bFTJ0sDZr+5Wl++AAhRWOw7P1wJfucM9pSLfvCW2yYECEV7UPJjR7ktqkC5HVSXs3AH7NkfnCeeKkt1PuSoCyuciwXfkeulUBNA4N3l0XLFjz4yZkeyusnhDji6AULI6SdOT/8S9ulMjyBgB+BINhOgxB3Kqzt6zFzh+AYYcIVRauMcWRy2RuTL6d/tl0+7wNCx/C0PzNHdJhXsnFXdj4UaAh059uFZZW30qnO8Td9iX1iAAQGkbGL8cdFiYCnMQ2yf6zpvsKem9P3tq31y+IA9cuEwL83pRxY2Jrtc4/udYKsOdhzny1wAgD09N1S5Bp1hLA+egIP+YCzIrkAsifRBJIYra+o6tZgQXBAUPQn/QCAmXNBZjXLRgCAUJ0l5dIcx7ay+c+bfMcCAM4+OlefGAp9fXitfb0hQ7f2f96d3quwvhW5eWBghj84MEXTjMQLO2jCa7I4hwDlzY4FF3pUYMeRQ8ri/25Sg5D6kbTFClBq+faK/PD0nVHkQsPuHbU2UcwcfkGtH+6rrn1LNeIoII3T2sDAL8DrM985UsKLhAhcXe2JcSJuFwHfnpAAZtzPFHJrr5CkPIMkoqlaiJwRiiHydldKHRDKphF+sj5dUQ1PAmZcRm87NAAM2dZfzfhg3IaQ4KgM+OTtU9d87wyhjaJD3hVEMsQm3szM3GPUfroqVsAznAQMYamKwMNA94ovU1W9O64vS8aRv750aqMRMVP1IjcTwE5OHIIibmMdiv2y5fWKAAoS5XhkCEOhM93Fz446NhGX+7opo9RyhPOiqZEKAwO7YAq28SUnxCbtSNCujM70tjfuYsd0YnqchQoigFAlyZAOAkEpIwbF+C8I1VNAZa4wjr8k49qEeMMDAob5w+b+4MSnnCjmMWCJiP45s/N760DwtwvLBqhglELJgOHOjOh/nCkO+sxvGBHcyLl1qARBzXhKQrcSzz9aR1hepMVhi+wC6V36N1JDG0K1JMt0jTfO42ZUSo0VJEHctGRKQ9daH5SlP4M5JgQIQSHMCIGDpX6YEefFkF1DCmgp8rtYgyO2NK1QP2H9mhMiE3eYyxIxpV7aC8hqVO4YU+v3mRIeVDOYqUZ4csjVJiYtT96UpyOvKazd+2749YIAB+/Znlx+NnTkVzti5sFNnx+mIxm42Pq9S09JIJSSlkDimszcY2ICBkHTHggFAEfF9hHxQ/kO6V6v1HUhXmWZIjOzmIPpBxIJr0X9JpBZ5Qct+rlem8kBUE6CgSsV7miNlAgTIGnjp10ihXsXMAxlKKqzv7JhAGwMPr2Xy3lT1bpDN4UqStZasAUIDiCkBBBhTZwG+Qeml6nnhPkQeusYBY19eU69eK8Js8AWoeOks19/G1DPetrIHDDBgZUe50sdUG31RpDw2M0R3jPZ2FbMZwvU7cXeqoEc/cU+quqRdoY9wo+M1sWdVNTwkACEMM4Q5jr07tlBWBGULOyhc/iygz84PVxcrizbhnFcXR6qKJOx+3L14cnDtUxLYmh0nPJFVwTkav8YbBFeE8+jizWqL04AMDrQNSEeDRwCgdPaGhDXeGIDbjWP9FAgk5jsPEKD/mH9rQnK0KBjAEq+XPecA6wfqkoDof47ylQ1heZrJ4uxjZ5yfbT1ggAHb+sslPs0Okh0Csqj9FkQo+9yeiwMGh9Sma0b5Sr+F4Vpn3VV2CWi7I5TCjtvWRh+y8MKTQG+fgjGa1pdWqvnev/pmycjfk+Xt5dFq9CGYsZPiGbc/iynAaVN4ni7YmcXVUlXTvjK9CArhjaEK4IPTgmSWZ4aU1zi3Z4YN65YIc0oapDfEeehPZ23Mc0IDby+LlitH+sj4XSmSWVxlFVDr7GsCiCIoRRgM3QiUIe3VtYSjVgRmy3lDPNXrSIjKaO7XAwYYcL8x1SuiQAr66JSOpXogseWWGssxho7Fgwd/t7RE8x6G9I0lUXLeUE+VYXUlQhhMfMCANXwKc5+YU/pgxWOALWl9yPIO/y1ZY+B4Gy76wUvOHeypynC4699cGiWT9qTJ71EFEpFZrl4De+yEGRcMKJ6EuyYHamgAbQGkll2hYaRQNiQbYsCaWCksr7HrLtZefUAfw+kgfdAMBFKlTD029voF+x+HDJkBa+LkH0M9ZXtUfqthu+bu+ebOCJBPlVTSV/852ldJrp2VtdDc+RivOa4HDDDguL7t0iNzEweklsh7K6LlshHeurA1Z7T5HCls1KNHPpgHCnTESXFV869xYzc7YXeqOb96Z7I5d73xB5z8b6RT31sRIwGpLXsGuG7i/ej3o6q4IihHtfmp+EdKFcaB8AiZCVToIzth2r503fHT5ykFlSqww84SEIZhsdcuDYME9wCPA0Q2UjnRrAe4uELjPMl6+Wp9vJw16ID2GeJJztQYf4o1QXa8baK/hsMof+3sfcxcow4FcxzxL4imTT0v3M/c83CJqG2A+5/0VTwekFvZBjS+5/ECUM8C8DYH75ML8IKcaS650rkYYMCVRsvGc8Wgb4nM13Qz3NQswiwOuLjZ3S/0yRJq2r+8IEgen7RXHhq7Qx9PTvWQ138JUSU7shPQEWARgFGNuBAx777zwnWXbG8+go2XaPPH754SdJAAxZc5f4xpQl6lpmaRrvfDtiTd2T8+O1QzJdiBPzA9SEl+n62NUzBkSeujZCvfJWRQXGk2/o7qE9QGF/tnKxB4Ynaohgl4zdmNVNNBApSSQonBQpsCYOYsu02AAOmaEDph6JPCCdnRFfoYPEi4gBAhXipSfuMbiI5kHXgnFyuv5NN1cfLCHH95bOIeeWjs7/LwuJ3y9LQD8vaScKFmxbrQHEnIr9ANAbwXTSVcGKGAASBhNPfsAQMMuOe46lVx32YUVyuJ7R9DvRTh/+qbKcM2x8ozk3fK9R/NlPP++7WcdE9/6X3T03LMdY/JMdc9Lsfd8qz8/f635B/PfSc3Dpgrz//sIaN/S5A5Xuny+pJI+ff0IFkbmit1LrYwwKVg10RBHsrsAmzG70pVwR5q0EO+wsiS2gdzHHGioduSZFqjtD7IWZD8CipqlTvQWV2AQYJ0B1GQxRnvAEDAXh6HzrwNLEaLjAm8VhggjFZXN+YHKZDk0D86K0SBQGKe/coQd8b1AUQJZb2/MkZum+AvU/amKTj4Zm2kPDZ2q1z9zmQ564lP5cS7XpHeNz6l9/yx1z8ux9/2nJz64Lty0fND5PavF0v/eT4yZEuc9J0fJg9yv4fkGtkDnTGAXfgbBhjows7vjJ8mTs3OnsqGt433kdsHr5cLX/5Rjrn9RTFdcLuYTrlATL1PEdORx4npiGPNj6OOF9Nxp4np7xeL6cI75di7+sulb0yQmwZvlpvGeMkHK6Mlt8x5xYUwkOw+qZeASApiLOtDc2WWZ7oWdLryRx95bFaI7v4saX2wxQesjVUC4FzvTNkcka/pUyys7KowFJ1l+BvPCwwn4QpU356aE6pgBSCAd6crzqfxuXXkb4wWAAdtBTgWi/2y1EPTkWN25Lt40cgaAAhAbkTiFxe6K/Yx4QJKKlNCus94L7n9u5Vydt/BcuRNfcV07o1iOvFcMR17csM9f4z5nj/6b2I6/nQxnXaZmC69X/52/7ty/htT5ezPN8pjM4MlLKO0IYBgeAY6Ms+c+bsGGHDm0bHDuUEs80sulkem+shxL00X062viOnMq8V01HFiMvUQk8nU9uPoE8R07g1i6vOOnPn2PHlnUaBEZJVK3R/1f4ov2uF0bT4ERoUQBu5RZfanl2q8l10/KXuDtybqLglvAKmWpwz0UM1+wiawrsl9x8tBrD+poFI5EE3jrDaflJ2+wLKLeBBeDLIGnpoTJquDczQlzx2WZPqZFMx7pgbJW0ujtRSwo0IsrQ0JwGp3XKFWcESHgtAAKaKuCAQ4Z+4HsiBuGLZDjuo7XkzX9xXTqZeI6Yhj2r7XWQ969DRvEC7qI0c88KncNHCVTN+TJGlFFVJb3/X3fGtjabzX/h4wwED7+87pv0kKXFBasXyyLFiOe36y9Lj4X2LCsFsLApoChd5/lx7XPC4XvDNDvl4bLkkFcBA6Z3HA+GEoLGl96BxAdiQr4LfoAiGtj4IxZApg6O+eGqjkL7IHcPu/tzxasysgQgEMtkTkqaIaMWJnbJwVSoXI9yIg9fTcMHXVOkts3V59BiAY8VuyZkagx5BR3Llpa3gEAAJvLI1SktzkPWkaWnPSadFmt0Na9UoslGd+9pbjnxoipvNuFtORva0DAU3vd0DBiefI4Tc/L5d+skSm7mF8KqWmk+75Ni/W+IBde8AAA3btTuc5GESf8MxS+WxlqBzVb4qYTr1UTL2OaN+i0HiROPxo6XHhnXL6W3Nk4MYYySmtlLr6ltMW29sjnD+GgpQ+XP7kOlvS+taF5GrJ2P6Lo1Szn/RJ0qkuH+EjEARx+ZNWuTGMfP5SFUiqrTOf48MzguWtZdEO13Fv73XzPQwRizoSxOSNI+MLEbQrds0duQ5rvwsHgxS+B6YFy0LfrE67TgixeCZeIX3wRx8BCJA+6pzwsO3eJCQYkFos/53hI70eGyqmk88TU8/DOn7PH32C9LryITn94zUy1zNFckqrpN4JvIJt94jxCVt6wAADtvSWy3z2D91VTtiZKKf0nyk9zrzSPouCgoIeGmPsdcFtcupHa2SZX6rkl5kXB3t0DwsxAIB4cmBqqawJzpUR25NUbpe0vkuGe6vhv2a0rzwwLUjeWR6tqV+bwnM1xk8qFG5fAER13R9qWBqT7MiEQAMAeWBnbFw/wGfKnjS5fKS3EhkpQVzZik6EM16HLecE8EPV7rFZoUrijOiEipJ4hOhXsgZuHu+v/V3qxOqN1vQnIk7frgmTI58dJ6a/nSGmXnYAAtzzPXqoR7HXVQ/Lxd9uk9+jcqS8usbgEFgzKC70GQMMuNBgWXuq7CCXB2ZLn+9XSa/rnhbTYUd2fHfQ2DvA4nDsyXLYjc/JnaN2iWdinlTVmhcHa8+Rz7Ego3HAjt83uVhz5kf+lqzxYwwDRXcQ9EG+FqIf7H40Dpb4Z+lCTlpfUn6l6v+zo8Ngcu2t7exIZcMlfMAJwQBGEb0HlO5g2SPsxM6Va3P3Rt77uF0pSnT9fF28grnWxrEj/UE/I8pDuAiyIIx7wk6O+r2OnKu130UHYe6BVLnow1/EdP6t9gMClvuekMGxJ8kRD34mr8w+IH4phVL/h1mLxNpzND7n3D1ggAHnHh+bzw4Di3b6R0sC5PhHvxLT8WfYFwhYFoeeh0mPE86SY/uOlVFbQiUxv1Tq61teHHBhFpSb8/l9kkvU8GP0qNZHWh9xfQw1IACJYwz/sG1JmhcNaQ4xFUtaH4aDnX973OYcHyO7P6HI5r515BcwUBS/GbMzRUsQ4zaHBIaXozs0vDdoX5DRAQCk5oI9FBub9h2hJzgmFIhiLiDhCxh1VY6A5fq8Eovklem75PB/vdt+joDl3m7puWcvMZ1+uZz11myZ5REvBeUVUg9/wNU7z9KJ3fzZAANuNgG4MVcGZctdA5eI6YqHzMzglm7ujr6OG/KaJ+SBUZtkR0y21NRWS12dWXgHdj+7dgw/LmC08xHz+Xh1rBDrZ1f29NxQrZ3wxtJoLWCDV4Dcc7T7/VJKhBxvjgNp0F7rDToCcAo8nAgMAAQis8tl9I5k3akSw+b8YIV3p8b1WsIFjBPgyJ6AALLgrphCeW5BuApn4RFAMMpec6urxqq6tk6m70uRy96ZJqazr3cM+LesFb0Ol553/9//t3cd4FFfImiYAAAgAElEQVRUXXRCSEjoSFdAqgXpqAFFBEUBFUSK2FCwIfIrVZCiotI7UqUjHUF6F0INJCEhvffedpPtNZz/u2+yMQkh2fTd7Jt882XbzLx3XzvvlnPx5fZr8IyVwGA0L6lWVcmGP9d8CXAwYL6srOKXOqMRs06GocXIeRAaty12YqhZsyZat26Nhg0bgl5TqGH9+vXxxBNPsP9Fhh6SuaDhE2g8fiOWXgzCnag0XAlNZyYKmmjJO/y7o+GM1pU8/GmCH7MrgMWWU1gfhXBR+l33WDkL5SLNQUV7y5MG4vODIYye2RIalFINEzMkJTgifwbKZEjsfKXRelhCfcpaBvIVoUyPZCYhJ1Civy7rYk3qf8qJQMyCRDFMESb0DAKrZb13Wetb1usJ/MdL1Zi83wu1Bk0RuQNMC3cx/2mcd+rUCS+88AL69OmDrl27olmzZqhRo0bR80a7vugxfSf+8oiDzqBlGsGy1oNfX/US4GCg6tug3EpAE0OqXIMRm91R44UPIdg7FD2ocxb+b775Bi+//DIaNGiAevXqoX///vjkk0/YRFEkGKDJhgDBoFl4bcVlfHnQB+/v9sHrm+7n0vhSbPykv0MZ+yHx6BPXP6llaZdGO+LKPihEj8AAmR2q+qD6086UzCGDNolREGS+sGW1q0lL8um+IJYY50KwhPWVsrQVmVoICBDBEUWeEP8EMXNWQfcrSzUKvZbU9FfDMvD24hNMS1fseM0BCE2bNsXgwYMxbdo0LFq0CEuXLsW8efPwwQcfoHbtYvgIajdE3fd+xa/ng6HQKmDIJkrsyh/LhQqEf1hqCXAwUGrRWd6FNDHciZbi1d9OQnj2zWKBAE0cLVu2xJUrVzBlyhQ8+eSTDBSsXr0aGzduRKtWrcy6h/D8h3hs0l94cfVNfLbfB4suR7GYeIoGoJ0eU/NbiLhG7wrEhAMhuB5RtWCAdv7EI/DTuSg8v+oeS5NLTpR8UhXZIylTXoff7zJnTyKEKi1wpL5HUQOf7g9iQICopVliJwvpj2UtBvnp7HJPwAvfbxIdB4vRBtCYt7e3x4QJE3D8+HE2zsePH49Ro0Zh5syZOHjwIBo3blz8uH/1O0zefxexUgn0Rh3zHShrXfj1VSsBDgaqVv7l9nTyoSd7/X7PBPT8bjOEJ12KH9AFwMCAAQOwatUqrF+/Hj179oQd7frNmFyETgPwwqxd2Hk3AhKljIUdEX0vTeCWtmEgxzHaIRLRTFUdJJdUhQ6U9KjTwruYdjyckSfZqmmgsHYgzdGKq7EsOyRFkJC3f0kPkvO/zFkwgCV3It6G8vQ/KWl5yvv3BByN2QYsvBSJ9h/9CqFpx2LHq4ODA9q3bw83Nze2+NNr+oxMhE5OTmxzQGCh2HHf+wO8v/YM3KKToDOo2dzDgWx5t3Dl3o+DgcqVd4U9jYGBbAM23YxB5y9WQHiie/EDOgcMXL16Fb/99ht27tyJ5cuXY9CgQWxiKHZCMAGFNr3Ra9qf2OMeAbVOBgPtFB6UPxFReQiPHBfJLk8paqviIG/2sDQ1AwLEmTD3dCQDAtWZR6A0cqaFPCFLw3xMiCiKQmUJYJp70PVkYjAl2tl4K4EldqpOymzSBNJYm3UqFC1HzILQ4PFixzz5CXzxxRe4dOkSXnvtNTg6/kdERuDfLCBA477rcLyz+DAuBcdCoydTAXckNLdvWurvOBiw1JYpYblMYGD9jWg8O2GpmH/AtFgX8Z/MBAQGzp07h1u3buHbb79FkyZNip1U8gGFVj3Qc8pm7HYPh1qXCYOx/EiISiiGYn9OiWjIW/9qFYAB8own+uTZpyLRa+U9zDkdxcLpKEySHw9LgDQllJSJuAAmHg5l/iYP/+rhT0xAgJxVh2/zYz4CxHJoaVqqh0tesk8IcBsMWsw8EYLmw2aKiYaKGOs0ZskEQP4B+/btQ/fu3eHs7IxXXnkFP/74I/MZoP8EGPKN78Lu2eUdvPX7AZwLjLb4DUDJpGq7v+ZgoJq0vagy1OPP29Ho8vUqCK17Fj+g82gGaHJwdXXF/PnzzXMczDtBtHXBizO2Yp9nGFQ6KfRGjcVqBj7+K0gEA2HSSm15YkP0iJUxIEB5E4hfITBZBcowx49HS0CiMuDXCzEYusWPOVpSqGlRB9E4k2mAgABlpiSNgLUmHSqqnvQdgQG9QYM5p0PxxMg5EBq2LnbME9BfuXIl9u7di27duqFWrVpwcXHB1KlTsWTJEnh7e6N58+bF3kfo/h6GLz2CyyEEBrKgt+ANQHFy5N+LEuBgoJr0BJPK8JhvPJ6fsRNC+5eLH9B5wMDcuXOxePFibNmyBV9++aV5TkQmQNB5CN74dR+O+4VDpZOINsRsy4yR/2RvECM5Iu/yyjqIXpn4FmadimS54aefiEBwigrG6rZVrSCBEucEcUMQKdVxv/RCwy5Z+KDakAMEAvHaBh9supXIMlFWRzGLmkAjG2vLr4Tj6fGLIbToXOyYpxBicha+ePEiixoiMwF91rFjRwwfPhyJiYl4/PHizQ2Cy2f4aOM5eMYSGLDsDUAFdctqd1sOBqpJkxIY0Bu08IpLwWtLzkLo8rYY9mdasB/x32QmoAmib9++WLBgAbZu3Yq3336b7RqKVRfSfftOwKebTuNmRCRU2gyLBgPEdjhuXzBbNCqj6Yk3gUwDU4+HswWKNALEK8AP8yVA5pWDXqkMDHy8N+ihnT4DAhoRCFBIYtdlHthyK5FFslRHIECSMzkMk/Pe/nvReOmHbRA69i8WDJCT4EsvvYSbN2/iu+++YyCgbt26zDRAIcUJCQnFgwH7mrAfNAPfH3JDjDQWKr0IBh5YqJ+Q+T3Ntn/JwUA1aX8TGEhXSDFmuwccXhoPwcG52MmBwMD58+cxefJkRjREBCQUUUCAoF27dsVeT1nR7N/+GXOP3UBISjSUFg4GiOZ33N4gXA6pWM0ALVC0iIWnqVmWREqGM+9sFCLT1dWkx1VuNZLlOpaimnwtll+JE3MX5HgDEnMhUQyP2xeELss8sM0tkSV7qtwSVu7TTGBAb1DjZmQi3lt1Gna9xxbLOEpOgmQaWLZsGY4ePcoiCl599VX069cPEydOREREBIsoKHITUL8FGo1dgoUXfZCpToBan8nMBBwMVG4fKO+ncTBQ3hKtovuRz4AhWwe1XoafzgWhzce/m6U2fOyxx1gEwYgRI5jjIIUYDRw4EL/88gtGjx5dNBig5CVNOqD5xB3Y7uaLdEVsLhh48MAyzQTEMUCmgoshkgptKYoaIHKl93cFsPC4xZdjRJV1hT61+t6c1n0yFxBhFEVhEIcF+VuQqeVSiBSjdwagxwpPBgQoXXUOTqi2AiEwQImCyD8nVZ6BaUfvw+mtORCcGxQ9ZnM0hOQ7QIv/gQMHWGTBhQsXcPr0aeY3QORjRYKBZwej77w92O8ZCJkqkTkNc58B6+9qHAxYfxvm1IBijvXQ6uU4HxSNwYuPQeg5ptidAoUSEQUpMQ+awoqIgYwmi2K9ionhsO/nGLX+DK6EBiFLnZDrQGipuwSyPZOq+WJwxYEBWqS8E+SMA7/zEneWYjminHn2q023LUFFyDmQ8lb0XnmP5bag3AWUy2D0rgDG4Pjn7URIVUU7GJbgcRb/U5M2UKnNxM47Yeg1YweI86PIhTwHDNBYJ18B0v6RI2GPHj2Y4zAxExZJR2zvALsh8zDlwFV4x4dBpk6GRi8TiYe4mcDi+0xRBeRgoCjpWNF3okORATqDEnHSZMw57ommYxdCaP6MWZODORNIvt/UdIRd86fR4PNt2OB6F+Fp4ZCpk3LDjCwVDFD6YooooBj0ijgoTPBGRBbjMqCdKuVfICBA0QT8KJsEyP6fkKVlKZ7bLLiDb/8Ow5ubfTF8uz/Lbpkoq37hg0VJjGkDjTrI1Fk45B2G11aeh92bP7L04oJgHmEYLfxEOkSOhKbNQL5xntfXqEZNCJ1exdMz/sLuO95IlkVDoU2FVq9g5EecdKio1rL87zgYsPw2MquETG2YbQTZEBWaDJwNDMd7a06hZv9vclSH5k0Oj5wI8k4KdvYsQZHjm9PxwbYruB0VgHRFNBSaNJGAxGi5XOVfHw5lyWrOB5U/GDDZrikm/tX19xmDXqxUW66Z98zqDNX4R6R1oVTH3ZZ5ot1vd1m6YwJcLA1xNa53YVUjPoUYiRL7PKPx5cG76LPqMp6cshdCj1EQataCuYDArDFPGoHGbVF79FLMPOIKz7ggZKrjoNJlQG9QFZm+vLCy888sTwIcDFhem5SqRKINUSQhIbVdfGYitt70RffZ+1Cj6zsQnOoXazIwa1KgnOYNHoeTy1j0/PUkjt33Qpw0LNdEYOnUpBOPhOLDvwJxrpzBAKmwyXZNQIB2q5SOOVlG5EtcI1CqDl3IRSRJyitAbdd9uScaz73FCInOBWXYlJzJTyJTbWCZN4mKePQuL4ze6Ybpx+9i6pFbaDVxK+w69INQq65ZEUXFjnt7RwYEnAZMxJtrL+JisA+SsiIg05AmMIuRjJEmkGsGCum0VvQRBwNW1FjFFZUGo9GoZ6YClTYd/onRWHjOHR2m7Ib9s4Mg1GsG8v4vdvDn1QLkfU0+Ag1bwfnFMej+4z4sv+KJaEkQpCpRXajRy0Uq4mzLnRgmHQkDsRCS7bm8DrXeyJLhUKTCG5t8sfTf2FJx6ZdXearjfQgI0AJ4KUSCj/4KZAyOlPK53zpvZopJV1R/XwHClQQ6Q9NUOOidyqIn+v/hhc8P+uOgVxTC0+LhFReBbw+5ocWEdajZ8WUItR+DQAA+7zguyWsHJ9g164i6/cejz+Kz2O95D1EZwchUxRTQBHLyLGsfdxwMWHsL5ik/gQHKYkaevaQdkGuSEZgcgQVnPdB66kHU6j0Sdo+1geDgVDItAUUNODjDrmlH1O4/AT3nHsDiSx6IkwYgXRkOmSaBxRrrjGoYs40WvUOYfDQMH+wJxJmAsoMBmpxJbU0Z9kbtDGBpm9e4xrNshHmahb8sBwlQ4iLSvJC/B/EI7LibhFtRWXh3uz+T/ZnADFAER3U9qG7Evkj+KHPPRLLIiZfWeuOP6/EITZVDrVNBrZdCokqAb2IovjzkjlZfbYBj1yGwa9ASQk3HkmkJCEDUqosaT3RF/cHfoc+Ss/jLwwvxmYGQKCOZf5BKlwmdQQPjAyPjPaiusreVenEwUM1ammkHssmRUM3YACkOOFYShg03vNFt4UU4vTMPQru+ZocgMbujc0PmpVx7zFIMXHUJW297IlbijzR5KDLVFE6YxpyIWIIiC9YKUFP/72gY8/InL/SyHgQEfBMVDAT0WHEP2+4kQWJD3uxllZ+511OOAor+GLkzAF2XeWLn3eTcpEV7PJKZf8ZXh0OYc6G597S235FPBPlG9F3rhfa/38V3x8IRlKKE1mBk6YMNRookUrDdukQZi6iMEMw/64ln5p2Aw+tTxFwlDrXN1xDUbQah67to9OkfGL7lGv7x9UaKPAAZSjIJxkOpy4BWrwI911KTkllbG1d1eTkYqOoWKOfni9oBymZGk4MSCm06pMp4xGSE4nzgfUzc54pnftgP53d/gdBjJISWz4nZzsinwLG2eDo3EnnOW/WE0Ot9OI9eiq7zjmDWMVdcDLqHqHR/pMpDmXlArklhEQTEfkhaCXq+JR9TjoWzsLRTAellKibtVF3DpQwIEKHQvnspIGIc7iNQJrE+dDHtiE8HpOO9Hf54baMPtt9JQpbGkMsjkKbQMTInctgk84whu/qoq2kkyTQGHPFOZeGTz6+8x6i0T/ilMzMURaiIw400giIDKWUNVWhSIVHFIDwtGIfueWHcjsto+91uOAz9EULnoRCaPw2hfnMITvUgODpDcKwjmhMaPwmhTW8IfT5Hw49X46WF/+DXszdwK9IbsdJApCvCkamKY3MKmQRJA2npmsCHOhT/4JES4GDgkaKx5i9yzAUGMhfI2W6BBnGCNAzu0QHY5+6B2X9fxpClR/DM93+ixSdLUW/YXDgPmQnnoT+gwYj5eOKz5eg6fRveXvE3Fpy8iiNe7vCMvY9YMg0oQiFVRkMEApnQ6SmfuXWkMJ36Tzje3x3IsuGVtoXJdn0qIAPDtvmjzxovHPBKRZJMVyhnfmmfwa8Dk+cp/3SM3OmPd7f5Y6tb0kO+GKQ1IHPBlwdD8MYmH+a7Ye2yIxBAYPNOtAzTjodjwPr7jFRp7bV4RrxE/a8g5s6rESSnPhqbmapYtgm4GemHHbfvYsr+i3j1twPoOHkTmn64CPWGzWFjvvZbs9Bw5M9o/flqdJ+5E2P+OIHF567hhK8nfBN8kZAViAxlDhDQpDHwz8wDVgD+rb0vVGb5ORioTGlX4rPEyYFCDTXMf0CpSUOWKh4ZikjESILhGeuHk37e2HrbHYvP32DgYNqBC5h+8ALmHruMZRdvYMddd5wK8ML9eB/ESvyQIg9ik4JUFcvIRoiGVGdQMadF2plYulaAxE+TK2W0o91VaQ4yAxy5n8ZMDW9s9sVfnilIU+g5ECiNMB9xDS2G5JRJfh0jd/gzrcBWt0SwNMSFXEO7572eKRiy2RcTDgQjXWm97UE8Ff5JSmy4kcAAwJubfPHDyUgGXslUQBTXhR009lhKYyIeYybCTKYhyFLFIU0RjqiMINyJ9sXR+17Ycssdv5+5htlHLrHxPuPQRcw/fgWr/72FPe6euBDsBb9EH8RnBiBNEYIMZSQzDSi0adDoZGxOMWYbuHmgsIaw4s84GLDixiuu6KbdgoE5FMoZVTARA0lVMchQhCNNHozErACEpfnBN9EX3vE+7PRP8kF4Gu0I/JEiD0SaPIhpAySqKDYpyDWpEJ2HLB8I0NRJyYJkGiNT41Po39tb/ZgDWqpCx3ZgtLs055Ao9Tjkncp4CiiD3o47SZBrjDDzcnMeYfO/oZagnS+RQr233R9v/ekLAgJxmZpc00BhQqIcEL9fjGEhh9vvJrF7mNeqhd2t8j8jc0icVMtA6swTEazeBFrX30hAQJISxGFR3JEXEJDPEDMZaNNZ2K9EGY10RRhS5cFIyApASKovfBPE8U5gPyDJB5HpvkjKGfOpCgJV4WyukGkSodSmMy0jbS5MQIDCmflRfSTAwUD1actCa2ICBGTfIx8CtS6TsYbJ1AnIVEUjQxmBNGUo2wGkKYLZZEETBu0I0hShTBMggoA4Fp1AJCNkeqDJhjkPWahGgNIG0449IFmJf0MkOOAej7WXgtF/+XV0WXAZ47a7Y/2/oTjkGQ/XMClLKUy7/kftvKRqA47cT2W5BoZt82O2awIC/Cg/CdDSQnTCBATG7g5kJhjyEUjM0ha77BDgc4+RscgCMt24RWcx7UL5la5i7kTqfvKB8IyTY821eGbCovDU6cfDcSMik4USFjQJFFUSE98ILdikytfoFVBpJcxsQI5/ZN6jMU+mvjR5yH/jnca8PIR9nqGIgEQVzUAEMQxSlILWoGB8AuQjQBoImlf4Ub0kwMFA9WrPQmsjAgIjU+dTYhPyOqYc5DTQiTgkUx3P7IukMfjvjGUMY5RvgOyPlJpYo88SzQLZZB83MKclS5sUyIGPFm6feBl23Y7Blzvd0XPucbT6aitqv7cQNYbMhfDGbNgPmYe6o5eizcTteOHnU5i4xxMHPOIRkKRgu0qTtoB2/WS/Pe6XjsFbfNiOjVTSFO/Nj/KTAC0tpO4/HyxhPBDdl3lij3syi84wd9khQiIy/7T8+TZmn4pEWJrKYh06aS2laJSkLC0zAXy2Pxgua7wYCDrglcLCCEsrXZGNNBtGo5HxfpApj0KNlVoJMx2wMa+JB5n7/hvvMSwyiAADaQ9F7Z9E1AawkGG9GEL4gJwWzW2R0taAX1cVEuBgoCqkXgXPpAFMiJ6QPYUAkrqP0L5an8WSC9FEQemHSR0onhnsc9IkUPIjmlBE72ExlIjuZ2mTAgEB2t1vvZ2AQWtuodH4PyG89CWE1j0ZfTLzmibOBCJdYXHU9SA0ag2hzfMQ+k9Goy924a31d7DfMxmpctEhkIAAURd3W+7JkuH845tmFTvOKuhiZXokaXJIziN3BDBV/18eKdAZSh4ZkK7QMb+QDr/fxf57KYyxsEwFq4CLaS0ltT+Fpc46FclCBV1We2HNtTiW4ro8xpVpfIpj3sB29QwU6OR5xvx/413Bxj6NeQn7XhzzapYJNVcbUKx+pgKExW9ZaRLgYKDSRF31D6IdA00S5OxHYYCU5VCfrYXOqGGLPcUN5z3JFECaBEqNLGoCKHSQ0sNa3s6Adll+SQqM3xeEJ7/dDacXx6JG0w4iJau9o7j42xXIz0DvCRTQ90Sw0qwjnPpNwFNT9mHasWBcCZPg8P1UPL3YHUP/9GM0uLT75Buj8u3LpIWhqIER2wMwcIMPdrsnQ6mlvlby55C5IEaiZtwDI7b743Ko1KJ8OqiukRlqbLyZwMpI6Zh/OBmB21FZDMiWN3FS7phnGwECBTo25vVGtTjmDSpoc07TeCfQTybAXN8ACwT+Je8Z/IriJMDBQHESqobfm3YNtLBTTnQ6aeCz02hgYYKmxV/8nmyElmsnJJX9jQgp3t7ogWbvzUPN9n0g1G0CgeiTS0K9Sr+v2wwOT7+K1h8tQp/lN9HvDy8M/dOXkd5IVeRBXQ07RBVWiRY/0raM2OHP2AR33k0C7e5Le1Dz0D3JlENUxbTzDklVlfZ25XpdmpIiUVJZxEP/P+7jk71BzCGVslqSpqA04MfcAuYFBfnGvJEAgniKGgDRJ8DkF1AeWgpzy8h/V7US4GCgauVvAU+n6ZNNFaLWIGfRFycB8TsLKOQji0AhaNfCJRiz8RbqvTUbdi2eFYmTCmoBzAYFdhBq1UONti/CcegctJzzL1ZejWUUw5xQ6JHNUOIvqGdpDNnMXk5AgNgFKTqDnAXL46AkUcQpQUCOduFk7il40C6dPieTEKVGpjNFrmNaCZPPSMFrSvqeFniNPptxIfx0LoqlWx69MwCLL8WwREMUOVH5ADNnzOeYDvMv/PQdP2xRAhwM2GKrF1Fna9oJUFnvJ8jx/T5P1H9vAYTmz5QtEVNewEBsjK17o8HoRZh8JBixUsq7UHIbdhGittmvaIEkcwsli6LcAhSdQUCAeATK83ANz2QOeRSZ8C8zFzxgfghxmVpcj8jEQa8UrLsahQUn/DHn7/uY87c3fjnhhz+uRuGQVwpbrGOk5JFfunYnzoDQVBVI20EOgpRY6du/w3DQKxXREgrRq/qFl8aQNY358uwf/F75JcDBQH558HdWJAGiol11OQIdvt4Eoa1LyUwCeRf+R712rAP79n3RfPIhHPCMR7qSQtyqfgK3oiZ6qKgEBMjJ81wgEQoFgNTlu9yTkCQrXyBAD6bFePOtRAzd4otvjoTCM1aGM/5pWHQ6EKNWnUev6bvQZtwKPPbuXNQbOgP1hkxHo+Fz0ObTFeg1bRfGrLmAhaf8cdo/lUUmkF+KOQsnhacmyrS4HCoBaQNe23Af72zzw4qrcfBJIKfd0oGLh4TJP+ASKEcJcDBQjsLkt6o8CdCifCE4A28tOwu7Fz4uuX/AowBAwc+Jv93lMwxdcx3uMVLoiYKVA4JSNTTBKFKLExCg3Xr3Ffew1yO5TGF0xRWEwgun/BOOTr+7YexWD3T78RgLMbXrNYZpfoRGbURe/lr1RGfT2o3ECJPWvWDX+33UG/k7es89hh+P+sEjOpMBmUft6AnokNkhMFmJP28nMhrl3ivv4atDoYwzgEIn+cElYKkS4GDAUluGl+uREqDdGWVrm38mAs3H/Aqhcbvy1wqYQAGFIjo3hNP4Hdhzl2KxNZx05ZEtU/QXpG4nimFKOtR9uSf2e6VUaJgmLc7kjLjscjSaTT8LYdhiCE+6sPYU7OyL7zPU9rUfg9ChHxxHLMHLy2/gqDeFnWof4i8gfxJa7IkwiUwCnZd4YMgWXxzySmU+CBZgESi6cfi3Ni8BDgZsvgtYnwAoNNI3QYZ3111Djec/LD8/ARMAKPjfzg52/Sfhi+3X4RkrYVEX5qiLrU+yFVdiCvkj4iZK7tR//X3s8xSBAC3YFXUQm+HKK7HoPPMwariMg1C/pahBKolzKQGCmrVgV78lHF78CB1mHsPG6zGMLIj6AJ1kFqCIhZknI9BzhScLGVx+JQ7BqSrmJFmRdawo2fH72p4EOBiwvTa36hqTip5CoPZ4JKL3lD8htHup+B1egcW9W7du6NKlC+rVq2f+tW374PnZB/CPbyKL1baWxEyW0NgEBI76pDFnweHb/BmPQIZSX6FFI3X9sn9j0GPGXtTqPQpC3aYip0SBvmB26CnxUdR+DA49RqDrjP1Y6xqFOKkakekqbLmdyAipXl7nzTgDLgRJkJilA6UY5geXgLVIgIMBa2kpXk4mAREMGDD/bDjajpkHoWlH8xd0QYCdnR2mTZuG77//Hu3alcC8ULcZGn+6HltuRUGjs56UzVXZbWgpJKc74hGgqIHRuwKw624yKOyvIg/arR/0TsFLPx2F84tjIdRrDqEk2oCiAEOdJnB8YSz6zT+Mqf+E4H9/hzAHwQ/3BGKbWxJ8E5UseRXXBlRkC/N7V4QEOBioCKnye1aYBCgm2pCtx7h9AWgw4AvRplvU5F3gOwIDa9euxcqVK/Hcc8+ZDyTsHVBz2K/4/aw/0hUylueBmwoe3cy0GFL44KmADJA2gNgFd7knlxuPwKOerDdmIzxNheEb76LBa1+DOQiWFxAw9aUGT6Du65PRdtZp9P/DEz+eDse/oRLmCPko58JHlZd/ziVgKRLgYMBSWoKXo1gJkFaA2NOILnXIlvtw6D1apBI2TdJm/C81GKB7vz4DMw/fQVRGBuN6J1ZGfjwsAQICZAYgZ0ECAq9v9MEej+QKCR/M+3QCZ+QnsMo1Fs0/XQe7x7tUkD+JHYTWvVBn5CK8tcULYWkyZrriUSZ5WzBCihoAABlNSURBVIO/tjYJcDBgbS1mw+U1+QtQwpXXNnrBrttwCKbEQ2YAAbIPlwkMvPodpuy7gdDUVOgNapbfwYabo9CqExAg2uYzgRkYvSsQPVfcw757ZcvCV+iDCnxIfcNgzEZIigK9l91Bre5vQ3BuYL7mx8z+k+tj4FgHDr3ew4AVrghPy2TaKtJa8YNLwFolwMGAtbacDZZbBAMGaPVKDNrkBfseI0q88ysTGBg4BVP3ExhIYcldKH8D3w3m74iUJ+J0QDrLNUBAgLj4KyPdM7WDVKXDUe8E2H++H0LDVsUCxRo1asDBwQE1a9bMBxroPX1O3+cu/oWBhVY90P6r9dh0MxpaA4Wccg6K/L2Bv7MmCXAwYE2tZeNlfYBsGB/oWUrlUTvvo85L4yA41S96wi4wiZcJDAyZj3nHPZGQSWBAKYYYcgKi3F5JIXbkLPjOVj+WJIhi7CkNcWU40xEYCE9XYNohbwivfidyCRRo+4ILe4sWLeDi4oIePXrk60OdO3dmn7dq1Srf5wWvF+q3QKMBEzB2ty8UGgXXDuT2BP7CGiXAwYA1tprNlvk/MDD1nwA8/u4MCI89WfSEXWBByAsGaNJ/aIIv8Pvc753qo+4Hq7Da1R9Z6lQOBgr0QQICpAUgHgGi3qWsgZmqig0fzFsEUtF7xWdi8OqrEJ55U0xW9ai2zPm8T58++Omnn/C///0vXz/47LPP8Msvv2DgwIH5Ps/tC6b7OjjD8dnX0GP5HUiUUugMlG+Aawfytgt/bT0S4GDAetqKlzSPZuCP66Ho8vUqCG16Fz1h50zc9vb2aN++Pdq2bYs9e/Zg2bJl7P1DE7xpoi/4//GueHrKDvzlGQyFNo2DgZzeSOGDIhBIY0CAwgfJWZCy/1XeQdwTBlwLT0eH2acgNOloFj31gAEDsHr1asybNy9fHyJwQBEnb731Vr7PH+ordjVg16oHWs8+h8CkJCi1OdoBcN+Bymt7/qTykgAHA+UlSX6fCpdAXjPB1bAYvLH4OGqY6TdQq1YtfPjhh5g5cyYOHz6MSZMmoWHDhkVP9nkBwYvjMGrtSfwbGg5lDhgwkM9AZejAK1yypXsAVT1LY2DMgmQaGLUzgBEKJZVTGmJzS0VtYDDqcSE4BfUmHYHg1KBYfwFa2AkMrFu3DosXL0bTpk1zzx9//BEbNmwoHgxQ/2j+DJpNPgDXsGhkqjJZpAv3HTC35fjvLEkCHAxYUmvwshQpgf/AgAIJmcmYfMgTjYb9AKHB48Uu6o6Ojhg+fDhmzZqFyZMno2fPniBtwUO7vbwAgF7n5CZwHrsaS865ITQ1GkpdBiiigTkQ2igYoGpT+OBJ/3QM3eLHePjJNJAsq0yNgNhdyESgN+pwNjAJjl8dZPTB5pAMERjYtm0bjh49ivHjx+eee/fuxe7du80DA806oenXO3E2IAwZSuoXlOqamwqKHMj8S4uUAAcDFtksvFCFSYCcxGg3TguxUpOBXXdD0Wf2LtR4bqhZamFa/Bs0aAAnJycWYlgsECAw4FgHwtOD0GPBSZwNDIBUFQ+1TpobWmitmgEixyH1Pp2GbOLYL0zihX9mAgKn/NNZ0iHKzHfQKxXpFUwxXFhpqE+I3BManAtMRO2Jh8U2MyPklMAAmYxu3brFzAJkGqDz6tWrOHTokHlgoPnTaDZpDy4GhyJdSeYj2waJhbUR/8w6JMDBgHW0Ey9ljgRo16U3aKDSZSIkJQ4zjrqjwehFFcM0Z+8Au6Yd4fTpViw8fwdByeGQq5Oh0RMDoRaUn8BaDuODByxpjlxjZIt2jETNYvKDkxWMsY8ogim9sEpHpE6PBgeEGegepBEYsd0fvVbcYxEECm3VpOclMGB8YITOqMHlkEQ8Pu0fCA1amRVySmCAFv/ffvuNgUQCinSSKWn9+vVmgAE7CI93Qcvpx+EeHQapihxLFTBm623afGQtY4KXM78EOBjILw/+zsIlQAuwwaiDRi+HXJuCc0GheHfdWQgDpkBwdIYg2BWv+i9oCij0vR2LVXd+cyoGbbwJr/hAZChjROdBPTmK6VgqYwsXFyseLe6kvj8fJMHCSzEgHv3+a+6i9yJX9Pr9KlyW3sTQLT6Ydjyc2fz9EhWgxZ0W2oIH3YuSDg390xd913rhmE8aI/t5+JcFr6yY96SZySaAaNTALSoZ/RafZymHBQenYvsBgQGTAyFFmZhOciAkX4JiHQjtHWHf4SU89fsNxEsjIddwMFAxrczvWhkS4GCgMqTMn1FuEqDJn2z1ZCpQaTMQnxmLve4+eHHBMQgvfw2hdiOznMeKNhHYQWjcDrVf+wZ9Fp/BuSAfJGSGIUudCJWOQsjILmz5zoOUJMgnQYFVV2Pxzsa76PD9X2j23jzU7/cJancdDKen+8PpqX5wenYg6j4/Ao0Hf4dW49eh7+8X8P3fQTgdmA6pWp8LCnTGbGYOeHurH+MSoGRAMk3VaARMHSovGPBLTMXnu25C6DvBLP6JvGAgb38wGwzUaYx6fd7HkM13kCKLhELLwYCpXfh/65MABwPW12Y2X2LRYUwLjU4GmToZoakR2HbrHl745SgcBkxiHt7m7AzzLgC5rx2cIbTqgXpDpmLgoqP4y8MLsdJgSHK0AhrSChgtXyuQJNOxEL+xm26i0xdrUf+lj2D35PMM5LB0vkTWRP4QdNaqK4Kohk9AaNEZTt2G4vERs9H/l2P46UwYvOLlUOuMOOCVwkDAmF2BjGK4KnwECnb+vGAgPjMDm6/7o8YHmyDUb1lspsLevXtj+vTp+OKLL/JpEcaOHctMBS+//HK+z3P7iEmT1KIzWn30G34554V0RXRulAk3ExRsJf7eGiTAwYA1tBIvYz4JMEdCY452QCdBpioBoalh2ObmjWGrT6D56J9g/9xgkZCIFnfT5P2o/5TVjn7XuB3suw1D649/w5g/TmLnnXuIygiCRBkFuSYZGh2FjhGxjOVqBci5LypDjcUXItBv7kE0HDQJQpvnIdRpYpYdnXnhEzho2hG1er6LDuNX4ONtd7HGNRZvbvbBmN0BjFCocnkE8jV/vje5YMCgRZY6E7cjo9Hh58tweOoVEeg8qs0FAU2aNEG3bt3wzDPP5OsjHTp0YJ8TQ+Ej+05NJ9g/NwTP/3IMV0IDIFHGQqnN4A6E+VqHv7EmCXAwYE2txcvKJMCcxrKNbIeu1ZN9Ox1SVRzipGE47uuLb/Zfwwszt6Dp29/BoesQ5uQlNGotpjumHXGteqIauW4TETC06o6aXd9C82FT0WfuLkw97IqTfvcRLQlChjISMmYekOSEE+ot1leAogJipRr8fi4cz3y7FQ69RkJo2BpCDTNCKB9aNO2YjOzavgjnobPRad5FPLf4Dv50S0CyXGtRPTGvH0mMJBGTj3qj0Yh5sGvaoZR1Fx4NApic7CA0ewrNRszClwfcEJ8ZygCpNZmQLKoBeWEsQgIcDFhEM/BClFQCou+AmM5YrZdDoUlDlioOGcpweMcHYNOte/hstyv6/HwA7T5bhGZDJqGeyyjU6TEUtbsNRp2eb6HBS++j+dv/Q4cJS9Bnwd/4Yt8N7LjjifvxfkiRBSNDGYEsdQKU2nTkmgcohrwkcXglrVgpf5/94AFj/VvjGoM2k3ahZuc3RdX/Q4t8cQtdge/tHUTTwuC5cFn0Ly4EpUGtL9y5sJRFL/NlrC8YKWeFEhJlGlzDw/DCwvNw6v0ehDqNy9GpNEc2zg1Ry+VDDFx4BIe8fCBRRuZGmegNFGVimX2kzILmN6jWEuBgoFo3b/WtHC0AIiAwsLAytV4GOQECdTzbzafKQxCS4o8zAV5YetkDXx50w5CNrnh15Xn0W3YOA1ZexLDN1zDxiBtWXHXHhWAvhKf7IlkWiHRFKDMNEBAgrYNGp4DeoBPJZCwQCFAry7UGnAtMxeMzTsP+mUEQnOoVs7stsOgXBRpIs1C/JRxHLsOcY74ISVXA+CA717GwqnuZqCkis5GaOXhmqhKx8JIPOn27GfZPDzArT8EjzQEF5VKzFmo8NQCdvlmPBec9kJAZjEwVmQjSGUU1MSGSpsISAWNVtxN/vmVLgIMBy24fXroiJECLgMlkoDNqWbgh2W3J61+qika6Igyp8iAky/yRmOWHiDQfBCR5wzfBm/2PzPBBkowAgB+S5YFIVZA2IByZ6ljItclQ6SRMI0BAwJJ3exTWdy9ejuEbbkPoP1k0gxRcxMrjfds+ePLbndhyKxZKnc5iFjzqA+RUago5VWhSESOJwlcH3dH809UQ2veDYFcaU0khgKmtCxqOW4fvj9yCd7w/MhQRkKkSodZl/ZeoyEIBYxFDiX/FJQAOBngnsGoJmBYCIiOixYBIX9S6TNCCQFoCAgWk7k9ThCJFHozErEAkZgYgKSsAKbIgpCmCka4MZdoEqSoGMg2ZBUgVnsmcwUQ+ActW+2YodfjzRjTqf7pF9KIvlY9AIQtfQQDh4AyH/hPxyaarcIvOQPYDyzEXiKDwP+2AVJUAj5gQfHvgBh6fsBZC56GlB0nEZuhYlzFRNvpsA6YddsXNCB8kZ5GvQCwzUZGJwpAt+pNQWfjBJWBtEuBgwNpajJf3IQnQ5Et/pt0hqYuJlIh29hT7LdMkIVMVB6kqlqn/MxSRzM4rVUaDAECmOo79hn5LVMNavRx6I3EJ0ORu2TzzVO87MVn4eONV2PX9vIIc5vIAhTa98ew36/HH9WjoyD5O5gIL2Anntn+2DuRUSoAuTRGDGxGBmPvPdXSfsQM1Key0RWcxlNIMumKWl4LMLU90Q81XJ+HZ6bsw/8Q1XA+/z8wDBDRlmuQcrYCWMSFSOfjBJWCNEuBgwBpbjZe5UAnQokT2Wgr90xu1zPufFnZS4Sq1BAzSmMZAoUmBeKayRUOllUCtz2JaBQISpGEw0q73AdENW/bkbjRm4y+PJHT8dgeEll1K5CdAuRoogVPNmjXNv865IWoP+g5f7/VEQqaMyZpkbgkH8yF5QG2vgUafxRbqFFk0PGKCsN71LkauO4E2ny5BrX4TYNfxFRY+yTgXKLqEQkvppLDKuk3Zd3ad+sP5lQloN34J3l1zHOuvu8Mj1pcBAXIalGmIhEqMMqGcGQSM+MElYK0S4GDAWluOl7tQCdCCIIICI1uoaGGnxYESyNCOUWuQ5zkVzAOdAACBB1LzEpCwFgcw2oVmqnVYeC4EjsMXlNhRrk2bNnBxcUGnTp3MBwNE99xtBIYsOYlbkckw5ORosJQdMS3IpNHRG4mhUgqZOgkZymiEpwXjdIAPfjpzB6PWn0KvKevQZsyPeOz1L1Gnz/tw6vUunHoNR22XMeyzNmNmo/fU9Rj1xwn8fOY2Tvh5ISrDn5maCAiIUSbEK5BDTc2dBgsdj/xD65EABwPW01a8pGZKgBYm9perKTCybIe0SIgn7fwpOsD0XtzVkSbABCbMfFSV/ozqGJqmwOQ9bhBemVSCBV1U+w8cOBBz5szBiBEjSnZt+5fx4tTN2OsZxRZdpkWxEA0KA4I5gIDs+EqdhJmApMoYpCnCECMNxLUIH2y44YmZJ9wwbtdVDFt7Bm8u/wdvLvsHb685hU92XcWM427YdMsTV8O8EZnuixR5ANLkITlRJokiwVAuG6Vl+5RUaSflD7caCXAwYDVNxQtaGgmYFnfxPy32FBKX58zRJNDCam0H7YJvREowZtVpCD1HlWxBFwQMHToUy5Ytw8cff1yya1t0xlPjfsPiyyHMv4JAlWhSsQwJMkDAElrpmUaIMlzKNSnMb4R29WmKEKTKA5GY5Y+wVF94xd2HW5Q3Oz1ivRGa6oP4TF8ky/3Z78jJlEWZKGMg1yQx0wBzGGS01JbtU2IZLcJLYQ0S4GDAGlqJl5FLoIAECLyQc+O5oFQM/fUQhGcHl2xBLwsYeKwtWo/8AbNPBTCHSzKxWJqjZV5AQGYgtU7GuABoMacIAAIFFHoqAoMgtuinyAORIhNPCkklvgkKHcxUxjAWSqUmjfmfkMmJRw4U6JD8rdVLgIMBq29CXgFblAAtduTfcCYgGUMWHIDwzJuVCAaeRKv3ZuKHk35Q6jKgN6hYWahMlnRQeUhjkZ1tgMGghU6vZGGnRBBEuSayVPGQKgkYRDP1v0QViQxlFHvNokxUccznQAQB0hzOCQ2MRuvxK7Gk9uBlsWwJcDBg2e3DS8clUKgEaKGj3enF4GQMW3QEQpd3Kg8MNO2Itu/PxbwzfixCQ2dQwmi0LFNBXqGRrIg0ispIdMEECijjJTkYEkkVhSEqtCmQ00mRJtpUxjxJESgUiUKOp+SEasgln7KMcMq8deSvuQTKKgEOBsoqQX49l0AVSID8BYgQyT0mFeM2XIDw4rjKAwOte6HLV8uwxjUAck2q6FFPNLwWHFrHAAHTEhAoEDUFeoNGDD81KKChKBN9zmmgqBMlozcmEwj5RJAZxFqiTKqgO/JHVgMJcDBQDRqRV8H2JGACA9EZUsw45A67QTPASHIKsgYW8b7UDoRPD0K/OTvx9/3g/8BADvueJbeEaDYwhZ6S+UAMP6XFnrQsjF/CaIowIQCQE2XCHE7F6yy5frxsXAJlkQAHA2WRHr+WS6CKJGACAzK1DKv+DUGDD1aIZDlFLP4Fk/EQGFi6dGnJognsHWHv8glGrDsLj5iw/8CAhWsG8jZTXlBQ6GtTaGqe/3mv56+5BKqjBDgYqI6tyutU7SUgggFK26vAUZ9ouMw9AOGp10pkKujfvz9mzpyJYcOGmX9dgyfQaMQ8TD3mgWRZlFX4DFT7zsAryCVQDhLgYKAchMhvwSVQ2RKgHS2pt8kZzi8xCTMO3YLd0PkQaphPLdywYUMQC2GTJk3MAwN2dhCeG4qX5+7Cbne/nNS9lhtNUNltwp/HJWDNEuBgwJpbj5fdZiVAPAPGB0aWUClTnYHDXqFoM+0QhLZ9INSsZdbiXqNGDVB+Avpf0IRQ6Pt6zVBr+C/4/tB1+CWGIEuTAJVOyqicqSzWSNxksx2IV5xLoIAEOBgoIBD+lkvAWiQgmgq0LClPUHI85p+4C4f318DusSdLpCEodOHP53tgB8HeAUKf8Xhjyd844n0fKfJIyLXJ0OopWZFlRxJYS3vycnIJVKUEOBioSunzZ3MJlEECTDtApgKDEhJVGm5GhOGtDVdR+40pEJq0FxfwfIt6nlTE5n5OpgHK5Nd5CDpO2Ym1V9wQnBLMTAQqXfp/uQksjHCoDGLll3IJ2KQEOBiwyWbnla4OEhDBgAEUL6/WZSJZloAj9wPx+rLTqD9oEoQWz0JwcDLPBFAYOKhhzyIU7J8bjCe/2Yy5J27AI9Yf6QpK35vEnklZC7mJoDr0Jl4HW5cABwO23gN4/a1aAkSEQ/HxFFWg0KYjVR7LnPsGrziFpsNmwL59Hwh1mpTMbEDaAMc6sGvWCc4u7+OZ77dgxvE7uBfnh2RZGLLUcYznn4h5mIkgO9uqZcgLzyXAJQBwMMB7AZeAFUtA1A4Yc7QDWYxzP1URhcPefvhguyvafbUWzs+PhF2zpyDUfgyCg7NoPqAFP1cbYAeBtADkeOhUD0LDVnDo1A9Nhs1A34XH8esFD4Sm+iNFHgri7CfWQY1exhwHyW+BIhv4wSXAJWDdEuBgwLrbj5fexiVAYIBSMlMyHq1Bzbz7ZeoklmzHKy4Qiy55wGXJeTT6dD0c+46DfdvnUaNxWwi1G0FwrC2Cg1p1YVe/BWq0fBY1uwxB7eHz0WHmYXz21w2c8PNCUlYAKI2vVBkNmToZlBKYMgESQx89nR9cAlwC1i8BDgasvw15DWxeApTOOBt65kyogkorYdn20hVRiJaE4HakL9Zfu4t3N1/Bc/NPoNnEnaj1/ioIwxZCeOc32I9YivqfbUS7GQfx8rLzmHX8Bo77eMA/yQcJWYEsla8IBJIY2MibwtfmRc8FwCVQTSTAwUA1aUheDduWANMPUPIiI7ESKllGPpkmGRJVDJKywhGWGoi70b44G3APe9zcsObydSw+44qFp69i+XlXbL52E0e978I1zAs+CT6IyvBHsiwI6YpwFjlA2fyIU0BnUDEef2Ye4FoB2+50vPbVSgIcDFSr5uSVsWUJ/AcIdGzRpggDhSYVWap4ZjZIV4QhMSsIken+CErxg1+iL3wTfRGQ5IvQVD/ESMhBMACp8mDQbyXKaGSpEqDQpEGtz+JAwJY7F697tZcABwPVvol5BW1JAiZAwKiKDWrm6EdmA7kmGVnqeEhV0chQRrDFPl0RirSck16TFoC+kyhjkKVOANMGaCXQ6OXQGTQw5iQj4n4CttSjeF1tRQIcDNhKS/N62owEyLuf1PjGbAPz+CfVPnn/q3QECtJA5gNa7LNUcXnOeGSpE5mvAWkC6Ld0DV2rN+rYvSiMkUcO2Ew34hW1MQlwMGBjDc6raxsSoEXbBAoM+UCBAmq9jBEGqXUSqLQZzOGQ/AHU+kwGADR6BXRGNQzZRChkYMDCdD/bkB6vJZeA7UmAgwHba3NeYxuTAKn1H5BzYbaBOf8RSZHeqGHhgTq9GuKpgc6oYQCAnBBJq2ByEuRmARvrMLy6NikBDgZsstl5pW1RAiZNAeMleEDcBMb8JyMQIlOAaA7gIMAWewmvs61KgIMBW215Xm8uASYBIg0ynVwkXAJcArYqgf8D+ZWTeC0lt80AAAAASUVORK5CYII=;" vertex="1" parent="1">
          <mxGeometry x="26" y="82" width="787.81" height="618" as="geometry" />
        </mxCell>
        <mxCell id="xCgQfyRIKnEqSB6WjNVj-24" value="1" style="text;html=1;strokeColor=none;fillColor=none;align=center;verticalAlign=middle;whiteSpace=wrap;rounded=0;fontSize=24;" vertex="1" parent="1">
          <mxGeometry x="688" y="253" width="35" height="30" as="geometry" />
        </mxCell>
        <mxCell id="xCgQfyRIKnEqSB6WjNVj-25" value="1" style="text;html=1;strokeColor=none;fillColor=none;align=center;verticalAlign=middle;whiteSpace=wrap;rounded=0;fontSize=24;" vertex="1" parent="1">
          <mxGeometry x="696" y="476" width="35" height="30" as="geometry" />
        </mxCell>
        <mxCell id="xCgQfyRIKnEqSB6WjNVj-26" value="2" style="text;html=1;strokeColor=none;fillColor=none;align=center;verticalAlign=middle;whiteSpace=wrap;rounded=0;fontSize=24;" vertex="1" parent="1">
          <mxGeometry x="516" y="82" width="35" height="30" as="geometry" />
        </mxCell>
        <mxCell id="xCgQfyRIKnEqSB6WjNVj-27" value="2" style="text;html=1;strokeColor=none;fillColor=none;align=center;verticalAlign=middle;whiteSpace=wrap;rounded=0;fontSize=24;" vertex="1" parent="1">
          <mxGeometry x="628" y="592" width="35" height="30" as="geometry" />
        </mxCell>
        <mxCell id="xCgQfyRIKnEqSB6WjNVj-28" value="3" style="text;html=1;strokeColor=none;fillColor=none;align=center;verticalAlign=middle;whiteSpace=wrap;rounded=0;fontSize=24;" vertex="1" parent="1">
          <mxGeometry x="179" y="592" width="35" height="30" as="geometry" />
        </mxCell>
        <mxCell id="xCgQfyRIKnEqSB6WjNVj-29" value="2" style="text;html=1;strokeColor=none;fillColor=none;align=center;verticalAlign=middle;whiteSpace=wrap;rounded=0;fontSize=24;" vertex="1" parent="1">
          <mxGeometry x="622" y="143" width="35" height="30" as="geometry" />
        </mxCell>
        <mxCell id="xCgQfyRIKnEqSB6WjNVj-30" value="2" style="text;html=1;strokeColor=none;fillColor=none;align=center;verticalAlign=middle;whiteSpace=wrap;rounded=0;fontSize=24;" vertex="1" parent="1">
          <mxGeometry x="719" y="364" width="35" height="30" as="geometry" />
        </mxCell>
        <mxCell id="xCgQfyRIKnEqSB6WjNVj-31" value="1" style="text;html=1;strokeColor=none;fillColor=none;align=center;verticalAlign=middle;whiteSpace=wrap;rounded=0;fontSize=24;" vertex="1" parent="1">
          <mxGeometry x="516" y="659" width="35" height="30" as="geometry" />
        </mxCell>
        <mxCell id="xCgQfyRIKnEqSB6WjNVj-32" value="2" style="text;html=1;strokeColor=none;fillColor=none;align=center;verticalAlign=middle;whiteSpace=wrap;rounded=0;fontSize=24;" vertex="1" parent="1">
          <mxGeometry x="281" y="654" width="35" height="30" as="geometry" />
        </mxCell>
        <mxCell id="xCgQfyRIKnEqSB6WjNVj-33" value="1" style="text;html=1;strokeColor=none;fillColor=none;align=center;verticalAlign=middle;whiteSpace=wrap;rounded=0;fontSize=24;" vertex="1" parent="1">
          <mxGeometry x="108" y="489" width="35" height="30" as="geometry" />
        </mxCell>
        <mxCell id="xCgQfyRIKnEqSB6WjNVj-34" value="3" style="text;html=1;strokeColor=none;fillColor=none;align=center;verticalAlign=middle;whiteSpace=wrap;rounded=0;fontSize=24;" vertex="1" parent="1">
          <mxGeometry x="82" y="369" width="35" height="30" as="geometry" />
        </mxCell>
        <mxCell id="xCgQfyRIKnEqSB6WjNVj-35" value="1" style="text;html=1;strokeColor=none;fillColor=none;align=center;verticalAlign=middle;whiteSpace=wrap;rounded=0;fontSize=24;" vertex="1" parent="1">
          <mxGeometry x="281" y="74" width="35" height="30" as="geometry" />
        </mxCell>
        <mxCell id="xCgQfyRIKnEqSB6WjNVj-36" value="2" style="text;html=1;strokeColor=none;fillColor=none;align=center;verticalAlign=middle;whiteSpace=wrap;rounded=0;fontSize=24;" vertex="1" parent="1">
          <mxGeometry x="399" y="44" width="35" height="30" as="geometry" />
        </mxCell>
        <mxCell id="xCgQfyRIKnEqSB6WjNVj-37" value="1" style="text;html=1;strokeColor=none;fillColor=none;align=center;verticalAlign=middle;whiteSpace=wrap;rounded=0;fontSize=24;" vertex="1" parent="1">
          <mxGeometry x="396" y="700" width="35" height="30" as="geometry" />
        </mxCell>
        <mxCell id="xCgQfyRIKnEqSB6WjNVj-38" value="2" style="text;html=1;strokeColor=none;fillColor=none;align=center;verticalAlign=middle;whiteSpace=wrap;rounded=0;fontSize=24;" vertex="1" parent="1">
          <mxGeometry x="104" y="261" width="35" height="30" as="geometry" />
        </mxCell>
        <mxCell id="xCgQfyRIKnEqSB6WjNVj-39" value="2" style="text;html=1;strokeColor=none;fillColor=none;align=center;verticalAlign=middle;whiteSpace=wrap;rounded=0;fontSize=24;" vertex="1" parent="1">
          <mxGeometry x="173" y="143" width="35" height="30" as="geometry" />
        </mxCell>
      </root>
    </mxGraphModel>
  </diagram>
</mxfile>
